<svg width="50" height="50" viewBox="0 0 50 50" fill="none" xmlns="http://www.w3.org/2000/svg">
<g clip-path="url(#clip0_5_17)">
<path fill-rule="evenodd" clip-rule="evenodd" d="M0 0H50V50H0V0Z" fill="url(#paint0_linear_5_17)"/>
<path fill-rule="evenodd" clip-rule="evenodd" d="M38.0225 26.8081L38.2625 25.1181C40.475 26.4431 40.5044 26.9912 40.5037 27.0056C40.5 27.0094 40.1225 27.3244 38.0225 26.8081ZM36.8081 26.4706C32.9831 25.3125 27.6562 22.8687 25.5 21.85C25.5 21.8412 25.5025 21.8331 25.5025 21.8244C25.502 21.4261 25.3435 21.0443 25.0618 20.7627C24.7802 20.4811 24.3983 20.3228 24 20.3225C23.1725 20.3225 22.4988 20.9962 22.4988 21.8244C22.4988 22.6525 23.1725 23.3262 24 23.3262C24.3638 23.3262 24.6937 23.1906 24.9544 22.975C27.4906 24.175 32.7762 26.5838 36.6294 27.7213L35.1062 38.475C35.102 38.504 35.0999 38.5332 35.1 38.5625C35.1 39.51 30.9081 41.2494 24.0587 41.2494C17.1369 41.2494 12.9006 39.51 12.9006 38.5631C12.9006 38.5344 12.8988 38.5062 12.8944 38.4781L9.71125 15.2237C12.4669 17.1206 18.3938 18.1237 24.0625 18.1237C29.7225 18.1237 35.6394 17.1237 38.4 15.2331L36.8081 26.4706ZM9.375 12.7988C9.42 11.9763 14.1462 8.75 24.0625 8.75C33.9775 8.75 38.7044 11.975 38.75 12.7988V13.0794C38.2062 14.9231 32.0812 16.875 24.0625 16.875C16.03 16.875 9.90187 14.9175 9.375 13.0706V12.7988ZM40 12.8125C40 10.6469 33.7912 7.5 24.0625 7.5C14.3338 7.5 8.125 10.6469 8.125 12.8125L8.18375 13.2837L11.6513 38.6112C11.7344 41.4437 19.2875 42.5 24.0587 42.5C29.9787 42.5 36.2681 41.1387 36.3494 38.6125L37.8469 28.0525C38.68 28.2519 39.3656 28.3538 39.9156 28.3538C40.6556 28.3538 41.1556 28.1725 41.4587 27.8119C41.5803 27.6712 41.6681 27.5045 41.7153 27.3247C41.7625 27.1449 41.768 26.9566 41.7312 26.7744C41.5687 25.91 40.5425 24.9775 38.4512 23.7844L39.9362 13.3081L40 12.8125Z" fill="white"/>
</g>
<defs>
<linearGradient id="paint0_linear_5_17" x1="1.39698e-05" y1="4000" x2="50" y2="7.46222e-06" gradientUnits="userSpaceOnUse">
<stop stop-color="#1B660F"/>
<stop offset="1" stop-color="#6CAE3E"/>
</linearGradient>
<clipPath id="clip0_5_17">
<rect width="50" height="50" fill="white"/>
</clipPath>
</defs>
</svg>
