<svg width="50" height="50" viewBox="0 0 50 50" fill="none" xmlns="http://www.w3.org/2000/svg">
<path fill-rule="evenodd" clip-rule="evenodd" d="M19.9404 31.7126H22.7436V25.3782L28.4842 31.7126H32.1217L24.9904 23.8813L31.7686 17.022H28.0092L22.7436 22.3313V17.022H19.9404V31.7126Z" fill="url(#paint0_linear_5_6)"/>
<path d="M26.6627 11.8846L36.6189 17.5408C36.7016 17.5874 36.7706 17.655 36.8188 17.7368C36.8671 17.8185 36.893 17.9115 36.8939 18.0064V29.3189C36.8939 29.5064 36.9971 29.6877 37.1689 29.7846L46.0502 34.8314C46.1333 34.8794 46.2274 34.9048 46.3233 34.9051C46.4192 34.9055 46.5136 34.8807 46.597 34.8333C46.6803 34.786 46.7499 34.7176 46.7987 34.635C46.8475 34.5525 46.8739 34.4586 46.8752 34.3627V12.3346C46.8748 12.2391 46.8492 12.1454 46.8009 12.0631C46.7526 11.9808 46.6833 11.9127 46.6002 11.8658L27.2127 0.856431C27.1296 0.808466 27.0355 0.783054 26.9396 0.782718C26.8437 0.782382 26.7493 0.807132 26.6659 0.854514C26.5825 0.901895 26.513 0.970259 26.4642 1.05282C26.4154 1.13539 26.389 1.22928 26.3877 1.32518V11.4189C26.3877 11.6127 26.4939 11.7877 26.6627 11.8846Z" fill="url(#paint1_linear_5_6)"/>
<path d="M35.2281 32.1502L25.275 37.8064C25.1912 37.8541 25.0964 37.8792 25 37.8792C24.9036 37.8792 24.8088 37.8541 24.725 37.8064L13.3813 31.3627C13.2981 31.3158 13.2289 31.2477 13.1806 31.1654C13.1323 31.083 13.1066 30.9894 13.1062 30.8939V18.0064C13.1062 17.8127 13.2125 17.6346 13.3813 17.5377L23.3375 11.8814C23.4209 11.8348 23.4903 11.7668 23.5386 11.6844C23.5869 11.602 23.6124 11.5082 23.6125 11.4127V1.32518C23.6112 1.22928 23.5848 1.13539 23.536 1.05282C23.4872 0.970259 23.4176 0.901895 23.3343 0.854514C23.2509 0.807132 23.1565 0.782382 23.0606 0.782718C22.9647 0.783054 22.8706 0.808466 22.7875 0.856431L3.4 11.8689C3.31686 11.9158 3.24762 11.9839 3.19932 12.0662C3.15102 12.1486 3.12537 12.2422 3.125 12.3377V36.5627C3.125 36.7533 3.22813 36.9314 3.4 37.0314L24.725 49.1439C24.8938 49.2377 25.1063 49.2377 25.275 49.1439L44.6625 38.1314C44.7458 38.0847 44.8151 38.0167 44.8633 37.9343C44.9116 37.8519 44.937 37.7581 44.937 37.6627C44.937 37.5672 44.9116 37.4735 44.8633 37.3911C44.8151 37.3087 44.7458 37.2406 44.6625 37.1939L35.7781 32.1471C35.6943 32.0994 35.5995 32.0743 35.5031 32.0743C35.4067 32.0743 35.3119 32.0994 35.2281 32.1471V32.1502Z" fill="url(#paint2_linear_5_6)"/>
<defs>
<linearGradient id="paint0_linear_5_6" x1="33.4092" y1="30.872" x2="26.6279" y2="14.4813" gradientUnits="userSpaceOnUse">
<stop stop-color="#426DDB"/>
<stop offset="1" stop-color="#3B4BDB"/>
</linearGradient>
<linearGradient id="paint1_linear_5_6" x1="49.0408" y1="32.9502" x2="29.8314" y2="-0.665444" gradientUnits="userSpaceOnUse">
<stop stop-color="#426DDB"/>
<stop offset="1" stop-color="#3B4BDB"/>
</linearGradient>
<linearGradient id="paint2_linear_5_6" x1="29.4781" y1="46.5752" x2="8.5375" y2="9.00018" gradientUnits="userSpaceOnUse">
<stop stop-color="#2775FF"/>
<stop offset="1" stop-color="#188DFF"/>
</linearGradient>
</defs>
</svg>
