<svg width="50" height="50" viewBox="0 0 50 50" fill="none" xmlns="http://www.w3.org/2000/svg">
<g clip-path="url(#clip0_5_10)">
<path fill-rule="evenodd" clip-rule="evenodd" d="M45.2969 31.4282L39.1781 26.6782V17.8344C39.1776 17.5693 39.1089 17.3088 38.9786 17.0778C38.8484 16.8469 38.661 16.6533 38.4344 16.5157L29.675 11.15V4.32503L45.3 13.4719V31.4282H45.2969ZM47.6687 11.25L28.9062 0.265657C28.6666 0.126178 28.3946 0.0516594 28.1173 0.0494672C27.84 0.0472749 27.5669 0.117484 27.325 0.253157C27.0858 0.387586 26.8866 0.583105 26.7477 0.81974C26.6087 1.05637 26.5351 1.32564 26.5344 1.60003V12.0125C26.5344 12.55 26.8156 13.05 27.275 13.3313L36.0375 18.6969V27.4313C36.0375 27.9063 36.2594 28.3563 36.6406 28.65L45.8969 35.8469C46.129 36.0281 46.4074 36.1403 46.7003 36.1707C46.9932 36.2011 47.2887 36.1485 47.5531 36.0188C47.8169 35.8934 48.0398 35.696 48.1963 35.4494C48.3527 35.2028 48.4364 34.9171 48.4375 34.625V12.5875C48.4382 12.3167 48.3676 12.0504 48.2326 11.8156C48.0976 11.5808 47.9031 11.3857 47.6687 11.25ZM25.1063 46.75L4.7 36.4719V13.4688L20.275 4.28128V11.1094L11.7094 16.4688C11.4876 16.6086 11.3048 16.8022 11.178 17.0317C11.0512 17.2612 10.9846 17.5191 10.9844 17.7813V32.0532C10.9844 32.6407 11.3187 33.1782 11.8562 33.4438L24.2375 39.5063C24.6781 39.725 25.2031 39.7188 25.6438 39.5L35.3625 34.6094L41.8938 40.0469L25.1094 46.7469L25.1063 46.75ZM36.5906 31.5782C36.3529 31.3821 36.0634 31.2591 35.7573 31.2242C35.4511 31.1893 35.1414 31.2438 34.8656 31.3813L24.9219 36.3813L14.125 31.0938V18.6344L22.6812 13.275C22.9044 13.1362 23.0886 12.9429 23.2165 12.7133C23.3445 12.4837 23.4119 12.2254 23.4125 11.9625V1.55628C23.41 1.27999 23.3345 1.00926 23.1937 0.771497C23.053 0.533734 22.8519 0.337368 22.6109 0.202267C22.3698 0.0671646 22.0974 -0.00188024 21.8211 0.00211736C21.5448 0.00611496 21.2745 0.0830132 21.0375 0.225032L2.32813 11.25C2.09495 11.3868 1.90161 11.5823 1.7673 11.8169C1.633 12.0515 1.56239 12.3172 1.5625 12.5875V37.4188C1.5625 38.0032 1.89375 38.5375 2.41875 38.8L24.3188 49.8313C24.5189 49.9327 24.7385 49.9902 24.9627 49.9999C25.1869 50.0096 25.4106 49.9713 25.6187 49.8875L45.4875 41.9625C45.7369 41.8636 45.9564 41.7016 46.1245 41.4924C46.2925 41.2833 46.4034 41.034 46.4462 40.7691C46.489 40.5043 46.4624 40.2328 46.3688 39.9813C46.2753 39.7298 46.118 39.5069 45.9125 39.3344L36.5906 31.5782Z" fill="black"/>
</g>
<defs>
<clipPath id="clip0_5_10">
<rect width="50" height="50" fill="white"/>
</clipPath>
</defs>
</svg>
