<svg width="50" height="50" viewBox="0 0 50 50" fill="none" xmlns="http://www.w3.org/2000/svg">
<path d="M25.275 37.8064L35.2281 32.1502C35.3119 32.1025 35.4067 32.0774 35.5031 32.0774C35.5995 32.0774 35.6943 32.1025 35.7781 32.1502L44.6625 37.1971C44.7458 37.2438 44.8151 37.3118 44.8633 37.3942C44.9116 37.4766 44.937 37.5703 44.937 37.6658C44.937 37.7613 44.9116 37.855 44.8633 37.9374C44.8151 38.0198 44.7458 38.0878 44.6625 38.1346L25.275 49.1471C25.1912 49.1947 25.0964 49.2198 25 49.2198C24.9036 49.2198 24.8088 49.1947 24.725 49.1471L3.4 37.0314C3.31686 36.9845 3.24762 36.9165 3.19932 36.8341C3.15102 36.7518 3.12537 36.6581 3.125 36.5627V12.3346C3.125 12.1439 3.22813 11.9658 3.4 11.8658L22.7875 0.856431C22.8706 0.808466 22.9647 0.783054 23.0606 0.782718C23.1565 0.782382 23.2509 0.807132 23.3343 0.854514C23.4176 0.901895 23.4872 0.970259 23.536 1.05282C23.5848 1.13539 23.6112 1.22928 23.6125 1.32518V11.4189C23.6124 11.5145 23.5869 11.6082 23.5386 11.6906C23.4903 11.773 23.4209 11.841 23.3375 11.8877L13.3813 17.5439C13.2986 17.5906 13.2296 17.6582 13.1813 17.7399C13.1331 17.8216 13.1072 17.9146 13.1062 18.0096V30.8971C13.1062 31.0908 13.2125 31.2689 13.3813 31.3658L24.725 37.8096C24.8938 37.9033 25.1063 37.9033 25.275 37.8096V37.8064Z" fill="black"/>
<path d="M26.6627 11.8846L36.6189 17.5408C36.7016 17.5874 36.7706 17.655 36.8188 17.7368C36.8671 17.8185 36.893 17.9115 36.8939 18.0064V29.3189C36.8939 29.5064 36.9971 29.6877 37.1689 29.7846L46.0502 34.8314C46.1333 34.8794 46.2274 34.9048 46.3233 34.9051C46.4192 34.9055 46.5136 34.8807 46.597 34.8333C46.6803 34.786 46.7499 34.7176 46.7987 34.635C46.8475 34.5525 46.8739 34.4586 46.8752 34.3627V12.3346C46.8748 12.2391 46.8492 12.1454 46.8009 12.0631C46.7526 11.9808 46.6833 11.9127 46.6002 11.8658L27.2127 0.856431C27.1296 0.808466 27.0355 0.783054 26.9396 0.782718C26.8437 0.782382 26.7493 0.807132 26.6659 0.854514C26.5825 0.901895 26.513 0.970259 26.4642 1.05282C26.4154 1.13539 26.389 1.22928 26.3877 1.32518V11.4189C26.3877 11.6127 26.4939 11.7877 26.6627 11.8846Z" fill="black"/>
<path d="M19.9404 31.7126H22.7436V25.3782L28.4842 31.7126H32.1217L24.9904 23.8813L31.7654 17.022H28.0092L22.7436 22.3313V17.022H19.9404V31.7126Z" fill="black"/>
</svg>
