<svg width="50" height="50" viewBox="0 0 50 50" fill="none" xmlns="http://www.w3.org/2000/svg">
<g clip-path="url(#clip0_5_2)">
<path fill-rule="evenodd" clip-rule="evenodd" d="M25.0936 46.719L4.6998 36.4471V13.4596L20.2623 4.2846V11.1065L11.7061 16.4596C11.4837 16.599 11.3002 16.7925 11.1729 17.0221C11.0456 17.2516 10.9785 17.5096 10.9779 17.7721V32.0315C10.9779 32.6221 11.3123 33.1565 11.8498 33.4221L24.2248 39.4846C24.6623 39.7034 25.1873 39.694 25.6311 39.4752L35.3436 34.5877L41.8686 40.0252L25.0936 46.719ZM36.5686 31.5565C36.3308 31.3604 36.0414 31.2375 35.7352 31.2025C35.4291 31.1676 35.1193 31.2221 34.8436 31.3596L24.9061 36.3596L14.1154 31.0721V18.6221L22.6686 13.269C22.8917 13.1301 23.0759 12.9368 23.2038 12.7073C23.3318 12.4777 23.3992 12.2193 23.3998 11.9565V1.55335C23.3973 1.27706 23.3218 1.00633 23.181 0.768568C23.0403 0.530805 22.8392 0.334439 22.5982 0.199337C22.3571 0.0642349 22.0847 -0.00480993 21.8084 -0.000812328C21.5321 0.00318528 21.2618 0.0800835 21.0248 0.222102L2.33105 11.244C2.09812 11.3803 1.90491 11.5752 1.7706 11.8092C1.63629 12.0433 1.56555 12.3085 1.56543 12.5784V37.3971C1.56543 37.9784 1.89355 38.5127 2.42168 38.7784L24.3092 49.8034C24.5093 49.905 24.7289 49.9626 24.9531 49.9723C25.1773 49.982 25.401 49.9436 25.6092 49.8596L45.4654 41.9377C45.7149 41.8393 45.9344 41.6777 46.1026 41.4688C46.2707 41.2599 46.3816 41.0108 46.4245 40.7461C46.4674 40.4814 46.4407 40.2101 46.347 39.9588C46.2534 39.7075 46.0961 39.4849 45.8904 39.3127L36.5717 31.5565H36.5686Z" fill="url(#paint0_linear_5_2)"/>
<path fill-rule="evenodd" clip-rule="evenodd" d="M45.3 31.3595L39.1813 26.6095V17.7751C39.181 17.5103 39.1128 17.25 38.9831 17.0191C38.8534 16.7882 38.6666 16.5944 38.4406 16.4564L29.6875 11.0908V4.272L45.3031 13.4126L45.3 31.3595ZM47.6687 11.1939L28.9187 0.215751C28.679 0.0762719 28.4071 0.00175377 28.1298 -0.000438473C27.8525 -0.00263072 27.5794 0.0675788 27.3375 0.203251C27.0988 0.337419 26.8998 0.532447 26.7609 0.768485C26.6221 1.00452 26.5482 1.27314 26.5469 1.547V11.9533C26.5469 12.4908 26.8281 12.9908 27.2875 13.272L36.0438 18.6376V27.3626C36.0438 27.8376 36.2656 28.2876 36.6469 28.5814L45.8969 35.772C46.1287 35.9537 46.407 36.0665 46.6999 36.0974C46.9928 36.1284 47.2885 36.0763 47.5531 35.947C47.8171 35.8219 48.0402 35.6246 48.1968 35.3779C48.3533 35.1313 48.4367 34.8454 48.4375 34.5533V12.5314C48.4377 12.2611 48.3667 11.9955 48.2318 11.7612C48.0969 11.527 47.9027 11.3293 47.6687 11.1939Z" fill="url(#paint1_linear_5_2)"/>
</g>
<defs>
<linearGradient id="paint0_linear_5_2" x1="28.8998" y1="11.8971" x2="1.98105" y2="24.6752" gradientUnits="userSpaceOnUse">
<stop offset="0.261" stop-color="#F7981D"/>
<stop offset="0.697" stop-color="#F37731"/>
<stop offset="1" stop-color="#F1623E"/>
</linearGradient>
<linearGradient id="paint1_linear_5_2" x1="28.9" y1="11.897" x2="1.98125" y2="24.6751" gradientUnits="userSpaceOnUse">
<stop offset="0.261" stop-color="#F7981D"/>
<stop offset="0.697" stop-color="#F37731"/>
<stop offset="1" stop-color="#F1623E"/>
</linearGradient>
<clipPath id="clip0_5_2">
<rect width="50" height="50" fill="white"/>
</clipPath>
</defs>
</svg>
