<svg width="45" height="50" viewBox="0 0 45 50" fill="none" xmlns="http://www.w3.org/2000/svg">
<g clip-path="url(#clip0_5_21)">
<path d="M28.5958 49.9137H29.2027L39.1095 44.9597L39.2744 44.7266V5.18408L39.1095 4.94983L29.2027 0H28.5884L28.5958 49.9137Z" fill="#5294CF"/>
<path d="M15.7036 49.9137H15.0882L5.18998 44.9597L4.98911 44.6142L4.88721 5.38547L5.18998 4.94983L15.0882 0H15.7113L15.7036 49.9137Z" fill="#1F5B98"/>
<path d="M15.106 0H29.1935V49.9137H15.106V0Z" fill="#2D72B8"/>
<path d="M44.2955 23.8353L43.9608 23.7611L39.1808 23.3155L39.1099 23.3507L29.1943 22.9542H15.1061L5.19035 23.3507V15.7895L5.17997 15.795L5.19035 15.7729L15.1061 13.4753H29.1943L39.1099 15.7729L42.7551 17.7104V16.4648L44.2955 16.2962L44.136 15.9852L39.2585 12.4975L39.1099 12.5457L29.1943 9.47324H15.1061L5.19035 12.5457V4.94971L0.00488281 11.0246V16.3302L0.0450212 16.3011L1.54537 16.4648V17.736L0.00488281 18.5604V23.8395L0.0450212 23.8353L1.54537 23.8575V26.0732L0.250904 26.0926L0.00488281 26.0691V31.3502L1.54537 32.1786V33.4646L0.0694157 33.6276L0.00488281 33.5791V38.8838L5.19035 44.9596V37.3642L15.1061 40.4367H29.1943L39.1391 37.3552L39.2713 37.4132L44.0846 33.9769L44.2955 33.6345L42.7551 33.4646V32.2044L42.5532 32.1238L39.2585 33.8997L39.1391 34.1488L29.1943 36.4331V36.4359H15.1061V36.4331L5.19035 34.1392V26.5502L15.1061 26.9454V26.9551H29.1943L39.1099 26.5502L39.3357 26.654L43.9687 26.2551L44.2955 26.0954L42.7551 26.0732V23.8575L44.2955 23.8353Z" fill="#1A476F"/>
<path d="M39.1099 37.3642V44.9596L44.2955 38.8838V33.6137L39.1398 37.3552L39.1099 37.3642ZM39.1099 34.1558L39.1398 34.1488L44.2955 31.3758V26.0732L39.1099 26.5502V34.1558ZM39.1398 15.7798L39.1099 15.7729V23.3507L44.2955 23.8353V18.5353L39.1398 15.7798ZM39.1398 12.5755L44.2955 16.2962V11.026L39.1099 4.94971V12.5457L39.1398 12.5561V12.5755Z" fill="#2D72B8"/>
</g>
<defs>
<clipPath id="clip0_5_21">
<rect width="44.3" height="50" fill="white"/>
</clipPath>
</defs>
</svg>
