<svg width="50" height="50" viewBox="0 0 50 50" fill="none" xmlns="http://www.w3.org/2000/svg">
<path d="M24.9469 26.1564C24.7812 26.3845 24.6406 26.572 24.5063 26.7626L18.0469 35.9376C16.0469 38.7814 14.0406 41.6251 12.0344 44.4689C12.0005 44.5143 11.9573 44.552 11.9078 44.5795C11.8582 44.6069 11.8034 44.6236 11.7469 44.6283C8.91563 44.6064 6.08125 44.5751 3.25 44.5408C3.21875 44.5408 3.1875 44.5314 3.125 44.522C3.14746 44.4652 3.17355 44.4099 3.20312 44.3564C8.87307 35.869 14.546 27.3836 20.2219 18.9001C20.5094 18.4689 20.8094 18.047 21.0812 17.6095C21.1502 17.4928 21.1704 17.3535 21.1375 17.222C20.6156 15.6126 20.0813 14.0033 19.55 12.4001C19.3219 11.7126 19.0813 11.0251 18.8688 10.3376C18.8 10.1126 18.6844 10.0439 18.45 10.047C16.6687 10.0533 14.9 10.0501 13.125 10.0501C12.7875 10.0501 12.7875 10.0501 12.7875 9.72826C12.7875 7.62201 12.7875 5.51888 12.7813 3.41263C12.7813 3.17826 12.8625 3.12513 13.0906 3.12513C16.6625 3.13138 20.2344 3.13138 23.8094 3.12513C23.8923 3.11414 23.9765 3.13296 24.0469 3.17826C24.1154 3.22251 24.1655 3.29031 24.1875 3.36888C28.268 13.2763 32.3514 23.1825 36.4375 33.0876C37.1187 34.7439 37.8063 36.397 38.4813 38.0564C38.5625 38.2564 38.6469 38.2939 38.8563 38.2314C40.7313 37.6751 42.6063 37.1314 44.4813 36.572C44.7156 36.5001 44.8 36.547 44.875 36.772C45.5125 38.7095 46.1625 40.6439 46.8125 42.5783L46.875 42.8064C46.7406 42.8533 46.6156 42.9064 46.4875 42.9408L33.7219 46.847C33.5188 46.9095 33.4563 46.847 33.3906 46.6783L29.4844 37.1533L25.6531 27.8283L25.0813 26.4251C25.05 26.3439 25.0094 26.2783 24.9469 26.1564Z" fill="#FA7E14"/>
</svg>
