<svg width="42" height="50" viewBox="0 0 42 50" fill="none" xmlns="http://www.w3.org/2000/svg">
<g clip-path="url(#clip0_5_27)">
<path d="M6.90068 39.4347L2.0752 40.5356V9.28467L6.90068 10.3877V39.4347Z" fill="#F68536"/>
<path d="M12.9215 41.2792L6.90088 42.9902V6.8729L12.9215 8.58177V41.2792ZM20.6448 43.1744L12.9215 46.0008V3.86226L20.6448 6.68742V43.1744ZM41.2954 39.5289L20.6448 49.8542V0L41.2954 10.3253V39.5289Z" fill="#F68536"/>
<path d="M16.5281 2.05855L20.6446 0V49.8542L16.5281 47.7963V2.05855ZM9.73472 5.45484L12.9213 3.86161V45.9926L9.73472 44.3994V5.45484ZM4.3623 8.14145L6.90069 6.87226V42.9819L4.3623 41.7119V8.14145ZM2.07521 9.28468L0.00488281 10.3198V39.535L2.07521 40.5695V9.28468Z" fill="#9D5025"/>
</g>
<defs>
<clipPath id="clip0_5_27">
<rect width="41.3" height="50" fill="white"/>
</clipPath>
</defs>
</svg>
