<svg width="45" height="50" viewBox="0 0 45 50" fill="none" xmlns="http://www.w3.org/2000/svg">
<g clip-path="url(#clip0_5_38)">
<path d="M0 38.8825L5.18547 44.9595L5.65173 44.4056V5.5361L5.18547 4.94873L0 11.0235V38.8825Z" fill="#1A476F"/>
<path d="M5.18652 44.9597L15.0948 49.9135L15.5069 49.2503L15.5137 0.519031L15.1017 0L5.18652 4.93789V44.9597Z" fill="#1F5B98"/>
<path d="M44.2904 11.0235L39.1035 4.94873L38.5234 5.13247L38.6387 44.4634L39.1035 44.9595L44.2904 38.8832V11.0235Z" fill="#2D72B8"/>
<path d="M29.1955 49.9135L39.1038 44.9597V4.93789L29.1886 0L28.7197 0.634429L28.7265 49.1926L29.1955 49.9135Z" fill="#5294CF"/>
<path d="M15.1016 0H29.1888V49.9142H15.1016V0Z" fill="#2D72B8"/>
</g>
<defs>
<clipPath id="clip0_5_38">
<rect width="44.2907" height="50" fill="white"/>
</clipPath>
</defs>
</svg>
