<svg width="50" height="50" viewBox="0 0 50 50" fill="none" xmlns="http://www.w3.org/2000/svg">
<path d="M14.0934 24.0219C14.0934 24.6375 14.1559 25.1375 14.2746 25.5062C14.4059 25.8719 14.5746 26.2719 14.8059 26.7062C14.8797 26.821 14.9197 26.9542 14.9215 27.0906C14.9215 27.2562 14.8215 27.425 14.609 27.5906L13.559 28.2906C13.4329 28.3816 13.283 28.4338 13.1277 28.4406C12.959 28.4406 12.7934 28.3594 12.6277 28.2094C12.4031 27.9677 12.2022 27.705 12.0277 27.425C11.8429 27.1044 11.6719 26.7759 11.5152 26.4406C10.2152 27.975 8.58711 28.7438 6.62461 28.7438C5.22773 28.7438 4.11211 28.3406 3.29961 27.5406C2.48398 26.7406 2.06836 25.6719 2.06836 24.3375C2.06836 22.9188 2.56836 21.7688 3.58086 20.9C4.59648 20.0313 5.94336 19.6 7.65586 19.6C8.21836 19.6 8.80273 19.65 9.41836 19.7313C10.034 19.8156 10.6684 19.95 11.3309 20.1V18.8813C11.3309 17.6125 11.0652 16.7281 10.5496 16.2125C10.0184 15.6938 9.11836 15.4438 7.83711 15.4438C7.25586 15.4438 6.65898 15.5125 6.04336 15.6625C5.43171 15.8081 4.83123 15.9971 4.24648 16.2281C4.0577 16.3136 3.86353 16.3867 3.66523 16.4469C3.57931 16.4753 3.48998 16.4921 3.39961 16.4969C3.16523 16.4969 3.04961 16.3281 3.04961 15.9781V15.1594C3.04961 14.8938 3.08086 14.6906 3.16523 14.5781C3.29116 14.4248 3.45186 14.3037 3.63398 14.225C4.21211 13.925 4.91211 13.675 5.72773 13.475C6.54023 13.2562 7.40586 13.1594 8.32148 13.1594C10.2996 13.1594 11.7465 13.6094 12.6777 14.5094C13.5934 15.4094 14.059 16.7781 14.059 18.6156V24.0219H14.0902H14.0934ZM7.34023 26.5563C7.88711 26.5563 8.45273 26.4563 9.05273 26.2563C9.65273 26.0563 10.184 25.6875 10.6309 25.1875C10.8988 24.8805 11.0924 24.5158 11.1965 24.1219C11.2965 23.7188 11.3652 23.2375 11.3652 22.6688V21.9688C10.8605 21.8464 10.3493 21.7525 9.83398 21.6875C9.31582 21.6205 8.79396 21.586 8.27148 21.5844C7.15586 21.5844 6.34336 21.8031 5.79336 22.2531C5.24336 22.7031 4.98086 23.3375 4.98086 24.1719C4.98086 24.9531 5.17773 25.5375 5.59336 25.9406C5.99336 26.3562 6.57461 26.5563 7.34023 26.5563ZM20.6934 28.3594C20.3934 28.3594 20.1934 28.3094 20.0621 28.1906C19.9277 28.0906 19.8121 27.8594 19.7121 27.5406L15.8059 14.6438C15.7299 14.4275 15.6795 14.203 15.6559 13.975C15.6559 13.7094 15.7871 13.5594 16.0527 13.5594H17.684C17.9965 13.5594 18.2152 13.6094 18.3309 13.725C18.4652 13.825 18.5652 14.0594 18.6652 14.375L21.459 25.4219L24.0527 14.375C24.134 14.0438 24.234 13.825 24.3684 13.725C24.568 13.6028 24.8004 13.545 25.034 13.5594H26.3652C26.6777 13.5594 26.8965 13.6094 27.0277 13.725C27.1621 13.825 27.2777 14.0594 27.3465 14.375L29.9715 25.5563L32.8465 14.375C32.8999 14.1331 33.0151 13.9092 33.1809 13.725C33.3746 13.6025 33.6021 13.5445 33.8309 13.5594H35.3777C35.6434 13.5594 35.7934 13.6938 35.7934 13.975C35.7934 14.0594 35.7746 14.1438 35.7621 14.2438C35.7351 14.3856 35.6954 14.5247 35.6434 14.6594L31.634 27.5563C31.5371 27.8906 31.4184 28.1094 31.2871 28.2094C31.0984 28.3301 30.8764 28.388 30.6527 28.375H29.2246C28.909 28.375 28.6934 28.325 28.559 28.2094C28.4246 28.0906 28.309 27.875 28.2434 27.5406L25.6652 16.7813L23.1027 27.5281C23.0215 27.8625 22.9215 28.0781 22.7902 28.1938C22.6559 28.3125 22.4215 28.3625 22.1246 28.3625H20.6934V28.3594ZM42.0621 28.8094C41.1991 28.8105 40.339 28.7098 39.4996 28.5094C38.6684 28.3094 38.0215 28.0906 37.5871 27.8406C37.3215 27.6906 37.1402 27.525 37.0715 27.3719C37.0081 27.2248 36.9752 27.0664 36.9746 26.9062V26.0563C36.9746 25.7063 37.1059 25.5375 37.3559 25.5375C37.4579 25.5377 37.5592 25.5546 37.6559 25.5875C37.7559 25.6219 37.9059 25.6875 38.0715 25.7562C38.634 26.0062 39.2527 26.2063 39.8996 26.3406C40.5652 26.4719 41.2121 26.5406 41.8777 26.5406C42.9277 26.5406 43.7402 26.3563 44.3059 25.9906C44.5776 25.8261 44.8008 25.5926 44.9529 25.3137C45.105 25.0348 45.1804 24.7206 45.1715 24.4031C45.1771 24.1888 45.1402 23.9754 45.063 23.7753C44.9858 23.5753 44.8697 23.3925 44.7215 23.2375C44.4246 22.9188 43.859 22.6344 43.0434 22.3688L40.6309 21.6188C39.4184 21.2344 38.5184 20.6656 37.9715 19.9156C37.4361 19.2226 37.144 18.3726 37.1402 17.4969C37.1402 16.7969 37.2902 16.1781 37.5871 15.6438C37.8871 15.1125 38.2871 14.6438 38.7871 14.275C39.2871 13.8938 39.8496 13.6094 40.5152 13.4094C41.1809 13.2094 41.8777 13.125 42.609 13.125C42.9777 13.125 43.359 13.1406 43.7246 13.1906C44.1059 13.2406 44.4559 13.3094 44.8059 13.3781C45.1371 13.4594 45.4559 13.5406 45.7527 13.6438C46.0527 13.7438 46.284 13.8438 46.4527 13.9438C46.6489 14.0424 46.8199 14.1845 46.9527 14.3594C47.0597 14.5221 47.1112 14.715 47.0996 14.9094V15.6938C47.0996 16.0438 46.9684 16.2281 46.7184 16.2281C46.497 16.2028 46.2826 16.1349 46.0871 16.0281C45.0822 15.5827 43.9925 15.3609 42.8934 15.3781C41.9465 15.3781 41.1965 15.5281 40.6809 15.8469C40.1652 16.1594 39.8996 16.6469 39.8996 17.3313C39.8996 17.7969 40.0652 18.1969 40.3996 18.5156C40.7309 18.8313 41.3465 19.1469 42.2277 19.4313L44.5902 20.1813C45.7871 20.5656 46.6527 21.1 47.1684 21.7844C47.684 22.4688 47.9309 23.2531 47.9309 24.1219C47.9309 24.8406 47.784 25.4875 47.4996 26.0563C47.2053 26.627 46.7918 27.1279 46.2871 27.525C45.7715 27.9406 45.1559 28.2438 44.4402 28.4594C43.6902 28.6938 42.909 28.8094 42.0621 28.8094Z" fill="black"/>
<path fill-rule="evenodd" clip-rule="evenodd" d="M45.2029 36.9158C39.7342 40.9689 31.7842 43.122 24.9498 43.122C15.3717 43.122 6.74041 39.5689 0.221657 33.6627C-0.293968 33.1939 0.171657 32.5595 0.784157 32.9283C7.83728 37.0314 16.5342 39.5189 25.5342 39.5189C31.5998 39.5189 38.2685 38.2502 44.406 35.647C45.3217 35.2314 46.1029 36.247 45.2029 36.9158Z" fill="black"/>
<path fill-rule="evenodd" clip-rule="evenodd" d="M47.4812 34.3123C46.7843 33.4154 42.8593 33.8811 41.0812 34.0967C40.5499 34.1655 40.4655 33.6967 40.9468 33.3467C44.0718 31.1436 49.2124 31.778 49.8093 32.5123C50.4093 33.2623 49.6437 38.4186 46.7155 40.8873C46.2687 41.2717 45.8374 41.0748 46.0374 40.5748C46.6999 38.9186 48.1812 35.1998 47.4812 34.3155V34.3123Z" fill="black"/>
</svg>
