<svg width="50" height="50" viewBox="0 0 50 50" fill="none" xmlns="http://www.w3.org/2000/svg">
<g clip-path="url(#clip0_5_31)">
<path d="M0 0H50V50H0V0Z" fill="url(#paint0_linear_5_31)"/>
<path d="M32.5 35.327V32.2981L34.375 31.5481V34.577L32.5 35.327ZM29.375 31.5481L31.25 32.2981V35.327L29.375 34.577V31.5481ZM25.625 39.702V36.6731L27.5 35.9231V38.952L25.625 39.702ZM22.5 35.9231L24.375 36.6731V39.702L22.5 38.952V35.9231ZM18.75 35.327V32.2981L20.625 31.5481V34.577L18.75 35.327ZM15.625 31.5481L17.5 32.2981V35.327L15.625 34.577V31.5481ZM18.125 30.0481L19.5676 30.6251L18.125 31.202L16.6824 30.6251L18.125 30.0481ZM25 34.4231L26.4426 35.0001L25 35.577L23.5574 35.0001L25 34.4231ZM31.875 30.0481L33.3176 30.6251L31.875 31.202L30.4324 30.6251L31.875 30.0481ZM35.2318 30.0444L32.1068 28.7944C31.9582 28.7358 31.7918 28.7358 31.6432 28.7944L28.5182 30.0444C28.4022 30.0909 28.3027 30.171 28.2326 30.2745C28.1626 30.378 28.1251 30.5001 28.125 30.6251V34.327L25.2318 33.1694C25.0832 33.1108 24.9168 33.1108 24.7682 33.1694L21.875 34.327V30.6251C21.8749 30.5001 21.8374 30.378 21.7674 30.2745C21.6973 30.171 21.5978 30.0909 21.4818 30.0444L18.3568 28.7944C18.2082 28.7358 18.0418 28.7358 17.8932 28.7944L14.7682 30.0444C14.6522 30.0909 14.5527 30.171 14.4826 30.2745C14.4126 30.378 14.3751 30.5001 14.375 30.6251V35.0001C14.375 35.2557 14.5307 35.485 14.7682 35.5807L17.8932 36.8307C17.9674 36.86 18.0463 36.8751 18.125 36.8751C18.2037 36.8751 18.2824 36.86 18.3568 36.8307L21.25 35.6731V39.3751C21.25 39.6307 21.4057 39.86 21.6432 39.9557L24.7682 41.2057C24.8424 41.235 24.9213 41.2501 25 41.2501C25.0787 41.2501 25.1574 41.235 25.2318 41.2057L28.3568 39.9557C28.4728 39.9092 28.5723 39.8291 28.6424 39.7256C28.7124 39.6221 28.7499 39.5 28.75 39.3751V35.6731L31.6432 36.8307C31.7174 36.86 31.7963 36.8751 31.875 36.8751C31.9537 36.8751 32.0324 36.86 32.1068 36.8307L35.2318 35.5807C35.3478 35.5342 35.4473 35.4541 35.5174 35.3506C35.5874 35.2471 35.6249 35.125 35.625 35.0001V30.6251C35.6249 30.5001 35.5874 30.378 35.5174 30.2745C35.4473 30.171 35.3478 30.0909 35.2318 30.0444ZM40.625 22.4614C40.625 26.1145 32.5742 28.0864 25 28.0864C17.4258 28.0864 9.375 26.1145 9.375 22.4614C9.375 20.7169 11.3094 19.1813 14.8219 18.137L15.1781 19.335C12.3695 20.17 10.625 21.3682 10.625 22.4614C10.625 24.5307 16.5281 26.8364 25 26.8364C33.4719 26.8364 39.375 24.5307 39.375 22.4614C39.375 21.3682 37.6307 20.17 34.8219 19.335L35.1781 18.137C38.6906 19.1813 40.625 20.7169 40.625 22.461M25 10.669L31.3838 13.1251L25 15.5807L18.6162 13.1251L25 10.669ZM31.6125 23.0258C30.4338 23.5534 28.4551 24.1678 25.625 24.2504V16.6792L32.5 14.0354V21.6549C32.5 22.2493 32.1523 22.7872 31.6125 23.0258ZM17.5 21.6549V14.0356L24.375 16.6794V24.2506C21.5449 24.1682 19.5664 23.5538 18.385 23.0251C17.8475 22.7876 17.5 22.2493 17.5 21.6549ZM17.8775 24.1669C19.2531 24.7825 21.6057 25.5168 25 25.5168C28.3945 25.5168 30.7469 24.7825 32.1207 24.1682C33.1105 23.7301 33.75 22.7438 33.75 21.6551V13.1251C33.75 12.9987 33.7117 12.8753 33.6402 12.7711C33.5687 12.6669 33.4673 12.5867 33.3494 12.5413L25.2244 9.41626C25.0799 9.36125 24.9201 9.36125 24.7756 9.41626L16.6506 12.5413C16.5327 12.5867 16.4313 12.6669 16.3598 12.7711C16.2883 12.8753 16.25 12.9987 16.25 13.1251V21.6551C16.25 22.7438 16.8895 23.7301 17.8775 24.1669Z" fill="white"/>
</g>
<defs>
<linearGradient id="paint0_linear_5_31" x1="0" y1="5000" x2="5000" y2="0" gradientUnits="userSpaceOnUse">
<stop stop-color="#C8511B"/>
<stop offset="1" stop-color="#FF9900"/>
</linearGradient>
<clipPath id="clip0_5_31">
<rect width="50" height="50" fill="white"/>
</clipPath>
</defs>
</svg>
