<svg width="50" height="50" viewBox="0 0 50 50" fill="none" xmlns="http://www.w3.org/2000/svg">
<g clip-path="url(#clip0_5_54)">
<path d="M19.9219 22.2655V14.5562H25.4844C28.525 14.5562 30.3031 15.9843 30.3031 18.4218C30.3031 20.928 28.4156 22.2655 24.7906 22.2655H19.9219ZM19.9219 34.0218H25.8531C29.5531 34.0218 31.5094 32.5218 31.5094 29.7187C31.5094 26.953 29.4781 25.5062 25.6156 25.5062H19.9219V34.0218Z" fill="black"/>
<path d="M12.5059 0C9.19065 0 6.01123 1.31696 3.66702 3.66117C1.32282 6.00537 0.00585938 9.18479 0.00585938 12.5V37.5C0.00585938 40.8152 1.32282 43.9946 3.66702 46.3388C6.01123 48.683 9.19065 50 12.5059 50H37.5059C40.8211 50 44.0005 48.683 46.3447 46.3388C48.6889 43.9946 50.0059 40.8152 50.0059 37.5V12.5C50.0059 9.18479 48.6889 6.00537 46.3447 3.66117C44.0005 1.31696 40.8211 0 37.5059 0L12.5059 0ZM15.8184 37.5V11.0781H26.4402C31.3996 11.0781 34.3871 13.6063 34.3871 17.6719C34.3871 20.4344 32.3559 22.9063 29.7527 23.3469V23.6594C33.3246 24.025 35.7027 26.5688 35.7027 30.0125C35.7027 34.6625 32.3152 37.5 26.6777 37.5H15.8184Z" fill="black"/>
</g>
<defs>
<clipPath id="clip0_5_54">
<rect width="50" height="50" fill="white"/>
</clipPath>
</defs>
</svg>
