<svg width="50" height="50" viewBox="0 0 50 50" fill="none" xmlns="http://www.w3.org/2000/svg">
<path d="M41.2099 18.72V14.9L37.1899 10.5L30.6099 25L37.1899 39.495L41.2099 35.09V31.27L39.8699 32.18V30.345L41.2099 29.65V25.805L39.8699 25.84V24.12L41.2099 24.185V20.44L39.8699 19.74V18.45L41.2099 18.72Z" fill="#7B7B7B"/>
<path d="M30.0249 43.085L37.1899 39.495V10.495L30.0249 6.91504L21.8999 25.305L30.0249 43.085Z" fill="#989898"/>
<path d="M19.9752 43.085H30.0252V6.91504H19.9752L14.7852 25.305L19.9752 43.085Z" fill="#7B7B7B"/>
<path d="M19.9752 43.085L12.7452 39.495L10.4702 25.305L12.7452 10.495L19.9552 6.91504L19.9752 43.085Z" fill="#4E4E4E"/>
<path d="M39.8698 30.3451L37.1848 31.6551L30.0248 33.2001H25.1348H19.9748L12.9448 31.6551L12.8198 31.6301L12.7398 31.6101V26.1501L19.9648 26.6701H25.1348H30.0248L37.1898 26.1501L41.2148 25.8151L39.8698 25.8051V24.1951L41.1948 24.1801L37.1898 23.8851L30.0248 23.6551H25.1348H20.0298L12.7398 23.8301V18.3301L12.8198 18.3151L20.0298 16.6201H25.1348H30.0248L37.1898 18.3151L39.8698 19.7451V18.8401L41.2098 18.7301L37.1898 15.9201L30.0248 13.6051H25.1348H20.0298L12.7398 16.0001V10.4951L9.22484 14.9001V18.7251L10.2298 18.8401V19.7601L9.22484 20.3601V24.1851L10.2298 24.1951V25.8051L9.22484 25.8201V29.6251L10.2298 30.2251V31.1601L9.21484 31.2751L9.22484 35.0851L12.7398 39.4901V33.9851L19.9698 36.2151H25.1348H30.0248L37.1898 33.9951L41.2098 31.2701L39.8698 31.1601V30.3451Z" fill="#373737"/>
</svg>
