<svg width="50" height="50" viewBox="0 0 50 50" fill="none" xmlns="http://www.w3.org/2000/svg">
<g clip-path="url(#clip0_5_65)">
<path d="M50 0H0V50H50V0Z" fill="url(#paint0_linear_5_65)"/>
<path fill-rule="evenodd" clip-rule="evenodd" d="M32.5537 34.2814C30.4675 35.9681 26.0906 36.8596 21.9025 36.8596C17.7137 36.8596 13.3356 35.9675 11.25 34.2808V37.6778C11.25 39.372 15.625 41.2602 21.9025 41.2602C28.175 41.2602 32.5468 39.3745 32.5537 37.6815V34.2814ZM32.5543 27.8264L33.8043 27.8196V27.8264C33.8043 28.5815 33.4262 29.2863 32.69 29.9316C33.5825 30.717 33.8043 31.4875 33.8043 32.0361C33.8043 32.0399 33.8037 32.043 33.8037 32.0467V37.6778C33.8037 40.8095 27.6719 42.5 21.9025 42.5C16.1469 42.5 10.0313 40.817 10.0019 37.6995C10.0019 37.6964 10 37.6933 10 37.6902V32.0343C10 32.033 10.0013 32.0312 10.0013 32.0293C10.0031 31.4807 10.2256 30.7133 11.1169 29.9297C10.2312 29.1474 10.0062 28.3843 10.0006 27.8401H10.0013C10.0013 27.8376 10 27.8357 10 27.8332V22.1773C10 22.1754 10.0013 22.1736 10.0013 22.1717C10.0031 21.6231 10.2263 20.8557 11.1175 20.0734C10.2313 19.2904 10.0062 18.5267 10.0006 17.9831H10.0013C10.0013 17.9806 10 17.9781 10 17.9756V12.3203C10 12.3185 10.0013 12.3166 10.0013 12.3147C10.0119 9.18736 16.1375 7.5 21.9025 7.5C25.1594 7.5 28.2881 8.01761 30.4862 8.92018L30.0081 10.0658C27.9562 9.22331 25.0019 8.73979 21.9025 8.73979C15.625 8.73979 11.2506 10.628 11.2506 12.3234C11.2506 14.0182 15.625 15.9064 21.9025 15.9064C22.0719 15.9083 22.2375 15.9064 22.405 15.9002L22.4575 17.1388C22.2725 17.1462 22.0875 17.1462 21.9025 17.1462C17.7137 17.1462 13.3356 16.2542 11.25 14.5674V17.9626L11.2506 17.9769C11.2569 18.6271 11.9237 19.195 12.4825 19.5558C14.1637 20.6276 17.1762 21.3597 20.5356 21.5115L20.4787 22.7501C17.0756 22.5957 14.0956 21.8897 12.1775 20.8073C11.705 21.1607 11.2506 21.6386 11.2506 22.1804C11.2506 23.8752 15.625 25.7634 21.9025 25.7634C22.5181 25.7634 23.1294 25.7429 23.72 25.702L23.8069 26.9387C23.1881 26.9815 22.5469 27.0032 21.9025 27.0032C17.7137 27.0032 13.3356 26.1112 11.25 24.4244V27.8196C11.2562 28.4841 11.9237 29.0513 12.4825 29.4127C14.405 30.6395 18.015 31.4032 21.9025 31.4032H22.1775V32.643H21.9025C17.9531 32.643 14.3637 31.9097 12.1687 30.6705C11.6987 31.0232 11.2506 31.4987 11.2506 32.0361C11.2506 33.7309 15.625 35.6198 21.9025 35.6198C28.175 35.6198 32.5468 33.734 32.5537 32.0405V32.0343C32.5525 31.4956 32.1025 31.0195 31.6312 30.6668C31.3262 30.8397 30.9993 31.0065 30.6275 31.1596L30.1487 30.014C30.6025 29.8274 30.9962 29.626 31.3193 29.414C31.8831 29.0464 32.5543 28.4717 32.5543 27.8264ZM37.9081 18.7604H34.4056C34.1987 18.7604 34.0043 18.6588 33.8887 18.4889C33.7718 18.3191 33.7481 18.1027 33.8243 17.9124L35.955 12.5863H27.8869L24.1369 20.025H28.1256C28.325 20.025 28.5125 20.1199 28.6306 20.2792C28.7475 20.4391 28.7819 20.6443 28.7212 20.8334L25.1612 31.9308L37.9081 18.7604ZM39.8262 18.5701L24.2019 34.7122C24.08 34.8375 23.9162 34.9025 23.7506 34.9025C23.6406 34.9025 23.53 34.8746 23.4312 34.8158C23.1812 34.6682 23.0669 34.3701 23.155 34.0948L27.2712 21.2648H23.1256C22.9087 21.2648 22.7081 21.1539 22.5937 20.971C22.48 20.7881 22.4694 20.56 22.5669 20.3678L26.9419 11.6893C27.0475 11.4791 27.2637 11.3465 27.5006 11.3465H36.8756C37.0825 11.3465 37.2768 11.4487 37.3925 11.618C37.5093 11.7884 37.5331 12.0042 37.4568 12.1951L35.3262 17.5206H39.375C39.625 17.5206 39.8518 17.6694 39.95 17.8975C40.0481 18.1263 39.9993 18.391 39.8262 18.5701ZM12.1594 37.9214C13.045 38.4205 14.16 38.8401 15.4731 39.1674L15.7781 37.9648C14.5912 37.6691 13.5537 37.2811 12.7769 36.8434L12.1594 37.9214ZM15.4731 29.2491L15.7781 28.0471C14.5912 27.7508 13.5537 27.3627 12.7769 26.9251L12.1594 28.0031C13.045 28.5021 14.1594 28.9218 15.4731 29.2491ZM12.1594 18.0847L12.7769 17.0067C13.5525 17.4444 14.5906 17.8318 15.7781 18.1288L15.4731 19.3307C14.1581 19.0028 13.0437 18.5831 12.1594 18.0847Z" fill="white"/>
</g>
<defs>
<linearGradient id="paint0_linear_5_65" x1="0" y1="5000" x2="5000" y2="0" gradientUnits="userSpaceOnUse">
<stop stop-color="#2E27AD"/>
<stop offset="1" stop-color="#527FFF"/>
</linearGradient>
<clipPath id="clip0_5_65">
<rect width="50" height="50" fill="white"/>
</clipPath>
</defs>
</svg>
