<svg width="50" height="50" viewBox="0 0 50 50" fill="none" xmlns="http://www.w3.org/2000/svg">
<path d="M29.8674 3.00794C29.7619 3.02356 29.6565 3.05481 29.5549 3.10169C28.6955 3.52747 27.719 4.79309 27.5315 5.04309C27.5198 5.05872 27.508 5.07434 27.5002 5.08997C26.5354 6.53528 26.0198 8.22669 26.0002 9.98841C25.9885 11.3087 26.2463 12.6173 26.7698 13.879C27.9885 16.8048 30.5198 19.2267 33.5315 20.3595C33.633 20.3947 33.7307 20.4298 33.9065 20.4923C33.9221 20.5001 34.0705 20.547 34.094 20.5509L34.2033 20.59C34.3596 20.6407 34.5198 20.6915 34.676 20.7228C35.469 20.8829 36.2424 20.9728 36.969 20.9962C37.094 20.9962 37.219 21.0001 37.344 21.0001C42.8244 21.0001 44.9494 17.1329 45.6565 15.8439C45.7268 15.7189 45.7776 15.6173 45.8244 15.5548C45.8244 15.5509 45.8244 15.5509 45.8283 15.547C46.1369 15.09 46.0197 14.4689 45.5627 14.1564C45.1096 13.8478 44.4885 13.965 44.176 14.422H44.1721C42.7112 16.5743 40.2112 17.2267 36.7463 16.3673C36.4885 16.3048 36.2072 16.2072 35.9572 16.1134C35.6291 15.9962 35.301 15.8595 34.9963 15.7111C34.3908 15.4103 33.8205 15.0509 33.3049 14.6525C30.258 12.2892 29.0666 7.37122 30.8479 4.53137C31.0862 4.15247 31.0432 3.66028 30.7424 3.32825C30.5158 3.07825 30.1877 2.96497 29.8674 3.00794ZM21.008 5.00012C20.7815 4.99622 20.551 5.07044 20.3635 5.22669C18.8518 6.45716 17.3049 8.47278 17.2385 8.55481C17.2307 8.57044 17.2229 8.58216 17.2112 8.59778C14.4768 12.5782 14.2697 18.2423 16.6877 23.0275C17.0666 23.7853 17.4963 24.5079 17.9533 25.172L18.0901 25.3673C18.4768 25.9337 18.9104 26.5743 19.4651 27.0743C19.6565 27.2931 19.8635 27.504 20.0666 27.7072L20.1643 27.8087L20.2463 27.8907C20.4533 28.09 20.6643 28.2931 20.883 28.4884H20.8869C20.9026 28.5118 20.926 28.5275 20.9455 28.547C21.1916 28.7657 21.4416 28.9728 21.7737 29.2345L21.8635 29.3009C22.1213 29.5079 22.383 29.7032 22.6526 29.8947C22.6799 29.9142 22.7073 29.9337 22.7346 29.9532C22.8283 30.0157 22.9221 30.0743 23.0158 30.1407L23.1096 30.2032L23.219 30.2736C23.4182 30.4064 23.6135 30.5275 23.8908 30.6876C24.0705 30.797 24.2619 30.9064 24.3869 30.9689C24.4416 31.0001 24.5002 31.0314 24.6369 31.1056L24.9416 31.2657C24.9573 31.2736 25.0276 31.3048 25.0432 31.3126C25.2424 31.4142 25.4494 31.5118 25.6565 31.6056L25.9729 31.7462C26.1799 31.8361 26.3908 31.922 26.6487 32.0197L26.7658 32.0626C26.7737 32.0704 26.8713 32.1056 26.8791 32.1095C27.0666 32.1759 27.258 32.2423 27.4494 32.3048L27.8869 32.4493C28.1057 32.5236 28.3596 32.6095 28.6369 32.6564C30.0002 32.8829 31.3244 33.0001 32.5783 33.0001C32.7268 33.0001 32.8752 32.9962 33.0198 32.9962C44.0588 32.754 46.9299 23.3751 46.9572 23.2814C47.094 22.8087 46.8713 22.3048 46.426 22.0939C45.9807 21.8829 45.4494 22.0314 45.1721 22.4376C42.3752 26.5236 37.0862 28.2501 31.6994 26.8282C31.4494 26.7657 31.2073 26.6954 30.9065 26.5978C30.8557 26.5822 30.8127 26.5665 30.7307 26.5353C30.5549 26.4806 30.383 26.422 30.1877 26.3478L29.9104 26.2423C29.7502 26.1798 29.5901 26.1173 29.3948 26.0314L29.2658 25.9728C29.0276 25.8712 28.7971 25.7579 28.5901 25.6564L28.0198 25.3595C27.8908 25.297 27.7776 25.2267 27.6018 25.1212L27.5041 25.0665L27.4065 25.0079C27.2619 24.922 27.1174 24.8322 26.9846 24.7384L26.8908 24.6798C26.883 24.6759 26.8049 24.6212 26.7971 24.6134C26.6799 24.5392 26.5666 24.465 26.4573 24.3947C26.2151 24.2228 25.9768 24.0431 25.6994 23.8243L25.5901 23.7345C23.0119 21.6759 21.1057 18.9259 20.2112 15.9767C19.3791 13.2697 19.9963 9.72669 21.8635 6.50012C22.1057 6.08216 22.0158 5.5509 21.6448 5.2384C21.4612 5.08215 21.2346 5.00012 21.008 5.00012ZM10.0041 8.00012C9.76584 8.00012 9.52366 8.08606 9.33225 8.25794C7.42209 9.97278 5.99241 12.1954 5.83616 12.4493C1.75022 18.3986 2.53928 27.6447 5.34397 33.297C5.39866 33.4142 5.45725 33.5275 5.51584 33.6407L5.55491 33.7032C5.60569 33.8165 5.66428 33.9337 5.68381 33.9572C5.71506 34.0314 5.76194 34.1134 5.78147 34.1368C5.82834 34.2345 5.87522 34.3204 5.96116 34.4689L6.28147 35.0197C6.32834 35.0939 6.37522 35.172 6.39084 35.1993C6.45334 35.3009 6.51975 35.4064 6.58616 35.5118L6.74241 35.7618C6.78928 35.8361 6.83616 35.9025 6.86741 35.9415C7.02366 36.1837 7.17991 36.4259 7.35178 36.6564C7.35959 36.6681 7.36741 36.6759 7.37522 36.6837L7.43772 36.7697C7.57834 36.9728 7.72287 37.1681 7.85178 37.3283L8.42209 38.0509C8.42991 38.0587 8.49241 38.1329 8.49631 38.1408L8.57834 38.2345C8.75022 38.4454 8.93381 38.6564 9.11741 38.8595C9.14475 38.8908 9.17209 38.9181 9.19944 38.9493C9.37522 39.1408 9.55491 39.3322 9.74241 39.5314L9.92209 39.7033C10.0705 39.8595 10.219 40.0118 10.3752 40.1564C10.3752 40.1603 10.4494 40.2306 10.4494 40.2306L10.6057 40.3751C10.7932 40.5548 10.9885 40.7345 11.1369 40.8595C11.1447 40.8712 11.2854 40.9923 11.2971 41.0001C11.4807 41.1642 11.6643 41.3204 11.8518 41.4728L12.8088 42.2306C12.969 42.3478 13.133 42.465 13.3205 42.6017C13.383 42.6486 13.4494 42.6954 13.5158 42.7384C13.5432 42.7618 13.5744 42.7853 13.594 42.797L14.3127 43.2775C14.5744 43.4493 14.8362 43.6095 15.1565 43.8009L15.3283 43.8986C15.5276 44.0158 15.7307 44.1329 15.9221 44.2345C16.0354 44.297 16.1487 44.3517 16.2463 44.4025C16.383 44.4767 16.5315 44.5587 16.758 44.6681C16.7776 44.6798 16.9377 44.7579 16.9572 44.7658C17.1838 44.879 17.4143 44.9845 17.7033 45.1134C17.7033 45.1173 17.7971 45.1603 17.7971 45.1603C18.0627 45.2736 18.3205 45.3829 18.6604 45.5197C18.7151 45.5431 18.7697 45.5626 18.7815 45.5665C19.0237 45.6603 19.2776 45.754 19.4846 45.8283C19.5041 45.8361 19.6096 45.879 19.6291 45.8868C19.9065 45.9806 20.1799 46.0704 20.5315 46.1798C20.5901 46.1993 20.6526 46.2189 20.6604 46.2189L20.8596 46.2814C21.1018 46.3556 21.344 46.4337 21.6057 46.4845C23.4651 46.8243 25.2815 47.0001 27.0002 47.0001H27.0041C41.3283 47.0001 45.8908 35.4728 45.9377 35.3556C46.1135 34.8908 45.9221 34.3673 45.4846 34.1251C45.0549 33.8868 44.508 34.0001 44.2033 34.3947C40.5276 39.2345 33.594 41.0314 25.6565 39.2072C25.4651 39.1603 25.2698 39.1056 25.0783 39.047L24.7033 38.9337C24.4494 38.8556 24.1955 38.7697 23.9494 38.6837C23.9455 38.6837 23.8323 38.6408 23.8323 38.6408C23.6135 38.5665 23.3948 38.4806 23.2033 38.4064L22.9846 38.3204C22.7424 38.2228 22.5002 38.1212 22.2658 38.0158L22.1291 37.9572C21.9182 37.8595 21.7151 37.7658 21.5119 37.6642C21.4963 37.6564 21.3362 37.5783 21.3205 37.5743C21.1799 37.504 21.0393 37.4298 20.8596 37.3322L20.0432 36.8947C19.9612 36.84 19.8752 36.7892 19.7932 36.7462C19.5471 36.5939 19.2932 36.4415 19.0432 36.2814C18.9846 36.2462 18.9338 36.2072 18.8362 36.1408C18.6643 36.0314 18.4963 35.9181 18.2502 35.7462L18.1526 35.6759C17.9846 35.5587 17.8205 35.4337 17.6838 35.3322C17.5979 35.2697 17.5119 35.1993 17.3713 35.0939C17.2463 34.9962 17.1213 34.9025 17.0041 34.8087L16.7854 34.629C16.6018 34.4806 16.4299 34.3243 16.2502 34.172C16.2268 34.1486 16.2072 34.1329 16.1799 34.1134C15.9807 33.9298 15.7776 33.7462 15.5354 33.5157L14.8283 32.8126C14.6565 32.6368 14.4846 32.4572 14.2893 32.2423C14.1096 32.0431 13.9377 31.8439 13.7072 31.5704L13.2854 31.0548C13.2346 30.9806 13.1799 30.9064 13.1135 30.8282C12.969 30.6329 12.8244 30.4415 12.6799 30.2384C8.78928 24.879 7.77366 13.6915 10.8049 9.59387C11.1096 9.18372 11.0549 8.60559 10.6721 8.25794C10.4846 8.08606 10.2424 8.00012 10.0041 8.00012Z" fill="black"/>
</svg>
