<svg width="50" height="50" viewBox="0 0 50 50" fill="none" xmlns="http://www.w3.org/2000/svg">
<path d="M31 24C28.243 24 26 21.757 26 19V7C26 4.243 28.243 2 31 2C33.757 2 36 4.243 36 7V19C36 21.757 33.757 24 31 24ZM43 24H39C38.447 24 38 23.553 38 23V19C38 16.243 40.243 14 43 14C45.757 14 48 16.243 48 19C48 21.757 45.757 24 43 24ZM19 24H7C4.243 24 2 21.757 2 19C2 16.243 4.243 14 7 14H19C21.757 14 24 16.243 24 19C24 21.757 21.757 24 19 24ZM23 12H19C16.243 12 14 9.757 14 7C14 4.243 16.243 2 19 2C21.757 2 24 4.243 24 7V11C24 11.553 23.553 12 23 12ZM19 48C16.243 48 14 45.757 14 43V31C14 28.243 16.243 26 19 26C21.757 26 24 28.243 24 31V43C24 45.757 21.757 48 19 48ZM7 36C4.243 36 2 33.757 2 31C2 28.243 4.243 26 7 26H11C11.553 26 12 26.447 12 27V31C12 33.757 9.757 36 7 36ZM43 36H31C28.243 36 26 33.757 26 31C26 28.243 28.243 26 31 26H43C45.757 26 48 28.243 48 31C48 33.757 45.757 36 43 36ZM31 48C28.243 48 26 45.757 26 43V39C26 38.447 26.447 38 27 38H31C33.757 38 36 40.243 36 43C36 45.757 33.757 48 31 48Z" fill="black"/>
</svg>
