<svg width="50" height="50" viewBox="0 0 50 50" fill="none" xmlns="http://www.w3.org/2000/svg">
<path d="M25 36.125C10.7475 36.125 0 31.4625 0 25C0 18.5375 10.7475 13.75 25 13.75C39.2525 13.75 50 18.5375 50 25C50 31.4625 39.2525 36.125 25 36.125ZM25 17.415C12.8387 17.415 3.59375 21.4975 3.59375 25.0787C3.59375 28.66 12.8387 32.585 25 32.585C37.1613 32.585 46.4062 28.5025 46.4062 24.9213C46.4062 21.34 37.1613 17.415 25 17.415Z" fill="#4E7AB5"/>
<path d="M15.5025 47.5002C14.3387 47.5002 13.2762 47.2302 12.3425 46.6977C10.8175 45.8264 9.72374 44.2877 9.17749 42.2452C7.74499 36.8927 10.0562 27.8927 15.0687 19.3152C20.95 9.25891 28.7587 2.50391 34.4987 2.50391C35.6612 2.50391 36.7237 2.77391 37.6575 3.30641C39.18 4.17516 40.275 5.71266 40.8212 7.75391C42.255 13.1064 39.9425 22.1077 34.9275 30.6852C29.0512 40.7427 21.2437 47.5002 15.5025 47.5002ZM34.4987 6.25391C30.8887 6.25391 23.9875 11.4952 18.3062 21.2077C13.1525 30.0277 11.6412 37.3439 12.8012 41.2752C13.115 42.3364 13.5575 43.0727 14.2025 43.4402C17.1537 45.1252 25.2137 39.8777 31.6912 28.7939C36.8475 19.9727 38.5162 12.8127 37.1987 8.72516C36.86 7.67391 36.4437 6.93141 35.8 6.56516C35.4337 6.35516 35.0075 6.25391 34.4987 6.25391Z" fill="#4E7AB5"/>
<path d="M34.4987 47.4963C28.7525 47.495 20.945 40.74 15.0687 30.685C10.0562 22.1075 7.74499 13.1063 9.17749 7.755C9.72374 5.7125 10.8175 4.17375 12.3412 3.30375C13.2762 2.77 14.3387 2.5 15.5 2.5C21.2437 2.5 29.05 9.2575 34.9275 19.315C39.9412 27.8912 42.2525 36.8925 40.82 42.2463C40.2725 44.2875 39.1787 45.825 37.6575 46.6937C36.7237 47.2262 35.66 47.4963 34.4987 47.4963ZM15.5 6.25C14.9912 6.25 14.5662 6.3525 14.2 6.56C13.5562 6.9275 13.1075 7.66125 12.8 8.725C11.64 12.735 13.1512 19.9737 18.305 28.7937C23.9812 38.505 30.8837 43.7463 34.4975 43.7463C35.0075 43.7463 35.4325 43.6438 35.7987 43.435C36.4412 43.07 36.9025 42.34 37.1962 41.275C38.28 37.3425 36.845 30.025 31.69 21.2063C26.0137 11.4925 19.1125 6.25 15.5 6.25Z" fill="#4E7AB5"/>
<path d="M29.375 25C29.375 27.4187 27.4187 29.375 25 29.375C22.5813 29.375 20.625 27.4187 20.625 25C20.625 22.5813 22.5813 20.625 25 20.625C27.4187 20.625 29.375 22.5813 29.375 25Z" fill="#8BB7F0"/>
<path d="M25 30C22.2425 30 20 27.7575 20 25C20 22.2425 22.2425 20 25 20C27.7575 20 30 22.2425 30 25C30 27.7575 27.7575 30 25 30ZM25 21.25C22.9325 21.25 21.25 22.9325 21.25 25C21.25 27.0675 22.9325 28.75 25 28.75C27.0675 28.75 28.75 27.0675 28.75 25C28.75 22.9325 27.0675 21.25 25 21.25Z" fill="#4E7AB5"/>
<path d="M25 35.085C11.6825 35.085 1.25 30.655 1.25 25C1.25 19.345 11.6825 14.915 25 14.915C38.3175 14.915 48.75 19.345 48.75 25C48.75 30.655 38.3175 35.085 25 35.085ZM25 16.165C12.8038 16.165 2.5 20.2113 2.5 25C2.5 29.7888 12.8038 33.835 25 33.835C37.1962 33.835 47.5 29.79 47.5 25C47.5 20.21 37.1962 16.165 25 16.165Z" fill="#8BB7F0"/>
<path d="M15.5027 46.2502C14.559 46.2502 13.7052 46.0352 12.9615 45.6114C11.7165 44.9002 10.8502 43.6589 10.384 41.9214C9.03272 36.8752 11.2952 28.2489 16.1465 19.9452C21.724 10.4127 29.2702 3.75391 34.499 3.75391C35.4415 3.75391 36.2965 3.96891 37.039 4.39266C38.2827 5.10266 39.149 6.34266 39.6152 8.07766C40.9665 13.1239 38.704 21.7502 33.8502 30.0552C28.2765 39.5902 20.7327 46.2502 15.5027 46.2502ZM34.499 5.00391C29.769 5.00391 22.5052 11.5527 17.2277 20.5764C12.609 28.4827 10.344 36.9302 11.5927 41.5989C11.969 43.0027 12.6377 43.9864 13.5827 44.5264C14.134 44.8402 14.779 45.0002 15.5015 45.0002C20.2327 45.0002 27.4952 38.4502 32.769 29.4239C37.3902 21.5164 39.6565 13.0677 38.4052 8.40141C38.0302 7.00016 37.3615 6.01641 36.4177 5.47891C35.8665 5.16391 35.2215 5.00391 34.499 5.00391Z" fill="#8BB7F0"/>
<path d="M34.4988 46.2463C29.2651 46.245 21.7188 39.5875 16.1476 30.055C11.2951 21.7513 9.03381 13.125 10.3851 8.07875C10.8501 6.34125 11.7163 5.1 12.9626 4.38875C13.7051 3.965 14.5588 3.75 15.5001 3.75C20.7313 3.75 28.2763 10.41 33.8488 19.945C38.7026 28.2475 40.9638 36.8737 39.6113 41.9225C39.1476 43.6587 38.2813 44.8988 37.0376 45.6075C36.2951 46.0313 35.4413 46.2463 34.4988 46.2463ZM15.5001 5C14.7788 5 14.1326 5.16 13.5813 5.47375C12.6363 6.01375 11.9676 6.9975 11.5913 8.40125C10.3426 13.0688 12.6076 21.5175 17.2263 29.4237C22.5001 38.4462 29.7651 44.995 34.4988 44.9963C35.2213 44.9963 35.8676 44.8363 36.4188 44.5213C37.3613 43.9838 38.0301 43 38.4051 41.5987C39.6551 36.93 37.3901 28.4813 32.7701 20.5763C27.4951 11.5513 20.2338 5 15.5001 5Z" fill="#8BB7F0"/>
</svg>
