<svg width="50" height="50" viewBox="0 0 50 50" fill="none" xmlns="http://www.w3.org/2000/svg">
<path d="M45 4H5C4.447 4 4 4.448 4 5V45C4 45.552 4.447 46 5 46H45C45.553 46 46 45.552 46 45V5C46 4.448 45.553 4 45 4ZM29 26.445H24V42H20V26.445H15V23H29V26.445ZM30.121 41.112V36.954C30.121 36.954 32.392 38.666 35.117 38.666C37.842 38.666 37.737 36.884 37.737 36.64C37.737 34.054 30.016 34.054 30.016 28.325C30.016 20.534 41.266 23.608 41.266 23.608L41.126 27.312C41.126 27.312 39.239 26.054 37.108 26.054C34.977 26.054 34.208 27.067 34.208 28.15C34.208 30.945 41.999 30.666 41.999 36.291C42 44.955 30.121 41.112 30.121 41.112Z" fill="black"/>
</svg>
