<svg width="50" height="50" viewBox="0 0 50 50" fill="none" xmlns="http://www.w3.org/2000/svg">
<path d="M25.0492 5.20857C23.4294 5.21378 22.3065 5.35649 20.9492 5.59086C16.9409 6.28878 16.2107 7.75441 16.2107 10.4554V14.5836H25.5857V16.6669H15.8544H11.3232C8.57736 16.6669 6.17423 17.9607 5.41277 21.0617C4.55236 24.6211 4.51382 26.8502 5.41277 30.5669C6.09507 33.3388 7.59819 35.4169 10.3451 35.4169H14.1284V30.1002C14.1284 27.0107 16.9263 23.9586 20.1326 23.9586H27.6701C30.2982 23.9586 32.8784 22.019 32.8784 19.3992V10.4554C32.8784 7.91482 31.0461 6.01482 28.4846 5.58878C28.5482 5.58253 26.6555 5.20232 25.0492 5.20857ZM19.8576 9.37524C20.7128 9.37524 21.4201 10.0804 21.4201 10.9398C21.4201 11.8075 20.7128 12.5002 19.8576 12.5002C18.9857 12.5002 18.2951 11.8086 18.2951 10.9398C18.2951 10.0836 18.9857 9.37524 19.8576 9.37524Z" fill="#0277BD"/>
<path d="M24.0391 44.7918C25.6589 44.7866 26.7818 44.6439 28.1391 44.4095C32.1475 43.7116 32.8777 42.246 32.8777 39.545V35.4168H23.5027V33.3335H33.235H37.7662C40.512 33.3335 42.9152 32.0397 43.6766 28.9387C44.537 25.3793 44.5756 23.1502 43.6766 19.4335C42.9933 16.6616 41.4902 14.5835 38.7433 14.5835H34.96V19.9002C34.96 22.9897 32.162 26.0418 28.9558 26.0418H21.4183C18.7902 26.0418 16.21 27.9814 16.21 30.6012V39.545C16.21 42.0856 18.0423 43.9856 20.6037 44.4116C20.5402 44.4179 22.4329 44.7981 24.0391 44.7918ZM29.2318 40.6252C28.3766 40.6252 27.6693 39.92 27.6693 39.0606C27.6693 38.1929 28.3766 37.5002 29.2318 37.5002C30.1037 37.5002 30.7943 38.1918 30.7943 39.0606C30.7943 39.9168 30.1027 40.6252 29.2318 40.6252Z" fill="#FFC107"/>
</svg>
