<svg width="50" height="50" viewBox="0 0 50 50" fill="none" xmlns="http://www.w3.org/2000/svg">
<path d="M15.6738 14.96C15.2816 14.96 14.8795 14.9832 14.4623 15.0332L14.7003 15.7809C15.0675 15.7418 15.4318 15.729 15.799 15.729H15.9271L15.6738 14.96ZM20.4956 15.7046L20.4468 16.5377C20.864 16.6783 21.2674 16.8314 21.6705 16.9955L21.7224 16.1471C21.6083 16.0846 21.2909 15.9327 20.4956 15.7046ZM10.1044 16.1837C9.78875 16.3478 9.45928 16.5238 9.11865 16.7269L9.69849 17.6119C10.0266 17.4088 10.3439 17.2206 10.672 17.0565L10.1044 16.1837ZM15.8356 16.2234C15.4814 16.226 15.1228 16.2452 14.7644 16.2814C11.0769 16.6095 6.54688 19.9684 3.90625 24.3746C1.25 28.7965 0.891113 32.5472 0.891113 32.5472H10.8582C10.8582 32.5472 8.95239 23.844 15.2649 20.3127C16.5774 19.6721 20.6577 17.3584 27.2827 21.7959L27.7802 21.3442C25.9052 19.7329 21.1481 16.1842 15.8356 16.2234ZM20.4712 19.6719L20.4224 20.4653C20.8395 20.4778 21.2533 20.5289 21.6705 20.6179L21.7224 19.8336C21.2943 19.7461 20.8759 19.6969 20.4712 19.6719ZM17.5171 19.974C17.0874 20.099 16.7219 20.2408 16.4062 20.3799L16.6962 21.2496C17.0618 21.0731 17.4292 20.9212 17.7948 20.8071L17.5171 19.974ZM5.00183 20.0259C4.67371 20.3415 4.35862 20.6563 4.06799 20.9719L5.03845 21.8051C5.30408 21.4644 5.59592 21.1228 5.89905 20.8071L5.00183 20.0259ZM14.0442 21.8936C13.7536 22.1607 13.4865 22.4483 13.2599 22.7389L13.8672 23.6483C14.0812 23.3327 14.3337 23.0417 14.6118 22.7511L14.0442 21.8936ZM15.86 23.6941V32.3855H17.9749V29.9838L18.2434 30.2615L20.227 32.3855H23.4375L20.6512 29.5748L20.9839 29.5443C21.0667 29.5365 23.053 29.3261 23.053 26.6573C23.053 23.9839 20.6182 23.7035 20.5292 23.6941H15.86ZM26.7334 23.7551C25.0928 23.7551 24.5392 25.2634 24.5392 25.9493V32.3855H26.6907V30.8077H29.3152V32.3855H31.3873V25.9493C31.3873 24.1603 29.7649 23.7551 29.1962 23.7551H26.7334ZM32.8247 23.7551V32.3824H35.0769V23.7551H32.8247ZM36.4349 23.7551V32.3855H42.1265V30.3866H38.678V23.7551H36.4349ZM45.3613 23.7551C44.4363 23.7551 43.1549 24.5297 43.1549 25.986V26.7825C43.1549 28.2793 44.4723 28.9767 45.3613 28.9767L46.4813 28.9797C46.6579 28.975 47.464 28.9767 47.464 28.9767V30.3988L43.28 30.411V32.3824H47.2565C48.0783 32.3824 49.4008 31.7866 49.4476 30.1913V29.3063C49.4476 27.9344 48.333 27.1151 47.2565 27.1151H45.0409V25.7418H49.1211V23.7551H45.3613ZM11.8103 25.4153C11.6447 25.884 11.5304 26.3522 11.4288 26.8069L12.4542 27.6156C12.5042 27.1234 12.5932 26.6292 12.7197 26.1355L11.8103 25.4153ZM27.6062 25.577H28.4485C29.1079 25.577 29.2967 25.9959 29.303 26.224V28.5677H26.6785V26.224C26.6785 26.2177 26.6906 25.577 27.6062 25.577ZM17.9779 25.6381L20.1324 25.6472C20.1574 25.6582 20.7764 25.9003 20.7764 26.8191C20.7764 27.7363 20.1497 27.9905 20.0653 28.0123H17.9779V25.6381ZM0.631714 25.9249C0.392651 26.4671 0.126563 27.098 0 27.4386L1.45264 27.9696C1.6167 27.5399 1.88123 26.9201 2.08435 26.4529L0.631714 25.9249ZM11.2396 30.0143C11.2646 30.683 11.3297 31.2261 11.3922 31.6042L12.9089 32.1475C12.7949 31.6553 12.6803 31.0994 12.6038 30.5056L11.2396 30.0143Z" fill="black"/>
</svg>
