<svg width="50" height="50" viewBox="0 0 50 50" fill="none" xmlns="http://www.w3.org/2000/svg">
<g clip-path="url(#clip0_5_201)">
<path d="M43.7497 14.5835L41.6663 41.6668L14.583 43.7502L43.7497 14.5835Z" fill="#9B1010"/>
<path d="M29.167 29.1668L41.667 41.6668L43.7503 14.5835L29.167 29.1668Z" fill="#B71C1C"/>
<path d="M16.4087 16.4086C14.2207 18.5967 12.2763 20.9856 10.6866 23.4389C9.09685 25.8922 7.89293 28.3619 7.14354 30.7068C6.39416 33.0518 6.11399 35.2263 6.31904 37.106C6.52408 38.9856 7.21032 40.5338 8.33857 41.662C9.46682 42.7902 11.015 43.4764 12.8947 43.6814C14.7744 43.8863 16.9488 43.6061 19.2938 42.8566C21.6387 42.1072 24.1083 40.9032 26.5616 39.3134C29.0148 37.7236 31.4037 35.7791 33.5917 33.591C35.7798 31.4029 37.7241 29.0139 39.3139 26.5606C40.9036 24.1073 42.1075 21.6377 42.8569 19.2927C43.6063 16.9477 43.8864 14.7733 43.6814 12.8936C43.4764 11.0139 42.7901 9.46575 41.6619 8.33753C40.5336 7.20932 38.9854 6.52314 37.1057 6.31816C35.2261 6.11319 33.0516 6.39343 30.7067 7.14289C28.3617 7.89236 25.8921 9.09637 23.4388 10.6862C20.9856 12.276 18.5968 14.2205 16.4087 16.4086Z" fill="#C62828"/>
<path d="M10.4167 17.7083L17.7083 10.4167L26.0417 6.25L32.2917 10.4167L29.1667 19.7917L19.7917 28.125L10.4167 31.25L6.25 25L10.4167 17.7083Z" fill="#E53935"/>
<path d="M32.2917 10.4167L26.0417 6.25H37.5L32.2917 10.4167ZM43.75 15.625L32.2917 10.4167L29.1667 19.7917L43.75 15.625ZM19.7917 28.125L33.5781 33.5781L29.1667 19.7917L19.7917 28.125ZM10.4167 31.25L14.5833 43.75L19.7917 28.125L10.4167 31.25ZM6.25 25V36.4583L10.4167 31.25L6.25 25Z" fill="#FF5252"/>
</g>
<defs>
<clipPath id="clip0_5_201">
<rect width="50" height="50" fill="white"/>
</clipPath>
</defs>
</svg>
