<svg width="50" height="50" viewBox="0 0 50 50" fill="none" xmlns="http://www.w3.org/2000/svg">
<path d="M7.29199 42.7083V7.29167C7.29199 4.99062 9.15762 3.125 11.4587 3.125H38.542C40.843 3.125 42.7087 4.98437 42.7087 7.28542C42.7087 15.6375 42.7087 34.3594 42.7087 42.7125C42.7087 45.0146 40.843 46.875 38.542 46.875H11.4587C9.15762 46.875 7.29199 45.0094 7.29199 42.7083Z" fill="#7E57C2"/>
<path d="M29.4704 40.8553V23.4803C29.4704 23.4803 30.6006 19.323 15.5495 25.1813C15.5225 25.2553 15.5225 9.11468 15.5225 9.11468L20.4402 9.08447V19.4261C20.4402 19.4261 34.2089 14.0032 34.2089 23.5386V40.8543L29.4704 40.8553ZM32.2725 15.3438H27.0568C28.9339 13.048 30.6339 9.11468 30.6339 9.11468H36.0277C36.0277 9.11468 35.1037 11.6782 32.2725 15.3438ZM15.611 40.8251V30.9313L20.5589 35.8793L15.611 40.8251Z" fill="white"/>
</svg>
