<svg width="50" height="50" viewBox="0 0 50 50" fill="none" xmlns="http://www.w3.org/2000/svg">
<path d="M24.9725 1.56382C24.9643 1.5641 24.9563 1.56633 24.9481 1.56687C24.9279 1.56819 24.9088 1.57463 24.8886 1.57755C24.8119 1.58858 24.7386 1.61093 24.6674 1.64469C24.6551 1.65049 24.6413 1.64888 24.6292 1.65537L4.31671 12.5929C4.25167 12.6281 4.19417 12.6723 4.14276 12.7226C4.13206 12.733 4.12539 12.7466 4.1153 12.7577C4.06425 12.8136 4.02304 12.876 3.99017 12.9438C3.97905 12.9667 3.96855 12.9885 3.95966 13.0125C3.92825 13.0972 3.9065 13.1849 3.90625 13.278V13.2795V13.281V36.7185C3.90625 36.7875 3.91638 36.8566 3.93372 36.9215C3.95714 37.0083 3.99871 37.0876 4.04968 37.161C4.0616 37.1783 4.07446 37.1935 4.08783 37.2099C4.14476 37.2794 4.20954 37.3427 4.28925 37.3899C4.29065 37.3908 4.29242 37.3906 4.29382 37.3915L4.29688 37.3945L24.6002 49.1087L24.6033 49.1102L24.6063 49.1117L24.6094 49.1133C24.6447 49.1336 24.6824 49.1447 24.7192 49.159C24.7452 49.1691 24.7703 49.1839 24.7971 49.1911H24.7986C24.8651 49.2089 24.9314 49.2185 24.9985 49.2185H25C25.0663 49.2185 25.1336 49.2096 25.1984 49.1926C25.2116 49.1891 25.2235 49.1815 25.2365 49.1773C25.2851 49.1618 25.3342 49.1447 25.3799 49.1194L46.4737 37.4006C46.477 37.3988 46.4781 37.3948 46.4813 37.393C46.4886 37.3888 46.4971 37.3882 46.5042 37.3838C46.576 37.3391 46.636 37.2806 46.6888 37.2175C46.7025 37.2012 46.7133 37.1845 46.7255 37.1672C46.772 37.1017 46.8092 37.0318 46.8338 36.9551C46.837 36.9451 46.8417 36.9362 46.8445 36.9261C46.863 36.8592 46.875 36.7898 46.875 36.7185V13.281C46.875 13.2756 46.8721 13.2712 46.8719 13.2658C46.8699 13.1796 46.8501 13.0973 46.8216 13.0186C46.8116 12.9909 46.801 12.9654 46.788 12.9392C46.7564 12.8751 46.7169 12.8171 46.669 12.7638C46.6572 12.7507 46.6496 12.7349 46.637 12.7226C46.583 12.6701 46.5228 12.624 46.4539 12.5883L25.3601 1.65079C25.3279 1.63405 25.2931 1.62611 25.2594 1.61417C25.2402 1.60734 25.2226 1.59966 25.2029 1.59434C25.1275 1.57397 25.0498 1.56119 24.9725 1.56382ZM25.7812 3.62833L44.3726 13.2673L36.731 17.0896L25.7812 11.2501V3.62833ZM24.2188 3.65275V11.2501L13.2858 17.0805L6.32782 13.2856L24.2188 3.65275ZM25 12.6051L35.0586 17.9685L25 23.332L14.9414 17.9685L25 12.6051ZM45.3125 14.546V35.4551L37.5 31.5489V18.4507L45.3125 14.546ZM5.46875 14.5979L12.5 18.4324V20.3123C12.5 20.7443 12.85 21.0935 13.2812 21.0935C13.7125 21.0935 14.0625 20.7443 14.0625 20.3123V19.2716L24.2188 24.687V36.9779L14.0625 31.5626V29.6873C14.0625 29.2553 13.7125 28.906 13.2812 28.906C12.85 28.906 12.5 29.2553 12.5 29.6873V31.5672L5.46875 35.4017V14.5979ZM35.9375 19.2716V32.031C35.9375 32.0701 35.9533 32.1034 35.9589 32.1409C35.9671 32.1971 35.9724 32.2527 35.9924 32.3057C36.0103 32.3528 36.0395 32.3916 36.0657 32.4339C36.092 32.4769 36.1149 32.5199 36.1496 32.5575C36.1874 32.5984 36.2336 32.6277 36.2793 32.6597C36.3109 32.6819 36.3338 32.7121 36.3693 32.7299L44.4199 36.7552L25.7812 47.1098V38.281V24.687L35.9375 19.2716ZM13.2812 22.656C12.85 22.656 12.5 23.0053 12.5 23.4373V26.5623C12.5 26.9943 12.85 27.3435 13.2812 27.3435C13.7125 27.3435 14.0625 26.9943 14.0625 26.5623V23.4373C14.0625 23.0053 13.7125 22.656 13.2812 22.656ZM33.6777 31.9517C33.5765 31.9608 33.4758 31.9907 33.3801 32.0417C32.9997 32.2448 32.8543 32.7172 33.0582 33.0976L33.7936 34.477C33.9343 34.7403 34.2044 34.8905 34.4833 34.8905C34.6068 34.8905 34.7331 34.8615 34.8511 34.799C35.2315 34.5959 35.3754 34.122 35.1715 33.7416L34.436 32.3622C34.2837 32.0774 33.9812 31.9243 33.6777 31.9517ZM13.2843 32.9191L24.2188 38.7495V47.0854L6.28204 36.7369L13.2843 32.9191ZM30.4214 33.6881C30.3203 33.6971 30.2194 33.7261 30.1239 33.7766C29.7434 33.9798 29.5988 34.4536 29.8019 34.8341L30.5374 36.2135C30.6788 36.4768 30.9497 36.627 31.2286 36.627C31.3521 36.627 31.4769 36.5972 31.5948 36.5354C31.9753 36.3323 32.1199 35.8585 31.9168 35.478L31.1813 34.0986C31.0284 33.8138 30.7249 33.6612 30.4214 33.6881ZM27.1667 35.4231C27.0655 35.4322 26.9649 35.4621 26.8692 35.5131C26.488 35.7162 26.3441 36.1901 26.5472 36.5705L27.2827 37.9484C27.4233 38.2117 27.6935 38.3619 27.9724 38.3619C28.0958 38.3619 28.2222 38.3329 28.3401 38.2704C28.7206 38.0672 28.8645 37.5934 28.6606 37.2129L27.9251 35.8335C27.7734 35.5488 27.4704 35.3957 27.1667 35.4231Z" fill="black"/>
</svg>
