<svg width="50" height="50" viewBox="0 0 50 50" fill="none" xmlns="http://www.w3.org/2000/svg">
<path d="M20.8337 24.4519V32.8123C20.8337 33.6748 20.1337 34.3748 19.2712 34.3748C18.4087 34.3748 17.7087 33.6748 17.7087 32.8123V19.2707C17.7087 18.5842 18.1576 17.978 18.8149 17.7759C19.468 17.578 20.1837 17.8269 20.567 18.3967L20.8264 18.7821L20.8337 18.7498L36.7024 42.2353C42.2128 38.4863 45.8337 32.1665 45.8337 24.9998C45.8337 13.4936 36.5066 4.1665 25.0003 4.1665C13.4941 4.1665 4.16699 13.4936 4.16699 24.9998C4.16699 36.5061 13.4941 45.8332 25.0003 45.8332C28.2107 45.8332 31.2399 45.0853 33.9555 43.7884L20.8337 24.4519ZM29.167 17.1873C29.167 16.3248 29.867 15.6248 30.7295 15.6248C31.592 15.6248 32.292 16.3248 32.292 17.1873V30.5103L29.167 26.0269V17.1873Z" fill="black"/>
</svg>
