<svg width="50" height="50" viewBox="0 0 50 50" fill="none" xmlns="http://www.w3.org/2000/svg">
<path d="M29.8674 3.0079C29.7619 3.02353 29.6565 3.05478 29.5549 3.10165C28.6955 3.52743 27.719 4.79306 27.5315 5.04306C27.5197 5.05869 27.508 5.07431 27.5002 5.08994C26.5354 6.53525 26.0197 8.22666 26.0002 9.98838C25.9885 11.3087 26.2463 12.6173 26.7697 13.879C27.9885 16.8048 30.5197 19.2267 33.5315 20.3595C33.633 20.3946 33.7307 20.4298 33.9065 20.4923C33.9221 20.5001 34.0705 20.547 34.094 20.5509L34.2033 20.5899C34.3596 20.6407 34.5197 20.6915 34.676 20.7227C35.469 20.8829 36.2424 20.9727 36.969 20.9962C37.094 20.9962 37.219 21.0001 37.344 21.0001C42.8244 21.0001 44.9494 17.1329 45.6565 15.8438C45.7268 15.7188 45.7776 15.6173 45.8244 15.5548C45.8244 15.5509 45.8244 15.5509 45.8283 15.547C46.1369 15.0899 46.0198 14.4689 45.5627 14.1564C45.1096 13.8478 44.4885 13.9649 44.176 14.422H44.1721C42.7112 16.5743 40.2112 17.2267 36.7463 16.3673C36.4885 16.3048 36.2073 16.2071 35.9573 16.1134C35.6291 15.9962 35.301 15.8595 34.9963 15.711C34.3908 15.4103 33.8205 15.0509 33.3049 14.6525C30.258 12.2892 29.0666 7.37121 30.8479 4.53137C31.0862 4.15246 31.0432 3.66028 30.7424 3.32825C30.5158 3.07825 30.1877 2.96493 29.8674 3.0079ZM21.008 5.00009C20.7815 4.99618 20.551 5.0704 20.3635 5.22665C18.8518 6.45712 17.3049 8.47274 17.2385 8.55478C17.2307 8.57041 17.2229 8.58212 17.2111 8.59775C14.4768 12.5782 14.2697 18.2423 16.6877 23.0274C17.0666 23.7852 17.4963 24.5079 17.9533 25.172L18.0901 25.3673C18.4768 25.9337 18.9104 26.5743 19.4651 27.0743C19.6565 27.2931 19.8635 27.504 20.0666 27.7071L20.1643 27.8087L20.2463 27.8907C20.4533 28.0899 20.6643 28.293 20.883 28.4884H20.8869C20.9026 28.5118 20.926 28.5274 20.9455 28.547C21.1916 28.7657 21.4416 28.9727 21.7737 29.2345L21.8635 29.3009C22.1213 29.5079 22.383 29.7032 22.6526 29.8946C22.6799 29.9141 22.7072 29.9337 22.7346 29.9532C22.8283 30.0157 22.9221 30.0743 23.0158 30.1407L23.1096 30.2032L23.219 30.2735C23.4182 30.4063 23.6135 30.5274 23.8908 30.6876C24.0705 30.797 24.2619 30.9063 24.3869 30.9688C24.4416 31.0001 24.5002 31.0313 24.6369 31.1055L24.9416 31.2657C24.9573 31.2735 25.0276 31.3048 25.0432 31.3126C25.2424 31.4141 25.4494 31.5118 25.6565 31.6056L25.9729 31.7462C26.1799 31.836 26.3908 31.922 26.6487 32.0196L26.7658 32.0626C26.7737 32.0704 26.8713 32.1056 26.8791 32.1095C27.0666 32.1759 27.258 32.2423 27.4494 32.3048L27.8869 32.4493C28.1057 32.5235 28.3596 32.6095 28.6369 32.6563C30.0002 32.8829 31.3244 33.0001 32.5783 33.0001C32.7268 33.0001 32.8752 32.9962 33.0198 32.9962C44.0588 32.754 46.9299 23.3751 46.9573 23.2813C47.094 22.8087 46.8713 22.3048 46.426 22.0938C45.9807 21.8829 45.4494 22.0313 45.1721 22.4376C42.3752 26.5235 37.0862 28.2501 31.6994 26.8282C31.4494 26.7657 31.2072 26.6954 30.9065 26.5978C30.8557 26.5821 30.8127 26.5665 30.7307 26.5353C30.5549 26.4806 30.383 26.422 30.1877 26.3478L29.9104 26.2423C29.7502 26.1798 29.5901 26.1173 29.3948 26.0313L29.2658 25.9728C29.0276 25.8712 28.7971 25.7579 28.5901 25.6563L28.0198 25.3595C27.8908 25.297 27.7776 25.2267 27.6018 25.1212L27.5041 25.0665L27.4065 25.0079C27.2619 24.922 27.1174 24.8321 26.9846 24.7384L26.8908 24.6798C26.883 24.6759 26.8049 24.6212 26.7971 24.6134C26.6799 24.5392 26.5666 24.4649 26.4573 24.3946C26.2151 24.2228 25.9768 24.0431 25.6994 23.8243L25.5901 23.7345C23.012 21.6759 21.1057 18.9259 20.2112 15.9767C19.3791 13.2696 19.9963 9.72668 21.8635 6.50012C22.1057 6.08215 22.0158 5.5509 21.6448 5.2384C21.4612 5.08215 21.2346 5.00009 21.008 5.00009ZM10.0041 8.00009C9.76584 8.00009 9.52365 8.08603 9.33225 8.2579C7.42209 9.97274 5.99241 12.1954 5.83616 12.4493C1.75022 18.3985 2.53929 27.6446 5.34397 33.297C5.39866 33.4142 5.45725 33.5274 5.51585 33.6407L5.55491 33.7032C5.60569 33.8165 5.66429 33.9337 5.68382 33.9571C5.71507 34.0313 5.76195 34.1134 5.78148 34.1368C5.82836 34.2345 5.87523 34.3204 5.96117 34.4688L6.28148 35.0196C6.32836 35.0938 6.37523 35.172 6.39086 35.1993C6.45336 35.3009 6.51977 35.4063 6.58617 35.5118L6.74242 35.7618C6.7893 35.836 6.83617 35.9024 6.86742 35.9415C7.02367 36.1837 7.17992 36.4259 7.3518 36.6563C7.35961 36.6681 7.36743 36.6759 7.37524 36.6837L7.43774 36.7696C7.57837 36.9728 7.7229 37.1681 7.8518 37.3282L8.42211 38.0509C8.42992 38.0587 8.49242 38.1329 8.49633 38.1407L8.57836 38.2345C8.75024 38.4454 8.93383 38.6563 9.11742 38.8595C9.14476 38.8907 9.17211 38.9181 9.19945 38.9493C9.37523 39.1407 9.55492 39.3321 9.74242 39.5313L9.92211 39.7032C10.0705 39.8595 10.219 40.0118 10.3752 40.1563C10.3752 40.1603 10.4495 40.2306 10.4495 40.2306L10.6057 40.3751C10.7932 40.5548 10.9885 40.7345 11.137 40.8595C11.1448 40.8712 11.2854 40.9923 11.2971 41.0001C11.4807 41.1642 11.6643 41.3204 11.8518 41.4728L12.8088 42.2306C12.969 42.3478 13.1331 42.465 13.3206 42.6017C13.3831 42.6485 13.4495 42.6954 13.5159 42.7384C13.5432 42.7618 13.5745 42.7853 13.594 42.797L14.3127 43.2774C14.5745 43.4493 14.8362 43.6095 15.1565 43.8009L15.3284 43.8985C15.5276 44.0157 15.7307 44.1329 15.9221 44.2345C16.0354 44.297 16.1487 44.3517 16.2463 44.4025C16.3831 44.4767 16.5315 44.5587 16.7581 44.6681C16.7776 44.6798 16.9378 44.7579 16.9573 44.7657C17.1838 44.879 17.4143 44.9845 17.7034 45.1134C17.7034 45.1173 17.7971 45.1603 17.7971 45.1603C18.0628 45.2736 18.3206 45.3829 18.6604 45.5197C18.7151 45.5431 18.7698 45.5626 18.7815 45.5665C19.0237 45.6603 19.2776 45.754 19.4846 45.8283C19.5042 45.8361 19.6096 45.879 19.6292 45.8869C19.9065 45.9806 20.1799 46.0704 20.5315 46.1798C20.5901 46.1994 20.6526 46.2189 20.6604 46.2189L20.8596 46.2814C21.1018 46.3556 21.344 46.4337 21.6057 46.4845C23.4651 46.8244 25.2815 47.0001 27.0002 47.0001H27.0042C41.3284 47.0001 45.8909 35.4728 45.9377 35.3556C46.1135 34.8908 45.9221 34.3673 45.4846 34.1251C45.0549 33.8869 44.5081 34.0001 44.2034 34.3947C40.5276 39.2345 33.594 41.0314 25.6565 39.2072C25.4651 39.1603 25.2698 39.1056 25.0784 39.047L24.7034 38.9337C24.4495 38.8556 24.1956 38.7697 23.9495 38.6837C23.9456 38.6837 23.8323 38.6408 23.8323 38.6408C23.6135 38.5665 23.3948 38.4806 23.2034 38.4064L22.9846 38.3205C22.7424 38.2228 22.5003 38.1212 22.2659 38.0158L22.1292 37.9572C21.9182 37.8595 21.7151 37.7658 21.512 37.6642C21.4963 37.6564 21.3362 37.5783 21.3206 37.5744C21.1799 37.5041 21.0393 37.4298 20.8596 37.3322L20.0432 36.8947C19.9612 36.84 19.8752 36.7892 19.7932 36.7462C19.5471 36.5939 19.2932 36.4415 19.0432 36.2814C18.9846 36.2462 18.9338 36.2072 18.8362 36.1408C18.6643 36.0314 18.4963 35.9181 18.2502 35.7462L18.1526 35.6759C17.9846 35.5587 17.8205 35.4337 17.6838 35.3322C17.5979 35.2697 17.512 35.1994 17.3713 35.0939C17.2463 34.9962 17.1213 34.9025 17.0041 34.8087L16.7854 34.6291C16.6018 34.4806 16.4299 34.3244 16.2502 34.172C16.2268 34.1486 16.2073 34.133 16.1799 34.1134C15.9807 33.9298 15.7776 33.7462 15.5354 33.5158L14.8284 32.8127C14.6565 32.6369 14.4846 32.4572 14.2893 32.2423C14.1096 32.0431 13.9377 31.8439 13.7073 31.5705L13.2854 31.0549C13.2346 30.9806 13.1799 30.9064 13.1135 30.8283C12.969 30.633 12.8245 30.4416 12.6799 30.2385C8.78932 24.8791 7.77369 13.6916 10.8049 9.59393C11.1096 9.18377 11.0549 8.60565 10.6721 8.25799C10.4846 8.08612 10.2424 8.00009 10.0041 8.00009Z" fill="black"/>
</svg>
