<svg width="50" height="50" viewBox="0 0 50 50" fill="none" xmlns="http://www.w3.org/2000/svg">
<path d="M46.0084 31.8849C46.0084 31.2319 44.2814 30.7019 42.1474 30.7019C40.2914 30.7019 38.7464 31.1029 38.3744 31.6359C34.7004 29.8989 31.0254 28.1609 27.3514 26.4229C26.0724 25.8179 24.6124 25.8239 23.3374 26.4369C19.4254 28.3209 15.5144 30.2049 11.6024 32.0889C10.7174 31.9599 9.64836 31.8829 8.49636 31.8829C5.44636 31.8839 3.00436 32.4089 3.00436 33.0629C3.00436 33.0629 2.99236 36.3639 3.00436 36.7629C2.99536 37.5719 3.09636 37.9499 3.68936 38.2299C9.46836 40.9629 15.2474 43.6959 21.0264 46.4289C22.4934 47.1759 24.1694 47.1719 25.6324 46.4129C32.2324 43.2339 38.8324 40.0549 45.4334 36.8759C45.9294 36.6369 46.0314 36.2189 45.9964 35.5399C45.9964 34.2849 46.0084 31.8849 46.0084 31.8849Z" fill="black"/>
<path d="M25.3594 27.9741C25.7514 27.9741 26.1334 28.0611 26.4954 28.2321L34.6544 32.0911L37.5194 33.4461L39.0484 34.1691L39.8554 33.0111C40.1814 32.8861 40.9814 32.7041 42.1484 32.7041C42.9534 32.7041 43.5844 32.7911 44.0054 32.8851C44.0024 33.6261 43.9984 34.6261 43.9984 35.3491L37.7424 38.3621L24.7664 44.6121L24.7394 44.6251L24.7134 44.6391C24.2684 44.8701 23.7984 44.9871 23.3174 44.9871C22.8424 44.9871 22.3774 44.8731 21.9354 44.6481L21.9094 44.6351L21.8834 44.6231L12.9904 40.4171L5.00338 36.6401C4.99738 36.3331 4.99738 35.3101 5.00038 34.1901C5.69738 34.0401 6.88538 33.8841 8.49538 33.8841C9.50838 33.8841 10.4834 33.9481 11.3134 34.0691L11.9184 34.1571L12.4694 33.8911L22.0214 29.2901L24.2034 28.2391C24.5704 28.0631 24.9604 27.9741 25.3594 27.9741ZM25.3594 25.9741C24.6694 25.9741 23.9794 26.1291 23.3364 26.4381C19.4244 28.3221 15.5134 30.2061 11.6014 32.0901C10.7164 31.9611 9.64738 31.8841 8.49538 31.8841C5.44538 31.8851 3.00338 32.4101 3.00338 33.0641C3.00338 33.0641 2.99138 36.3651 3.00338 36.7641C2.99438 37.5731 3.09538 37.9511 3.68838 38.2311C9.46738 40.9641 15.2464 43.6971 21.0254 46.4301C21.7544 46.8011 22.5344 46.9871 23.3144 46.9871C24.1054 46.9871 24.8954 46.7961 25.6314 46.4141C32.2314 43.2351 38.8314 40.0561 45.4324 36.8771C45.9284 36.6381 46.0304 36.2201 45.9954 35.5411C45.9954 34.2871 46.0074 31.8871 46.0074 31.8871C46.0074 31.2341 44.2804 30.7041 42.1464 30.7041C40.2904 30.7041 38.7454 31.1051 38.3734 31.6381C34.6994 29.9011 31.0244 28.1631 27.3504 26.4251C26.7164 26.1231 26.0384 25.9741 25.3594 25.9741Z" fill="black"/>
<path d="M21.0381 41.976C15.2671 39.396 9.49713 36.816 3.72513 34.235C2.76213 33.804 2.75713 32.439 3.71713 32.002C10.2621 29.022 16.8051 26.042 23.3501 23.061C24.6311 22.478 26.1001 22.473 27.3851 23.047C33.4021 25.738 39.4201 28.428 45.4371 31.119C46.2271 31.472 46.2311 32.593 45.4431 32.951C38.8491 35.954 32.2561 38.957 25.6611 41.959C24.1941 42.628 22.5101 42.634 21.0381 41.976Z" fill="white"/>
<path d="M25.3831 24.6211C25.7941 24.6211 26.1931 24.7061 26.5681 24.8741L35.5171 28.8751L42.6081 32.0451L24.8331 40.1401C24.3591 40.3561 23.8541 40.4651 23.3321 40.4651C22.8191 40.4651 22.3221 40.3591 21.8531 40.1501L13.9681 36.6251L6.10811 33.1111L14.1331 29.4571L24.1781 24.8831C24.5601 24.7081 24.9651 24.6211 25.3831 24.6211ZM25.3831 22.6211C24.6901 22.6211 23.9961 22.7681 23.3511 23.0621C16.8061 26.0421 10.2621 29.0221 3.71811 32.0031C2.75811 32.4401 2.76311 33.8051 3.72611 34.2361C9.49711 36.8161 15.2671 39.3961 21.0391 41.9771C21.7691 42.3031 22.5521 42.4671 23.3341 42.4671C24.1291 42.4671 24.9241 42.2991 25.6631 41.9621C32.2581 38.9601 38.8511 35.9571 45.4451 32.9541C46.2331 32.5951 46.2291 31.4751 45.4391 31.1221C39.4221 28.4311 33.4041 25.7411 27.3871 23.0501C26.7481 22.7631 26.0651 22.6201 25.3831 22.6211Z" fill="black"/>
<path d="M45.996 23.0228C45.996 22.3698 44.304 21.7708 42.171 21.7708C40.316 21.7708 38.771 22.1718 38.4 22.7048C34.728 20.9678 31.055 19.2298 27.383 17.4918C26.105 16.8868 24.646 16.8928 23.371 17.5058C19.462 19.3898 15.552 21.2738 11.643 23.1578C10.758 23.0288 9.68995 22.9518 8.53795 22.9518C5.48995 22.9528 3.01095 23.5498 3.01095 24.2028C3.01095 24.2028 3.01095 27.4368 3.00195 27.7538C3.01095 28.4658 3.14095 29.0198 3.73395 29.2998C9.50995 32.0328 15.285 34.7658 21.061 37.4988C22.527 38.1928 24.203 38.1868 25.665 37.4828C32.261 34.3038 38.858 31.1248 45.455 27.9458C45.951 27.7068 46.014 27.2318 45.995 26.6678C45.963 25.6848 45.996 23.0228 45.996 23.0228Z" fill="black"/>
<path d="M25.393 19.043C25.785 19.043 26.166 19.13 26.527 19.3L34.778 23.205L37.545 24.514L39.074 25.237L39.881 24.078C40.207 23.953 41.006 23.771 42.171 23.771C42.952 23.771 43.575 23.869 43.987 23.972C43.981 24.728 43.977 25.755 43.99 26.432L37.709 29.459L24.798 35.681C24.337 35.903 23.849 36.016 23.347 36.016C22.853 36.016 22.373 35.907 21.918 35.692L13.304 31.616L5.00495 27.689C5.00995 27.287 5.01095 26.176 5.01195 25.298C5.70995 25.131 6.91595 24.954 8.53895 24.954C9.55195 24.954 10.525 25.018 11.354 25.139L11.96 25.228L12.512 24.962L17.238 22.685L24.24 19.311C24.606 19.133 24.994 19.043 25.393 19.043ZM25.393 17.043C24.703 17.043 24.014 17.198 23.371 17.507C19.462 19.391 15.552 21.275 11.643 23.159C10.758 23.03 9.68995 22.953 8.53795 22.953C5.48995 22.954 3.01095 23.551 3.01095 24.204C3.01095 24.204 3.01095 27.438 3.00195 27.755C3.01095 28.467 3.14095 29.021 3.73395 29.301C9.50995 32.034 15.285 34.767 21.061 37.5C21.788 37.844 22.567 38.016 23.345 38.016C24.136 38.016 24.927 37.838 25.664 37.483C32.26 34.304 38.857 31.125 45.454 27.946C45.95 27.707 46.013 27.232 45.994 26.668C45.961 25.685 45.994 23.023 45.994 23.023C45.994 22.37 44.302 21.771 42.169 21.771C40.314 21.771 38.769 22.172 38.398 22.705C34.726 20.968 31.053 19.23 27.381 17.492C26.75 17.193 26.071 17.043 25.393 17.043Z" fill="black"/>
<path d="M21.0688 33.0509C15.2798 30.4589 9.4918 27.8659 3.7028 25.2739C2.7668 24.8549 2.7618 23.5279 3.6958 23.1019C10.2568 20.1089 16.8168 17.1169 23.3788 14.1239C24.6488 13.5449 26.1058 13.5399 27.3798 14.1099C33.4148 16.8129 39.4498 19.5149 45.4848 22.2179C46.2478 22.5599 46.2518 23.6419 45.4908 23.9889C38.8808 27.0039 32.2708 30.0199 25.6598 33.0339C24.2008 33.6999 22.5288 33.7049 21.0688 33.0509Z" fill="white"/>
<path d="M25.3929 15.687C25.7979 15.687 26.1909 15.771 26.5609 15.937L35.7189 20.038L42.5899 23.115L24.8279 31.216C24.3599 31.43 23.8609 31.538 23.3459 31.538C22.8389 31.538 22.3479 31.433 21.8859 31.226L13.4969 27.469L6.15193 24.18L13.9579 20.62L24.2079 15.945C24.5819 15.773 24.9809 15.687 25.3929 15.687ZM25.3929 13.687C24.7049 13.687 24.0179 13.833 23.3779 14.125C16.8169 17.118 10.2569 20.11 3.69493 23.103C2.76193 23.529 2.76693 24.856 3.70293 25.275C9.49193 27.867 15.2799 30.46 21.0689 33.052C21.7939 33.376 22.5699 33.539 23.3459 33.539C24.1349 33.539 24.9239 33.372 25.6579 33.037C32.2689 30.023 38.8789 27.007 45.4889 23.992C46.2499 23.645 46.2459 22.563 45.4829 22.221C39.4479 19.518 33.4129 16.816 27.3779 14.113C26.7469 13.828 26.0699 13.687 25.3929 13.687Z" fill="black"/>
<path d="M46.0083 14.0702C46.0083 13.4172 44.2893 12.7732 42.1563 12.7732C40.3013 12.7732 38.7563 13.1742 38.3853 13.7072C34.7133 11.9702 31.0403 10.2322 27.3683 8.49421C26.0903 7.88921 24.6313 7.89521 23.3563 8.50821C19.4473 10.3922 15.5373 12.2762 11.6283 14.1602C10.7433 14.0312 9.67528 13.9542 8.52328 13.9542C5.47528 13.9552 3.00929 14.4842 3.00929 15.1382C3.00929 15.1382 2.98229 18.7652 2.99429 18.7982C2.96829 19.4042 3.12629 20.0212 3.71929 20.3012C9.49529 23.0342 15.2703 25.7672 21.0463 28.5002C22.5123 29.1942 24.1883 29.1882 25.6503 28.4842C32.2463 25.3052 38.8433 22.1262 45.4403 18.9472C45.9363 18.7082 46.0163 18.2192 45.9983 17.6832C45.9903 17.0062 46.0083 14.0702 46.0083 14.0702Z" fill="black"/>
<path d="M25.3783 10.0449C25.7703 10.0449 26.1513 10.1319 26.5123 10.3019L34.7193 14.1859L37.5293 15.5159L39.0583 16.2389L39.8653 15.0799C40.1913 14.9549 40.9903 14.7729 42.1553 14.7729C42.9523 14.7729 43.5893 14.8819 44.0023 14.9959C43.9983 15.7619 43.9943 16.8119 43.9973 17.4219L37.1473 20.7229L24.7823 26.6819C24.3213 26.9039 23.8333 27.0169 23.3313 27.0169C22.8373 27.0169 22.3573 26.9079 21.9023 26.6929L13.2383 22.5939L5.00029 18.6959L5.01029 18.4799L4.99129 18.4289C4.99129 17.9959 4.99529 17.1659 5.00129 16.2669C5.70129 16.1149 6.89928 15.9559 8.52328 15.9559C9.53628 15.9559 10.5093 16.0199 11.3393 16.1409L11.9453 16.2299L12.4973 15.9639L21.0623 11.8359L24.2243 10.3119C24.5903 10.1349 24.9793 10.0449 25.3783 10.0449ZM25.3783 8.04492C24.6883 8.04492 23.9993 8.19992 23.3563 8.50892C19.4473 10.3929 15.5373 12.2769 11.6283 14.1609C10.7433 14.0319 9.67528 13.9549 8.52328 13.9549C5.47528 13.9559 3.00929 14.4849 3.00929 15.1389C3.00929 15.1389 2.98229 18.7659 2.99429 18.7989C2.96829 19.4049 3.12629 20.0219 3.71929 20.3019C9.49529 23.0349 15.2703 25.7679 21.0463 28.5009C21.7733 28.8449 22.5523 29.0169 23.3303 29.0169C24.1213 29.0169 24.9123 28.8389 25.6493 28.4839C32.2453 25.3049 38.8423 22.1259 45.4393 18.9469C45.9353 18.7079 46.0153 18.2189 45.9973 17.6829C45.9883 17.0059 46.0063 14.0709 46.0063 14.0709C46.0063 13.4179 44.2873 12.7739 42.1543 12.7739C40.2993 12.7739 38.7543 13.1749 38.3833 13.7079C34.7113 11.9709 31.0383 10.2329 27.3663 8.49492C26.7343 8.19492 26.0563 8.04492 25.3783 8.04492Z" fill="black"/>
<path d="M21.0731 24.0491C15.2941 21.4651 9.51706 18.8821 3.73806 16.2981C2.78206 15.8711 2.77806 14.5161 3.73006 14.0821C10.2821 11.0981 16.8331 8.11507 23.3861 5.13107C24.6641 4.54907 26.1311 4.54407 27.4131 5.11707C33.4381 7.81107 39.4631 10.5041 45.4881 13.1991C46.2711 13.5491 46.2751 14.6591 45.4941 15.0151C38.8931 18.0221 32.2921 21.0281 25.6891 24.0331C24.2241 24.7001 22.5421 24.7061 21.0731 24.0491Z" fill="white"/>
<path d="M25.4155 6.69092C25.8255 6.69092 26.2225 6.77592 26.5975 6.94292L35.5105 10.9279L42.6415 14.1159L24.8605 22.2129C24.3875 22.4279 23.8835 22.5379 23.3635 22.5379C22.8515 22.5379 22.3555 22.4319 21.8885 22.2229L13.2205 18.3479L6.13946 15.1819L15.1345 11.0859L24.2135 6.95192C24.5945 6.77892 24.9975 6.69092 25.4155 6.69092ZM25.4145 4.69092C24.7225 4.69092 24.0305 4.83792 23.3855 5.13092C16.8335 8.11492 10.2825 11.0979 3.72946 14.0819C2.77646 14.5159 2.78146 15.8709 3.73746 16.2979C9.51646 18.8819 15.2935 21.4649 21.0725 24.0489C21.8015 24.3749 22.5825 24.5379 23.3635 24.5379C24.1575 24.5379 24.9505 24.3699 25.6895 24.0339C32.2915 21.0289 38.8925 18.0219 45.4945 15.0159C46.2745 14.6609 46.2715 13.5499 45.4885 13.1999C39.4635 10.5059 33.4385 7.81292 27.4135 5.11792C26.7775 4.83292 26.0965 4.69092 25.4145 4.69092Z" fill="black"/>
<path d="M18.9735 14.4769C18.9715 15.2219 16.8455 15.9479 15.0505 15.9689C13.1875 15.9899 10.9885 15.2589 10.9815 14.5019C10.9745 13.7429 13.1705 12.9569 15.0725 12.9749C16.8695 12.9919 18.9755 13.7339 18.9735 14.4769Z" fill="black"/>
<path d="M17.7959 17.8462C19.7429 18.6772 21.6889 19.5102 23.6359 20.3412C24.4929 19.0722 25.3509 17.8032 26.2079 16.5342C23.4039 16.9722 20.5999 17.4102 17.7959 17.8462Z" fill="black"/>
<path d="M22.7612 10.5379C21.8652 10.8639 20.9692 11.1899 20.0732 11.5159C21.2992 11.6229 22.5262 11.7309 23.7522 11.8369C24.1432 12.4849 24.5322 13.1319 24.9232 13.7789C25.1632 13.1919 25.4032 12.6039 25.6432 12.0169C26.6892 11.9359 27.7352 11.8539 28.7822 11.7729C27.9712 11.4319 27.1602 11.0899 26.3492 10.7489C26.5562 10.2539 26.7622 9.75987 26.9692 9.26387C26.1802 9.49987 25.3922 9.73587 24.6022 9.97187C23.7322 9.62887 22.8612 9.28587 21.9912 8.94287C22.2472 9.47487 22.5042 10.0069 22.7612 10.5379Z" fill="black"/>
<path d="M28.8818 14.2888C30.7998 13.5238 32.1218 12.7928 34.0398 12.0278C35.6968 12.7318 37.3538 13.4368 39.0118 14.1408C37.1518 14.8808 35.8908 15.5858 34.0308 16.3258C32.3148 15.6458 30.5978 14.9678 28.8818 14.2888Z" fill="black"/>
</svg>
