<svg width="50" height="50" viewBox="0 0 50 50" fill="none" xmlns="http://www.w3.org/2000/svg">
<path d="M28.027 6.20124C28.0087 6.21955 27.9965 6.23176 27.9782 6.25007C27.9477 6.25007 27.9111 6.25007 27.8806 6.25007C27.8622 6.25007 27.85 6.25007 27.8317 6.25007C27.7829 6.26228 27.7341 6.28059 27.6852 6.2989C27.6364 6.31111 27.5876 6.32942 27.5388 6.34773C27.4899 6.35993 27.4411 6.37824 27.3923 6.39655C27.3434 6.40876 27.2946 6.42707 27.2458 6.44538L27.1481 6.49421C27.1298 6.51252 27.1176 6.52473 27.0993 6.54304L19.1403 9.47273L18.8474 9.57038L18.652 9.76569L11.4743 16.0157L11.279 16.1622L11.1813 16.4063L6.73798 23.8282C6.56708 23.993 6.4328 24.1944 6.34735 24.4141L6.24969 24.5606V24.7071C6.24359 24.7742 6.24359 24.8353 6.24969 24.9024V25.0001C6.24359 25.0672 6.24359 25.1282 6.24969 25.1954V35.2051C6.35345 38.9588 7.93426 41.3697 9.86298 42.5294C11.6696 43.6158 13.5495 43.7196 14.6481 43.7501C14.7214 43.7501 14.8251 43.7501 14.8923 43.7501C14.9594 43.7562 15.0204 43.7562 15.0876 43.7501C15.1547 43.7562 15.2158 43.7562 15.2829 43.7501C15.3989 43.7623 15.5087 43.7623 15.6247 43.7501H16.4059C16.8637 43.9942 17.413 43.9942 17.8708 43.7501H42.0407C42.1567 43.7623 42.2665 43.7623 42.3825 43.7501H43.7497V42.4317C43.7558 42.3524 43.7558 42.2669 43.7497 42.1876V42.1387C43.7619 42.0228 43.7619 41.9129 43.7497 41.7969V20.4102C43.7619 20.3126 43.7619 20.2149 43.7497 20.1173V14.6485C43.7497 14.5997 43.7497 14.5509 43.7497 14.502C43.7497 14.4837 43.7497 14.4715 43.7497 14.4532C43.7558 13.5926 43.6765 12.7198 43.4567 11.8653C42.7914 9.26521 40.6186 6.87263 36.9626 6.25007H28.6618C28.4543 6.18904 28.2407 6.17683 28.027 6.20124ZM32.4216 9.37507H36.4255C39.1476 9.83894 40.0082 10.9925 40.4294 12.6466C40.5576 13.1531 40.6308 13.7208 40.6247 14.3067C40.6186 14.3861 40.6186 14.4715 40.6247 14.5509C40.6064 15.0635 40.5148 15.5762 40.4294 16.1134L32.4216 9.37507ZM27.7829 9.61921L29.736 11.2305L27.2946 18.8966L19.5309 26.6602L11.2302 28.0274L9.57001 25.0489L13.6716 18.2618L20.4587 12.3048L27.7829 9.61921ZM32.3239 13.4278L38.7692 18.7501H30.6638L32.3239 13.4278ZM30.3708 21.8751H38.5251C37.1701 24.6278 35.3329 27.1302 33.2516 29.5411L30.3708 21.8751ZM27.5388 23.1446L30.1755 30.1759L23.1442 27.5391L27.5388 23.1446ZM40.6247 24.5118V38.379L34.7653 32.5196C36.9687 30.066 39.0073 27.4415 40.6247 24.5118ZM18.3102 30.0782L16.6013 37.8419L12.8415 30.9571L18.3102 30.0782ZM21.4352 30.2247L29.5895 33.252C26.4828 36.0169 23.1747 38.3607 19.3356 39.6485L21.4352 30.2247ZM9.37469 31.1036L14.5505 40.5762C13.5861 40.5274 12.402 40.4053 11.4743 39.8438C10.4123 39.203 9.47235 38.1104 9.37469 35.1563V31.1036ZM32.5681 34.8145L38.3786 40.6251H24.8532C27.6974 39.0198 30.2243 36.9752 32.5681 34.8145Z" fill="black"/>
</svg>
