<svg width="50" height="50" viewBox="0 0 50 50" fill="none" xmlns="http://www.w3.org/2000/svg">
<path d="M25.0003 4.1665L7.29199 14.5832V35.4165L25.0003 45.8332L42.7087 35.4165V14.5832L25.0003 4.1665Z" fill="#ECEFF1"/>
<path d="M24.4792 25.5208V34.8958L15.625 30.2083V20.3125L24.4792 25.5208Z" fill="#0277BD"/>
<path d="M25.5205 25.5208V34.8958L34.3747 30.2083V20.3125L25.5205 25.5208Z" fill="#0277BD"/>
<path d="M24.9997 24.4793L16.1455 19.271L24.9997 14.5835L33.8538 19.271L24.9997 24.4793Z" fill="#0277BD"/>
<path d="M24.4788 7.2915V13.5415L15.1038 18.7498L9.89551 15.6248L24.4788 7.2915Z" fill="#81D4FA"/>
<path d="M24.4788 42.7083V36.4583L15.1038 31.25L9.89551 34.375L24.4788 42.7083Z" fill="#81D4FA"/>
<path d="M14.5833 19.7915L9.375 16.6665V33.3332L14.5833 30.2082V19.7915Z" fill="#81D4FA"/>
<path d="M25.5205 7.2915V13.5415L34.8955 18.7498L40.1038 15.6248L25.5205 7.2915Z" fill="#81D4FA"/>
<path d="M25.5205 42.7083V36.4583L34.8955 31.25L40.1038 34.375L25.5205 42.7083Z" fill="#81D4FA"/>
<path d="M35.417 19.7915L40.6253 16.6665V33.3332L35.417 30.2082V19.7915Z" fill="#81D4FA"/>
</svg>
