<svg width="50" height="50" viewBox="0 0 50 50" fill="none" xmlns="http://www.w3.org/2000/svg">
<path d="M42.7087 5.2085H7.29199L10.417 40.6252L25.0003 44.7918L39.5837 40.6252L42.7087 5.2085Z" fill="#E65100"/>
<path d="M25 8.3335V41.5627L36.6667 38.2293L39.2708 8.3335H25Z" fill="#FF6D00"/>
<path d="M25 26.0415V21.8748H33.9583L33.2292 33.854L25 36.5623V32.1873L29.2708 30.729L29.5833 26.0415H25ZM34.2708 17.7082L34.5833 13.5415H25V17.7082H34.2708Z" fill="white"/>
<path d="M24.9997 32.1873V36.5623L16.7705 33.854L16.3538 28.1248H20.5205L20.7288 30.729L24.9997 32.1873ZM19.8955 17.7082H24.9997V13.5415H15.5205L16.2497 26.0415H24.9997V21.8748H20.208L19.8955 17.7082Z" fill="#EEEEEE"/>
</svg>
