<svg width="50" height="50" viewBox="0 0 50 50" fill="none" xmlns="http://www.w3.org/2000/svg">
<path d="M46.875 30.5374C46.875 29.8738 45.1187 29.3363 42.949 29.3363C41.0615 29.3363 39.4906 29.7436 39.1125 30.2853C35.3771 28.5207 31.6406 26.7561 27.9052 24.9905C26.6052 24.3759 25.1208 24.3822 23.824 25.0051C19.8469 26.9186 15.8698 28.8322 11.8927 30.7457C10.9927 30.6145 9.90625 30.5363 8.73438 30.5363C5.63333 30.5374 3.125 31.0749 3.125 31.7384V35.3426C3.125 35.377 3.15938 35.4092 3.17188 35.4426C3.01979 36.0207 3.24479 36.6978 3.84792 36.9822C9.72396 39.7582 15.599 42.5332 21.475 45.3092C22.9667 46.0145 24.6708 46.0082 26.1583 45.2926C32.8687 42.0634 39.5792 38.8353 46.2906 35.6061C46.7948 35.3634 46.9688 34.7874 46.8208 34.3072C46.8448 34.252 46.875 34.1978 46.875 34.1405V30.5374Z" fill="#B71C1C"/>
<path d="M21.4749 40.7894C15.5988 38.1623 9.72383 35.5353 3.84779 32.9082C2.88738 32.479 2.88321 31.1092 3.8405 30.6728C10.502 27.6394 17.1624 24.6061 23.8238 21.5728C25.1197 20.9821 26.6051 20.9769 27.9051 21.5582C34.0311 24.2978 40.1582 27.0363 46.2842 29.7759C47.0697 30.1269 47.0738 31.2488 46.2905 31.605C39.5801 34.6613 32.8697 37.7175 26.1582 40.7728C24.6707 41.4498 22.9665 41.4561 21.4749 40.7894Z" fill="#E53935"/>
<path d="M46.875 22.5779C46.875 21.9144 45.1187 21.3769 42.949 21.3769C41.0615 21.3769 39.4906 21.7841 39.1125 22.3258C35.3771 20.5612 31.6406 18.7966 27.9052 17.031C26.6052 16.4164 25.1208 16.4227 23.824 17.0456C19.8469 18.9591 15.8698 20.8727 11.8927 22.7862C10.9927 22.655 9.90625 22.5769 8.73438 22.5769C5.63333 22.5779 3.125 23.1164 3.125 23.78V27.3841C3.125 27.4185 3.15938 27.4508 3.17188 27.4841C3.01979 28.0623 3.24479 28.7394 3.84792 29.0237C9.72396 31.7998 15.599 34.5748 21.475 37.3508C22.9667 38.056 24.6708 38.0498 26.1583 37.3341C32.8687 34.105 39.5792 30.8769 46.2906 27.6477C46.7948 27.405 46.9688 26.8289 46.8208 26.3487C46.8448 26.2935 46.875 26.2394 46.875 26.1821V22.5779Z" fill="#B71C1C"/>
<path d="M21.4749 32.8304C15.5988 30.2034 9.72383 27.5763 3.84779 24.9492C2.88738 24.52 2.88321 23.1502 3.8405 22.7138C10.502 19.6804 17.1624 16.6471 23.8238 13.6138C25.1197 13.0231 26.6051 13.0179 27.9051 13.5992C34.0311 16.3388 40.1582 19.0773 46.2842 21.8169C47.0697 22.1679 47.0738 23.2898 46.2905 23.6461C39.5801 26.7023 32.8697 29.7586 26.1582 32.8138C24.6707 33.4919 22.9665 33.4981 21.4749 32.8304Z" fill="#E53935"/>
<path d="M46.875 14.6199C46.875 13.9563 45.1187 13.4188 42.949 13.4188C41.0615 13.4188 39.4906 13.8261 39.1125 14.3678C35.3771 12.6032 31.6406 10.8386 27.9052 9.07301C26.6052 8.45843 25.1208 8.46468 23.824 9.0876C19.8469 11.0011 15.8698 12.9147 11.8927 14.8282C10.9927 14.697 9.90625 14.6188 8.73438 14.6188C5.63333 14.6199 3.125 15.1574 3.125 15.8209V19.4251C3.125 19.4595 3.15938 19.4918 3.17188 19.5251C3.01979 20.1032 3.24479 20.7803 3.84792 21.0647C9.72396 23.8407 15.599 26.6157 21.475 29.3918C22.9667 30.097 24.6708 30.0907 26.1583 29.3751C32.8687 26.1459 39.5792 22.9178 46.2906 19.6886C46.7948 19.4459 46.9688 18.8699 46.8208 18.3897C46.8448 18.3345 46.875 18.2803 46.875 18.223V14.6199Z" fill="#B71C1C"/>
<path d="M21.4749 24.8719C15.5988 22.2449 9.72383 19.6178 3.84779 16.9907C2.88738 16.5615 2.88321 15.1917 3.8405 14.7553C10.502 11.7219 17.1624 8.68861 23.8238 5.65527C25.1197 5.06465 26.6051 5.05944 27.9051 5.64069C34.0311 8.38027 40.1582 11.1188 46.2842 13.8584C47.0697 14.2094 47.0738 15.3313 46.2905 15.6876C39.5801 18.7438 32.8697 21.8001 26.1582 24.8553C24.6707 25.5334 22.9665 25.5386 21.4749 24.8719Z" fill="#E53935"/>
<path d="M19.529 15.3555C19.5269 16.4409 16.6519 17.4982 14.2238 17.5284C11.704 17.5596 8.73108 16.494 8.7217 15.3919C8.71233 14.2867 11.6821 13.1409 14.254 13.168C16.6842 13.193 19.5321 14.2742 19.529 15.3555Z" fill="white"/>
<path d="M17.748 19.2408C20.2408 20.3053 22.7324 21.371 25.2251 22.4355C26.323 20.8105 27.421 19.1855 28.5189 17.5605C24.9283 18.121 21.3387 18.6814 17.748 19.2408Z" fill="white"/>
<path d="M22.7708 10.1824C21.6239 10.6001 20.476 11.0167 19.3291 11.4344C20.8989 11.5719 22.4697 11.7094 24.0395 11.8459C24.5395 12.6751 25.0385 13.5042 25.5385 14.3324C25.8458 13.5803 26.1531 12.8282 26.4604 12.0761C27.7999 11.9719 29.1395 11.8678 30.4791 11.7636C29.4406 11.3271 28.402 10.8896 27.3635 10.4521C27.6281 9.81882 27.8926 9.18548 28.1572 8.55111C27.1468 8.85319 26.1374 9.15527 25.127 9.45736C24.0124 9.01777 22.8979 8.57923 21.7833 8.13965C22.1124 8.8209 22.4416 9.50215 22.7708 10.1824Z" fill="white"/>
<path d="M28.4033 15.2283C30.7689 14.2845 33.1356 13.3397 35.5012 12.396C37.545 13.2647 39.5887 14.1335 41.6325 15.0022C39.3387 15.9147 37.046 16.8272 34.7523 17.7408C32.6367 16.9022 30.52 16.0658 28.4033 15.2283Z" fill="#B71C1C"/>
<path d="M35.502 12.4614C35.4967 14.1239 35.4915 15.7854 35.4863 17.4479C37.5353 16.6323 39.5842 15.8177 41.6332 15.0021C39.5894 14.1552 37.5457 13.3083 35.502 12.4614Z" fill="#A01C1C"/>
</svg>
