<svg width="50" height="50" viewBox="0 0 50 50" fill="none" xmlns="http://www.w3.org/2000/svg">
<path d="M45.9203 31.0312C45.7296 30.1676 44.9463 29.1603 43.3661 29.1603C43.0432 29.1603 42.6901 29.2009 42.288 29.2843C41.5505 29.4364 40.9223 29.5103 40.3692 29.5353C44.6744 22.202 47.4692 12.0155 44.7015 8.47907C41.0546 3.81969 36.1453 3.12386 33.5442 3.12386L33.2994 3.1249C32.3317 3.14053 31.3276 3.25928 30.3171 3.47803L26.5849 4.28428C26.0765 4.22074 25.5588 4.17594 25.0192 4.16657H24.988H24.9713L24.813 4.16553C23.1536 4.16553 21.6401 4.51761 20.2911 5.17907L18.988 4.66553C17.1963 3.95928 14.5005 3.11865 11.8338 3.11865C11.6838 3.11865 11.5348 3.12178 11.3848 3.12699C8.75777 3.22178 6.50152 4.21865 4.85881 6.00928C2.80881 8.24469 1.87548 11.5145 2.08693 15.7291C2.09735 15.9468 4.64735 37.4999 11.8755 37.4999H11.9015L11.9682 37.4989C12.9067 37.4759 13.8015 37.0989 14.638 36.377C15.2765 36.8562 16.1026 37.1395 16.8724 37.252C17.3807 37.3718 18.2953 37.5416 19.3911 37.5416C20.7286 37.5416 21.9349 37.2676 22.9744 36.7728C22.9734 37.6895 22.9682 38.8499 22.9578 40.3332L22.9567 40.4114L22.9619 40.4895C23.063 41.9676 23.3182 43.2999 23.7026 44.3447C24.7973 47.3228 26.688 48.9634 29.0265 48.9634C29.1234 48.9634 29.2224 48.9603 29.3224 48.9541C31.2453 48.8353 33.1942 47.7551 34.5348 46.0666C35.9859 44.2384 36.3213 42.3093 36.4505 40.8312L36.4588 40.7405V40.6489V36.3999L36.5661 36.4103L37.0203 36.4499L37.064 36.4541L37.1078 36.4562C37.2369 36.4624 37.3703 36.4645 37.5046 36.4645C39.0744 36.4645 41.0067 36.0572 42.313 35.4499C43.5619 34.8707 46.4161 33.2791 45.9203 31.0312Z" fill="white"/>
<path d="M34.3745 35.4165C34.3745 35.203 34.387 35.0249 34.3933 34.828C34.3829 34.5666 34.3745 34.3749 34.3745 34.3749C34.3745 34.3749 34.387 34.3655 34.4079 34.352C34.5631 31.5676 35.3308 30.4947 36.1527 29.8832C36.0381 29.7238 35.9058 29.552 35.7818 29.3884C35.435 28.9332 35.0027 28.3686 34.5402 27.6447L34.4548 27.4801C34.385 27.3093 34.2162 27.0145 34.0016 26.627C32.7693 24.3978 30.2048 19.7603 31.96 16.8311C32.7287 15.5478 34.1704 14.8082 36.2527 14.6259C35.4016 12.2061 32.2131 6.36968 24.9839 6.24988C24.9818 6.24988 24.9798 6.24988 24.9777 6.24988C18.685 6.1478 16.6173 11.8665 15.9443 15.2832C16.8714 14.8905 17.9298 14.652 18.8985 14.652C18.9131 14.652 18.9287 14.652 18.9433 14.652C21.3287 14.6697 22.9693 15.9426 23.4464 18.1457C23.7954 19.7624 23.9631 21.177 23.9589 22.4718C23.9485 25.304 23.3777 26.7936 22.8735 28.1082L22.7131 28.5332C22.5839 28.8811 22.4475 29.2051 22.3183 29.5093C22.187 29.8197 22.0714 30.0957 21.987 30.3447C22.4912 30.4593 22.887 30.6207 23.1589 30.7405L23.3162 30.8093C23.3652 30.8301 23.4141 30.854 23.4589 30.8811C24.3423 31.4186 24.8923 32.2447 25.01 33.2072C25.0735 33.7259 25.0631 37.2624 25.0412 40.3478C25.1318 41.6863 25.3589 42.8103 25.6589 43.6249C26.085 44.7853 27.1495 47.0009 29.1943 46.8738C30.6214 46.7853 31.9933 45.9165 32.9037 44.7707C33.8808 43.5405 34.2412 42.1801 34.3766 40.6478V35.4165H34.3745Z" fill="#0277BD"/>
<path d="M15.7441 30.1219C14.0639 28.3688 13.2451 26.0105 13.5524 23.8136C13.8493 21.6938 13.6816 19.6188 13.591 18.5032C13.5607 18.1313 13.541 17.8542 13.542 17.7011C13.542 17.6928 13.5441 17.6855 13.5451 17.6771C13.5451 17.673 13.543 17.6698 13.543 17.6657C13.6691 14.5188 14.8826 9.55421 18.2232 6.60317C16.5962 5.96255 13.9462 5.11776 11.4587 5.20838C7.56074 5.35005 3.78782 8.04588 4.16699 15.625C4.3097 18.4688 7.52324 35.524 11.917 35.4167C12.5451 35.4011 13.1972 34.998 13.867 34.1917C14.9264 32.9178 15.9555 31.7625 16.6878 30.9584C16.3597 30.7094 16.043 30.4344 15.7441 30.1219ZM38.5659 15.3448C38.5816 15.5053 38.568 15.6428 38.543 15.7698C38.5753 16.7282 38.4722 17.6584 38.367 18.5584C38.2899 19.2209 38.2107 19.9053 38.1889 20.5917C38.167 21.2636 38.2618 21.9271 38.3618 22.6292C38.5962 24.273 38.8399 26.1282 37.5649 28.2928C37.7993 28.6011 38.0055 28.8875 38.1701 29.1646C42.9722 21.3782 44.9076 12.1219 43.0607 9.76255C40.266 6.19171 36.3972 5.15838 33.3326 5.20838C32.3732 5.22401 31.5014 5.35317 30.7566 5.51463C36.0441 8.07713 38.3993 13.5688 38.5659 15.3448ZM42.7087 31.324C39.9326 31.8969 38.5972 31.5917 37.9493 31.1928C37.8451 31.2678 37.741 31.3313 37.6441 31.3907C37.2566 31.625 36.643 31.998 36.493 34.2886C36.5795 34.3053 36.6555 34.3146 36.7493 34.3344L37.2024 34.375C38.5774 34.4375 40.3785 34.0521 41.4347 33.5615C43.7107 32.5053 44.9514 30.8615 42.7087 31.324ZM22.941 33.4573C22.9024 33.1469 22.7347 32.8959 22.4284 32.6948L22.316 32.6459C21.9399 32.4803 21.5139 32.2917 20.8337 32.2917H20.8295C20.6972 32.3021 20.5659 32.3115 20.4337 32.3115C20.3795 32.3115 20.3264 32.3042 20.2722 32.3021C19.7785 32.6823 19.0764 32.9761 17.3389 33.3334C14.2347 34.124 16.067 35.0573 17.2576 35.2021C18.4097 35.4907 21.1482 35.8417 22.967 34.3594C22.9618 33.8928 22.9535 33.5719 22.941 33.4573Z" fill="#0277BD"/>
<path d="M21.5428 19.2719C21.2386 19.5865 20.7584 19.8615 20.2282 19.776C19.3657 19.6365 18.7042 18.5958 18.7521 18.2052C18.798 17.8156 19.5344 17.6125 20.3959 17.7521C20.6949 17.801 20.9667 17.8854 21.1959 17.9896C20.8626 17.2729 20.2594 16.8594 19.3396 16.7583C17.7094 16.5771 15.9792 17.4292 15.6313 17.901C15.6386 18.0156 15.6521 18.1625 15.6657 18.3354C15.7626 19.5302 15.9417 21.7562 15.6136 24.1031C15.3969 25.65 16.023 27.4042 17.2459 28.6813C18.0344 29.5042 18.9553 30.025 19.8636 30.1792C19.9792 29.6812 20.1855 29.1958 20.398 28.6948C20.5157 28.4188 20.6407 28.125 20.7584 27.8073L20.9271 27.3625C21.3886 26.1594 21.8646 24.9146 21.874 22.4635C21.8782 21.5208 21.7626 20.4448 21.5428 19.2719ZM36.299 22.924C36.1907 22.1646 36.0792 21.3781 36.1063 20.525C36.1303 19.7521 36.2157 19.0229 36.298 18.3177C36.3626 17.7625 36.4126 17.2292 36.4417 16.7031C35.099 16.8146 34.2074 17.2021 33.7844 17.8573C33.9594 17.7979 34.1574 17.751 34.3761 17.7229C35.3053 17.6021 35.9834 17.8698 36.0615 18.3865C36.1188 18.7646 35.798 19.1208 35.6574 19.2573C35.3688 19.5375 35.0053 19.7177 34.6355 19.7656C34.5688 19.774 34.5011 19.7781 34.4355 19.7781C34.0678 19.7781 33.7167 19.6521 33.4469 19.4656C33.5636 21.5208 35.0792 24.2698 35.8251 25.6187C35.9844 25.9073 36.1074 26.1375 36.2094 26.3354C36.6188 25.1698 36.4678 24.1073 36.299 22.924Z" fill="#0277BD"/>
</svg>
