<svg width="50" height="50" viewBox="0 0 50 50" fill="none" xmlns="http://www.w3.org/2000/svg">
<path d="M29 7L23.3086 9L29 11L34.6914 9L29 7ZM43 7L37.3086 9L43 11L48.6914 9L43 7ZM23 11V17.332L28 19V12.668L23 11ZM35 11L30 12.668V19L35 17.332V11ZM37 11V17.332L42 19V12.668L37 11ZM49 11L44 12.668V19L49 17.332V11ZM8 19L2.30859 21L8 23L13.6914 21L8 19ZM22 19L16.3086 21L22 23L27.6914 21L22 19ZM2 23V29.332L7 31V24.668L2 23ZM14 23L9 24.668V31L14 29.332V23ZM16 23V29.332L21 31V24.668L16 23ZM28 23L23 24.668V31L28 29.332V23ZM15 31L9.30859 33L15 35L20.6914 33L15 31ZM9 35V41.332L14 43V36.668L9 35ZM21 35L16 36.668V43L21 41.332V35Z" fill="black"/>
</svg>
