<svg width="50" height="50" viewBox="0 0 50 50" fill="none" xmlns="http://www.w3.org/2000/svg">
<g clip-path="url(#clip0_5_232)">
<path d="M48.7393 14.7522C47.7227 14.321 46.5456 14.7481 46.0518 15.7356C45.5852 16.6689 44.9622 17.2418 44.1477 17.4814C42.8727 17.8627 41.3497 17.3731 40.6372 16.9543C39.6977 16.4022 38.6081 15.5647 37.456 14.6793C33.7789 11.8502 29.2039 8.3335 22.9164 8.3335C17.8872 8.3335 15.3039 10.9147 11.0268 15.1939C10.2122 16.0085 10.206 17.3335 11.0206 18.146C11.8122 18.9418 13.0831 18.9668 13.8997 18.2085C13.9206 18.1897 13.9414 18.1689 13.9622 18.1502C15.1122 17.2627 22.3581 18.1252 25.5247 20.6418C30.231 24.3814 33.6289 27.0835 37.4997 27.0835C43.0393 27.0835 47.6643 23.4564 49.8747 17.3793C50.2518 16.3418 49.7539 15.1897 48.7393 14.7522ZM38.3227 29.3356C37.306 28.9043 36.1289 29.3314 35.6352 30.3189C35.1685 31.2522 34.5456 31.8252 33.731 32.0647C32.456 32.4397 30.9331 31.9564 30.2206 31.5377C29.281 30.9856 28.1914 30.1481 27.0393 29.2627C23.3622 26.4335 18.7872 22.9168 12.4997 22.9168C7.47058 22.9168 4.88725 25.4981 0.610165 29.7772C-0.204418 30.5918 -0.210668 31.9168 0.603915 32.7293C1.39558 33.5252 2.6685 33.5522 3.48516 32.7918C3.506 32.7731 3.52683 32.7522 3.54766 32.7335C4.69558 31.846 11.9456 32.7085 15.1102 35.2252C19.8143 38.9647 23.2122 41.6668 27.0831 41.6668C32.6227 41.6668 37.2477 38.0397 39.4581 31.9627C39.8352 30.9252 39.3372 29.7731 38.3227 29.3356Z" fill="black"/>
</g>
<defs>
<clipPath id="clip0_5_232">
<rect width="50" height="50" fill="white"/>
</clipPath>
</defs>
</svg>
