<svg width="50" height="50" viewBox="0 0 50 50" fill="none" xmlns="http://www.w3.org/2000/svg">
<path d="M30.0308 2.9998C29.8667 2.9959 29.7027 3.03105 29.5542 3.10527C28.9253 3.41777 28.523 3.87871 28.1597 4.28105C27.8003 4.6834 27.5308 5.04277 27.5308 5.04277C27.5191 5.0584 27.5074 5.07402 27.4995 5.08965C26.5074 6.58184 26.0191 8.28105 25.9995 9.99199C25.9878 11.3084 26.2535 12.6326 26.7691 13.8787C28.0308 16.9061 30.566 19.2459 33.5464 20.3631H33.5503C33.687 20.4178 33.8081 20.4607 33.9058 20.4959C33.9214 20.4998 33.937 20.5037 33.9527 20.5115C33.9722 20.5154 34.0152 20.5311 34.0894 20.5506C34.2027 20.5896 34.3941 20.6678 34.6753 20.7225C35.4917 20.8865 36.2535 20.9725 36.9683 20.9959C40.1324 21.0936 42.3238 19.8748 43.691 18.5428C44.3745 17.8748 44.8628 17.1834 45.2066 16.6209C45.5542 16.0584 45.8199 15.5506 45.8238 15.5467H45.8277C46.1285 15.0896 46.0074 14.4764 45.5581 14.1678C45.105 13.8592 44.4878 13.9725 44.1714 14.4217C43.398 15.5584 42.437 16.2107 41.2105 16.5271C39.9839 16.8436 38.4761 16.7967 36.7456 16.367C36.5113 16.3084 36.2222 16.2146 35.9605 16.117C35.9605 16.117 35.9566 16.117 35.9527 16.1131C35.6363 15.9998 35.312 15.8631 34.9956 15.7107L34.9917 15.7068L34.9839 15.7029C34.3941 15.41 33.8238 15.0584 33.3042 14.6521C31.8667 13.535 30.7495 11.7068 30.273 9.79668C29.7964 7.88652 29.9605 5.94121 30.8472 4.53105C31.0386 4.22637 31.0503 3.84355 30.8824 3.52715C30.7144 3.21074 30.3902 3.01152 30.0308 2.9998ZM20.9956 4.9998C20.7652 4.9998 20.5425 5.08184 20.3667 5.22637C18.7652 6.53105 17.2417 8.5584 17.2417 8.5584C17.23 8.57012 17.2222 8.58574 17.2144 8.60137C14.2535 12.9061 14.437 18.5662 16.691 23.0311C17.062 23.7693 17.4839 24.4881 17.9566 25.1717C17.9605 25.1756 17.9605 25.1756 17.9605 25.1756C18.3316 25.7225 18.7808 26.4373 19.4292 27.035C19.6402 27.2771 19.8589 27.5037 20.0777 27.7186C20.1285 27.7732 20.1831 27.8279 20.2339 27.8787C20.2378 27.8865 20.2417 27.8904 20.2456 27.8904C20.4527 28.0936 20.6675 28.2967 20.8902 28.4959L20.8941 28.4998C20.9019 28.5076 20.9136 28.5193 20.9214 28.5271L20.937 28.535C20.9488 28.5506 20.9644 28.5623 20.98 28.574C21.2144 28.785 21.4527 28.9842 21.6988 29.1756C21.7105 29.1873 21.7183 29.1951 21.73 29.2029C21.73 29.2029 21.7847 29.2498 21.898 29.3318C22.148 29.5271 22.4019 29.7146 22.6519 29.8943C22.6831 29.9178 22.7183 29.9412 22.7495 29.9568C22.773 29.9725 22.7886 29.9842 22.8081 29.9998H22.812C22.9019 30.0623 22.9917 30.1209 23.066 30.1717C23.0894 30.1873 23.1441 30.2264 23.2339 30.285C23.4292 30.4139 23.6206 30.5311 23.8199 30.6521C23.8394 30.6639 23.8628 30.6756 23.8824 30.6873C23.8824 30.6873 23.9136 30.7029 23.9488 30.7186C23.9566 30.7264 23.9566 30.7225 23.9683 30.7303C24.1245 30.824 24.2847 30.9178 24.4527 31.0037C24.5113 31.0389 24.5816 31.074 24.6011 31.0857C24.6128 31.0936 24.6245 31.0975 24.6363 31.1053C24.7378 31.1561 24.8472 31.2146 24.9605 31.2771C25.0581 31.3279 25.0855 31.3318 25.0777 31.3318C25.3277 31.4529 25.566 31.5623 25.7886 31.6678C25.8042 31.6717 25.8199 31.6795 25.8394 31.6873C25.8863 31.7068 25.9253 31.7225 25.9761 31.7459C26.1753 31.8279 26.3824 31.9217 26.6011 32.0037C26.6128 32.0076 26.6285 32.0154 26.6402 32.0193C26.6831 32.035 26.7574 32.0623 26.8706 32.1053C26.8706 32.1053 26.8745 32.1053 26.8745 32.1092C27.062 32.1756 27.2535 32.2381 27.441 32.3006C27.5386 32.3357 27.6245 32.3631 27.6988 32.3904C27.6988 32.3904 27.6988 32.3904 27.7027 32.3904C27.9097 32.4568 28.2183 32.5857 28.6363 32.6561C28.6363 32.6561 28.6363 32.6521 28.6402 32.6561C30.2183 32.9178 31.6753 33.0232 33.0191 32.9959C38.5152 32.8748 42.0777 30.4529 44.1675 28.0701C46.2535 25.6873 46.9566 23.2811 46.9566 23.2811C47.0972 22.8084 46.8706 22.3084 46.4253 22.0975C45.9839 21.8865 45.4527 22.0311 45.1714 22.4373C42.5152 26.3201 37.3511 28.3162 31.7027 26.8279C31.4527 26.7654 31.2105 26.6951 30.9722 26.6131C30.9566 26.6092 30.937 26.6014 30.9175 26.5975C30.8824 26.5896 30.8355 26.574 30.7535 26.5467C30.7456 26.5428 30.7378 26.5389 30.7339 26.535C30.5503 26.4764 30.3785 26.4217 30.2222 26.3592C30.2222 26.3592 30.2222 26.3592 30.2183 26.3592C30.1285 26.324 30.0503 26.2967 29.9839 26.2693C29.7847 26.1912 29.5972 26.117 29.437 26.0467C29.4253 26.0389 29.4175 26.035 29.4058 26.0311C29.3199 25.9959 29.2808 25.9764 29.3355 26.0037C29.312 25.992 29.2886 25.9842 29.2652 25.9725C29.0464 25.8748 28.8199 25.7693 28.5933 25.6561L28.5777 25.6521C28.5777 25.6482 28.5738 25.6482 28.5699 25.6443C28.4566 25.5857 28.3472 25.5311 28.2339 25.4686C28.23 25.4686 28.2261 25.4646 28.2183 25.4646C28.148 25.4256 28.0816 25.3904 28.023 25.3592V25.3631C27.8941 25.2967 27.7613 25.2146 27.605 25.1209C27.5933 25.117 27.5855 25.1131 27.5777 25.1092C27.5308 25.0818 27.5152 25.074 27.5074 25.0662H27.5035L27.4956 25.0623C27.3042 24.9451 27.1245 24.8357 26.9839 24.7381C26.9644 24.7264 26.941 24.7146 26.9214 24.7029C26.937 24.7107 26.8941 24.6795 26.7925 24.6131C26.687 24.5467 26.5777 24.4764 26.4605 24.3943H26.4566C26.4527 24.3904 26.4488 24.3865 26.441 24.3865C26.2222 24.2264 25.9956 24.0545 25.7652 23.8787L25.7456 23.8592C25.691 23.8162 25.6441 23.7811 25.6128 23.7537C25.605 23.7498 25.5972 23.742 25.5894 23.7342C23.0972 21.7459 21.1363 19.0232 20.2144 15.9803V15.9764C19.2886 12.9803 20.2417 9.30059 21.8628 6.4998C22.0425 6.19121 22.0425 5.8084 21.8628 5.4959C21.6831 5.1873 21.3511 4.9998 20.9956 4.9998ZM10.0035 7.9998C9.75736 7.9998 9.51517 8.08965 9.33158 8.25762C9.27689 8.30449 9.24955 8.35527 9.19486 8.40605C7.25345 10.2029 5.87064 12.3904 5.8433 12.4373C1.81986 18.285 2.35501 27.2576 5.35892 33.3162C5.35892 33.3201 5.35892 33.324 5.35892 33.3279C5.43705 33.492 5.51517 33.6365 5.57767 33.7498C5.60892 33.8201 5.64408 33.8865 5.67923 33.9529C5.75345 34.1209 5.80814 34.1912 5.81595 34.2029C5.86283 34.2928 5.9097 34.3826 5.94486 34.449C5.94876 34.4568 5.95658 34.4686 5.96048 34.4764C6.05033 34.6209 6.13626 34.7811 6.23392 34.9412C6.23392 34.9451 6.23783 34.949 6.24173 34.9529C6.2847 35.0232 6.33939 35.1248 6.42533 35.2498C6.5347 35.4295 6.63626 35.5896 6.71048 35.7068C6.71439 35.7146 6.7183 35.7186 6.7183 35.7225C6.75736 35.7811 6.80423 35.8592 6.86283 35.9412C6.86673 35.949 6.87064 35.9529 6.87455 35.9568C6.87845 35.9646 6.87845 35.9686 6.88627 35.9803C7.02298 36.1873 7.16752 36.4021 7.32767 36.6248C7.3433 36.6443 7.33939 36.6365 7.35111 36.6561C7.36283 36.6717 7.36283 36.6717 7.37064 36.6834C7.37455 36.6873 7.38236 36.699 7.38627 36.7068L7.39017 36.7107C7.39798 36.7225 7.42923 36.7615 7.42923 36.7615C7.42923 36.7654 7.43314 36.7693 7.43705 36.7693C7.57767 36.9646 7.7222 37.1639 7.87455 37.3592C7.93314 37.4373 7.98392 37.5037 8.01126 37.5389C8.01908 37.5506 8.0308 37.5623 8.03861 37.5779C8.16752 37.7303 8.29252 37.8865 8.42142 38.0467C8.42533 38.0545 8.42923 38.0584 8.43314 38.0623C8.4722 38.1092 8.52298 38.1678 8.57767 38.2342C8.74564 38.4373 8.91752 38.6326 9.0933 38.8279C9.10892 38.8436 9.12455 38.8631 9.14017 38.8787L9.13236 38.867C9.18314 38.9256 9.27298 39.0232 9.36283 39.0818L9.17533 38.9217C9.35892 39.1248 9.54642 39.324 9.73392 39.5232C9.73783 39.5271 9.74173 39.5271 9.74173 39.5311C9.80814 39.5975 9.87455 39.6639 9.94486 39.7342C10.0777 39.867 10.2183 40.0115 10.3824 40.1678C10.4449 40.2264 10.5074 40.2811 10.5503 40.3279C10.5542 40.3318 10.5542 40.3318 10.5581 40.3318C10.7378 40.5037 10.9331 40.6873 11.1402 40.8709C11.1597 40.8826 11.1714 40.8982 11.187 40.91C11.187 40.9139 11.187 40.9139 11.187 40.9139C11.2417 40.9607 11.273 40.9881 11.2652 40.9803C11.2769 40.9881 11.2847 40.9998 11.2964 41.0076C11.48 41.1678 11.6636 41.324 11.8472 41.4803C11.937 41.5506 12.0152 41.6131 12.0816 41.6717C12.0855 41.6717 12.0855 41.6717 12.0894 41.6717C12.2535 41.8084 12.4097 41.9256 12.5581 42.0389C12.5581 42.0428 12.562 42.0428 12.562 42.0467C12.6363 42.1014 12.7144 42.16 12.8003 42.2264C12.8042 42.2303 12.8081 42.2303 12.812 42.2342C12.9878 42.367 13.1636 42.492 13.3316 42.6131C13.3824 42.6521 13.441 42.6912 13.5035 42.7342C13.4995 42.7303 13.523 42.7498 13.5152 42.7459C13.5425 42.7654 13.5699 42.785 13.5933 42.8006C13.7574 42.91 13.9175 43.0193 14.0855 43.1287C14.0855 43.1326 14.0894 43.1326 14.0894 43.1326C14.1636 43.1795 14.23 43.2264 14.2964 43.2693C14.3003 43.2732 14.3042 43.2771 14.312 43.2811C14.5777 43.4529 14.8394 43.6131 15.0972 43.7693C15.1128 43.7811 15.1285 43.7889 15.1441 43.7967C15.2066 43.8318 15.2652 43.8631 15.3199 43.8943C15.3238 43.8982 15.3238 43.8982 15.3277 43.9021C15.5269 44.0154 15.7261 44.1326 15.937 44.2459L15.9175 44.2342C16.0581 44.3123 16.1831 44.3709 16.2847 44.4217C16.4097 44.492 16.5425 44.5662 16.6831 44.6365C16.7027 44.6482 16.7261 44.66 16.7495 44.6717C16.8238 44.699 16.8238 44.7068 16.7456 44.66C16.773 44.6795 16.8003 44.6912 16.8277 44.7029C16.8394 44.7107 16.8824 44.7303 16.9566 44.7693C16.9605 44.7693 16.9605 44.7693 16.9644 44.7693C17.1949 44.8865 17.4214 44.992 17.6558 45.0936C17.7105 45.1209 17.7456 45.1365 17.7339 45.1287C17.7574 45.1404 17.7769 45.1521 17.7964 45.16C18.0581 45.2771 18.3238 45.3865 18.5933 45.4959C18.5972 45.4959 18.605 45.4998 18.6089 45.4998C18.6245 45.5037 18.7027 45.5389 18.7808 45.5662C18.7964 45.574 18.812 45.5779 18.8277 45.5818C18.8355 45.5857 18.8316 45.5857 18.8394 45.5896C19.0542 45.6717 19.2691 45.7537 19.4839 45.8279C19.5425 45.8553 19.5933 45.8709 19.6285 45.8865C19.9097 45.9803 20.1831 46.0701 20.4644 46.1561C20.4722 46.16 20.48 46.1639 20.4917 46.1678C20.5074 46.1717 20.5816 46.1951 20.6636 46.2186C20.6675 46.2186 20.6714 46.2225 20.6753 46.2225C20.6949 46.2264 20.691 46.2264 20.7105 46.2342C20.9488 46.3084 21.23 46.4139 21.5972 46.4842C21.6011 46.4842 21.6011 46.4842 21.605 46.4842C23.5347 46.8396 25.3277 46.9998 26.9995 46.9998C41.3355 47.0037 45.9331 35.3553 45.9331 35.3553C46.1089 34.8904 45.9175 34.367 45.4839 34.1248C45.0503 33.8865 44.5035 33.9998 44.2027 34.3943C40.1206 39.7615 32.8003 40.8475 25.6597 39.2068C25.4449 39.1561 25.191 39.0779 24.898 38.9881C24.8941 38.9881 24.8863 38.9842 24.8824 38.9842C24.8316 38.9686 24.7769 38.9529 24.7495 38.9412C24.7339 38.9373 24.7183 38.9334 24.7027 38.9295C24.4527 38.8514 24.1988 38.7654 23.9449 38.6795C23.941 38.6756 23.9331 38.6756 23.9253 38.6717C23.9097 38.6678 23.8941 38.6639 23.8824 38.6561C23.8667 38.6521 23.8511 38.6443 23.8316 38.6404C23.6363 38.5701 23.4253 38.492 23.2066 38.4061L23.1714 38.3904C23.0855 38.3592 23.0113 38.3318 22.98 38.3162C22.7456 38.2225 22.5035 38.1209 22.2652 38.0154C22.2417 38.0037 22.2222 37.9959 22.2027 37.9881C22.2066 37.9881 22.1558 37.9686 22.1245 37.9568C21.9175 37.8592 21.7144 37.7615 21.5035 37.66C21.4878 37.6561 21.4761 37.6482 21.4605 37.6404C21.4488 37.6365 21.4136 37.6209 21.3433 37.5818C21.3355 37.5779 21.3277 37.574 21.316 37.5701C21.1792 37.5037 21.0269 37.4256 20.8706 37.3396C20.8667 37.3357 20.8589 37.3318 20.855 37.3279C20.73 37.2654 20.6324 37.2186 20.562 37.1756C20.5542 37.1756 20.5503 37.1717 20.5425 37.1678C20.3589 37.0701 20.1675 36.9568 19.9644 36.8436L20.0425 36.8904C19.9097 36.8045 19.816 36.7576 19.7613 36.7264L19.7925 36.742C19.5386 36.5896 19.2886 36.4373 19.0503 36.285C19.0464 36.2811 19.0425 36.2811 19.0425 36.2771C18.9956 36.2498 18.941 36.2146 18.8745 36.1678C18.8628 36.1561 18.8472 36.1482 18.8355 36.1404C18.6714 36.035 18.5035 35.9178 18.3277 35.8006L18.316 35.7928C18.2808 35.7654 18.2261 35.7264 18.1519 35.6717C17.9956 35.5623 17.8394 35.449 17.6792 35.3279H17.6714C17.6636 35.3201 17.6597 35.3162 17.6519 35.3084C17.5894 35.2576 17.5191 35.2068 17.4488 35.1521C17.2925 35.0311 17.1441 34.9178 17.0113 34.8084L16.9917 34.7967C16.9136 34.7303 16.8433 34.6717 16.7925 34.6287C16.7925 34.6287 16.7886 34.6287 16.7847 34.6248C16.6011 34.4764 16.4253 34.3201 16.2339 34.1561L16.316 34.2381C16.1558 34.0584 16.0816 34.035 16.1206 34.0623L16.1753 34.1092C15.9839 33.9373 15.7886 33.7537 15.5894 33.5662L15.5777 33.5584C15.5464 33.5271 15.4956 33.4764 15.4292 33.4139L15.4019 33.3865C15.2574 33.2459 15.1245 33.1131 15.0035 32.992C14.9995 32.9881 14.9995 32.9881 14.9956 32.9842C14.941 32.9295 14.8902 32.8748 14.8277 32.8123C14.6558 32.6404 14.4878 32.4568 14.3199 32.2693C14.312 32.2615 14.3003 32.2498 14.2925 32.2381H14.2886C14.1128 32.0467 13.941 31.8475 13.7652 31.6404C13.7652 31.6365 13.7652 31.6326 13.7613 31.6287C13.7339 31.5975 13.687 31.5389 13.6128 31.4529C13.4917 31.3045 13.3706 31.1482 13.2378 30.9881L13.2339 30.9842C13.191 30.9256 13.1441 30.8631 13.1167 30.8279L13.1128 30.824C12.9644 30.6287 12.8238 30.4373 12.6831 30.242L12.6792 30.2381C10.7964 27.6443 9.49564 23.449 9.13236 19.41C8.76517 15.3748 9.39408 11.4998 10.8003 9.59355C11.0269 9.29277 11.062 8.89043 10.8941 8.55449C10.7261 8.21465 10.3824 8.00371 10.0035 7.9998ZM28.2027 8.64824C28.2574 9.19512 28.1988 9.7459 28.3316 10.2811C28.9136 12.5975 30.2144 14.785 32.0777 16.2342C32.7144 16.7264 33.398 17.1521 34.105 17.4998C34.1089 17.5037 34.1128 17.5076 34.1167 17.5076C34.4917 17.6873 34.8785 17.8514 35.273 17.9959L35.2652 17.992C35.5699 18.1053 35.9136 18.2225 36.2613 18.3084C37.1636 18.5311 38.0347 18.6482 38.8785 18.6951C38.2847 18.8162 37.7886 19.0193 37.0308 18.9959C36.437 18.9764 35.7808 18.9021 35.066 18.7615H35.062C35.0152 18.7537 34.8941 18.7068 34.687 18.6443C34.6636 18.6365 34.6167 18.6209 34.566 18.6053C34.4449 18.5623 34.3472 18.5311 34.273 18.4998C34.2652 18.4959 34.2613 18.4959 34.2535 18.492C31.7847 17.5662 29.648 15.5896 28.6167 13.1092C28.1988 12.1014 27.9878 11.0467 27.9995 10.0115C28.0035 9.54668 28.1128 9.09746 28.2027 8.64824ZM18.0386 11.4686C17.7847 13.16 17.7886 14.8943 18.3003 16.5623C19.355 20.0389 21.5581 23.074 24.3433 25.2967C24.4019 25.3475 24.4605 25.3943 24.4995 25.4295C24.5074 25.4334 24.5152 25.4412 24.523 25.4451C24.773 25.6404 25.0347 25.8396 25.3081 26.0311C25.312 26.035 25.3199 26.0389 25.3277 26.0428C25.4527 26.1287 25.5777 26.2107 25.7144 26.2967C25.7144 26.3006 25.7144 26.3006 25.7144 26.3006C25.7222 26.3045 25.7925 26.3592 25.9253 26.4373C26.1128 26.5584 26.3003 26.6717 26.4566 26.7693C26.4644 26.7732 26.4683 26.7771 26.4722 26.7811C26.5425 26.8201 26.5894 26.8475 26.6089 26.8553C26.7495 26.9412 26.9058 27.035 27.0933 27.1326C27.0933 27.1326 27.0933 27.1326 27.0933 27.1365C27.1675 27.1717 27.2417 27.2107 27.316 27.2459C27.437 27.3084 27.5542 27.3709 27.6714 27.4334C27.6792 27.4373 27.687 27.4412 27.6988 27.4451C27.9175 27.5545 28.1519 27.6639 28.3941 27.7693C28.523 27.8357 28.5777 27.8553 28.6128 27.867C28.8394 27.9686 29.0542 28.0506 29.2495 28.1287C29.3472 28.1678 29.441 28.2029 29.5152 28.2342L29.5113 28.2303C29.7183 28.3084 29.9214 28.3748 30.1128 28.4373C30.1714 28.4607 30.2535 28.4842 30.3433 28.5115C30.6206 28.6053 30.9058 28.6912 31.1949 28.7654C34.9449 29.7537 38.5191 29.2459 41.5386 27.8279C39.7027 29.4725 37.0386 30.9061 32.9761 30.9959C31.7652 31.0232 30.4331 30.9295 28.9644 30.6834C28.9605 30.6795 28.9566 30.6795 28.9527 30.6795C28.8316 30.66 28.6206 30.5818 28.316 30.4842C28.23 30.4607 28.1558 30.4334 28.0777 30.4061C27.9058 30.3514 27.73 30.2889 27.5581 30.2264L27.5503 30.2225C27.5074 30.2068 27.4214 30.1756 27.3199 30.1404L27.2964 30.1287C27.2886 30.1248 27.2886 30.1248 27.2808 30.1248C27.1167 30.0584 26.9449 29.9842 26.7652 29.9061C26.7652 29.9061 26.7652 29.9061 26.7613 29.9061C26.7105 29.8826 26.6597 29.8592 26.6011 29.8396C26.3667 29.7303 26.1441 29.6287 25.937 29.5232C25.9253 29.5193 25.9136 29.5154 25.9019 29.5115C25.8003 29.4529 25.687 29.3943 25.566 29.3357L25.5542 29.3279C25.5464 29.324 25.5425 29.3201 25.5347 29.3162C25.4878 29.2928 25.437 29.2654 25.437 29.2654C25.4136 29.2498 25.3902 29.2381 25.3706 29.2264C25.2261 29.1521 25.0777 29.0662 24.937 28.9803C24.9097 28.9646 24.8863 28.9529 24.8589 28.9373C24.8589 28.9373 24.8355 28.9256 24.8238 28.9217C24.6519 28.8162 24.4878 28.7146 24.3199 28.6053C24.316 28.6014 24.312 28.5975 24.3081 28.5936C24.2925 28.5857 24.2417 28.5506 24.1558 28.4959C24.0308 28.4139 23.9292 28.3475 23.8511 28.2928C23.8277 28.2732 23.8003 28.2576 23.773 28.2381C23.773 28.2381 23.7691 28.2381 23.7652 28.2342C23.5386 28.0701 23.316 27.9061 23.105 27.7381C23.0933 27.7303 23.0816 27.7225 23.0738 27.7146C23.0699 27.7107 23.0113 27.6639 22.937 27.6053C22.7144 27.4295 22.5035 27.2537 22.2964 27.0701C22.2925 27.0662 22.2925 27.0662 22.2886 27.0623C22.2808 27.0545 22.2691 27.0467 22.2613 27.0389C22.2574 27.035 22.2495 27.0311 22.2456 27.0271C22.2378 27.0193 22.2339 27.0154 22.23 27.0115C22.0347 26.8357 21.8433 26.6561 21.6519 26.4686L21.6402 26.4568C21.5894 26.4061 21.5425 26.3592 21.4995 26.3123C21.4956 26.3123 21.4956 26.3084 21.4917 26.3084C21.2847 26.1014 21.0972 25.9061 20.9331 25.7146C20.9019 25.6795 20.8706 25.6482 20.8355 25.6209C20.4527 25.285 20.0269 24.6521 19.6089 24.0428C19.605 24.0389 19.605 24.0389 19.605 24.035C19.1831 23.4334 18.8081 22.7967 18.48 22.1365C18.48 22.1326 18.48 22.1326 18.48 22.1287C16.8042 18.8201 16.5816 14.8162 18.0386 11.4686ZM7.26908 14.0779C7.04642 15.824 6.9683 17.6756 7.14017 19.5936C7.5308 23.9178 8.8472 28.3631 11.062 31.41C11.2144 31.6287 11.3706 31.8357 11.5308 32.0467C11.5894 32.1248 11.6285 32.1717 11.6402 32.1873C11.6558 32.2107 11.6714 32.2342 11.691 32.2537C11.816 32.41 11.9449 32.5701 12.0777 32.7381C12.0894 32.7498 12.0972 32.7576 12.1089 32.7693C12.1324 32.7967 12.1753 32.8553 12.2456 32.9373C12.4253 33.1482 12.6128 33.367 12.8081 33.5818C12.816 33.5896 12.8238 33.6014 12.8316 33.6092C13.0152 33.8123 13.2066 34.0154 13.4019 34.2146C13.4527 34.2654 13.5074 34.324 13.5738 34.3904C13.5777 34.3943 13.5777 34.3943 13.5777 34.3943L13.5816 34.3982C13.7378 34.5545 13.8824 34.699 14.0191 34.8318C14.0269 34.8396 14.0386 34.8514 14.0464 34.8592C14.0777 34.8865 14.1245 34.9373 14.2066 35.0154C14.2105 35.0193 14.2144 35.0193 14.2183 35.0232C14.4175 35.2107 14.6245 35.4061 14.8394 35.5936C14.855 35.6131 14.8745 35.6287 14.8941 35.6443C14.9761 35.7068 14.9566 35.7146 14.8316 35.5779C14.8589 35.6053 14.8863 35.6326 14.9136 35.6561C15.1089 35.8318 15.3081 36.0037 15.5269 36.1795C15.605 36.242 15.6675 36.2928 15.7144 36.3318C15.7183 36.3357 15.7261 36.3436 15.73 36.3475C15.898 36.4842 16.0581 36.6053 16.2066 36.7225C16.2183 36.7342 16.23 36.742 16.2378 36.7498C16.3042 36.7928 16.3667 36.8436 16.437 36.8943C16.4449 36.9061 16.4527 36.9139 16.4644 36.9217C16.6402 37.0467 16.812 37.1756 16.9995 37.3084C17.0386 37.3357 17.0972 37.3826 17.1714 37.4373C17.1753 37.4373 17.1792 37.4412 17.187 37.4412C17.3667 37.5662 17.5581 37.699 17.7652 37.8279C17.8199 37.867 17.8824 37.9139 17.9644 37.9646C17.9683 37.9686 17.9722 37.9686 17.9722 37.9686C18.2378 38.1404 18.5035 38.3045 18.7613 38.4568C18.7691 38.4607 18.7769 38.4686 18.7886 38.4725C18.8745 38.5193 18.9136 38.5428 18.9058 38.5389C18.9292 38.5545 18.9566 38.574 18.9839 38.5896C19.1714 38.6912 19.3667 38.8045 19.5738 38.9178L19.5777 38.9217C19.5816 38.9217 19.5855 38.9256 19.5933 38.9256C19.7222 38.9998 19.8394 39.0584 19.937 39.1092C20.0894 39.1912 20.2535 39.2771 20.4253 39.3592C20.4292 39.3631 20.441 39.367 20.441 39.3709C20.4488 39.3709 20.4488 39.3709 20.4527 39.3748C20.5113 39.4021 20.5777 39.4412 20.6831 39.4842C20.8785 39.5818 21.0777 39.6756 21.2847 39.7693C21.3003 39.7771 21.316 39.785 21.3316 39.7928C21.3355 39.7928 21.4019 39.8201 21.4527 39.8436C21.7027 39.9529 21.9683 40.0662 22.2456 40.1756C22.2456 40.1795 22.2495 40.1795 22.2495 40.1795C22.3394 40.2146 22.3941 40.2342 22.4058 40.2381C22.4214 40.2459 22.4331 40.2498 22.4488 40.2537C22.6792 40.3475 22.9214 40.4412 23.1792 40.5311C23.2222 40.5467 23.2691 40.5623 23.312 40.5779C23.5581 40.6639 23.812 40.7459 24.0738 40.8279C24.1753 40.8631 24.2652 40.8865 24.3433 40.91C24.6011 40.9881 24.8863 41.0818 25.2144 41.1561C30.5074 42.3748 36.0464 42.0662 40.5464 39.7771C37.9449 42.3826 33.6792 44.9998 26.9995 44.9998C25.4566 44.9998 23.7847 44.8514 21.9683 44.5154C21.7886 44.4803 21.5581 44.4021 21.2495 44.3084C21.2339 44.3006 21.2183 44.2967 21.2027 44.2928C21.1988 44.2928 21.1363 44.2732 21.062 44.2498L21.0308 44.242C20.7808 44.1639 20.5347 44.0818 20.2847 43.9959C20.2769 43.992 20.273 43.992 20.2652 43.9881C20.2378 43.9803 20.2456 43.9842 20.2535 43.9842C20.2417 43.9803 20.2261 43.9725 20.2144 43.9686C19.9761 43.8826 19.7378 43.7928 19.5152 43.7068C19.4995 43.699 19.48 43.6951 19.4605 43.6873C19.4683 43.6912 19.4136 43.6678 19.3316 43.6365L19.316 43.6287C19.0738 43.5311 18.8394 43.4334 18.6011 43.3279C18.5542 43.3084 18.4917 43.2771 18.4839 43.2771C18.48 43.2732 18.4761 43.2693 18.4722 43.2693C18.2535 43.1717 18.0503 43.0779 17.855 42.9803H17.8472C17.8316 42.9686 17.773 42.9412 17.7339 42.9217C17.6441 42.8709 17.6324 42.8709 17.6011 42.8592L17.5855 42.8553C17.4605 42.7889 17.3355 42.7225 17.2144 42.6561C17.2027 42.6482 17.191 42.6404 17.1792 42.6365C17.062 42.5779 16.9722 42.5311 16.9019 42.492C16.898 42.4881 16.8902 42.4842 16.8863 42.4842C16.7066 42.3865 16.5269 42.285 16.3472 42.1795L16.3394 42.1756C16.2613 42.1287 16.187 42.0857 16.1089 42.0467L16.0894 42.0311C15.855 41.8904 15.6245 41.7459 15.3941 41.5975C15.3277 41.5506 15.2613 41.5115 15.1949 41.4686L15.191 41.4646C15.191 41.4646 15.191 41.4646 15.187 41.4646C15.0347 41.3592 14.8863 41.2576 14.7261 41.1521C14.7027 41.1326 14.6753 41.1131 14.648 41.0936C14.6089 41.0701 14.562 41.035 14.5074 40.9959C14.5035 40.992 14.4995 40.9881 14.4956 40.9842C14.3316 40.8709 14.1714 40.7537 14.0191 40.6404L14.0152 40.6365H14.0113C13.937 40.5779 13.8628 40.5193 13.7808 40.4568L13.7769 40.4529C13.6206 40.3357 13.4761 40.2264 13.3433 40.117L13.3394 40.1131C13.2613 40.0506 13.1949 39.9998 13.1402 39.9529C13.1402 39.949 13.1363 39.949 13.1363 39.949C12.9566 39.7967 12.7808 39.6443 12.605 39.4959C12.5816 39.4725 12.562 39.4568 12.5464 39.449C12.5308 39.4295 12.5113 39.4139 12.4956 39.3982C12.316 39.2459 12.1324 39.0701 11.941 38.8904L11.937 38.8826C11.8706 38.8201 11.812 38.7693 11.7613 38.7186C11.7574 38.7146 11.7535 38.7107 11.7495 38.7068C11.6245 38.5896 11.4956 38.4529 11.3511 38.3084C11.3433 38.3006 11.3355 38.2928 11.3277 38.2811C11.273 38.2303 11.2261 38.1873 11.1792 38.1404C11.0035 37.9529 10.8316 37.7693 10.6597 37.5818C10.6558 37.5779 10.6519 37.574 10.6519 37.574C10.6441 37.5623 10.6363 37.5545 10.6245 37.5467C10.4527 37.3514 10.2847 37.16 10.1245 36.9646C10.1167 36.9568 10.1089 36.949 10.1011 36.9373C10.0699 36.9021 10.0269 36.8514 9.98001 36.7967L9.97611 36.7928C9.97611 36.7889 9.9722 36.785 9.9683 36.7811C9.8472 36.6287 9.7183 36.4686 9.58548 36.3084C9.53861 36.2459 9.49564 36.1873 9.47611 36.1561C9.46439 36.1443 9.45658 36.1326 9.44876 36.1248C9.31986 35.9568 9.19095 35.7889 9.06205 35.6092L9.05423 35.5975C9.01908 35.5467 8.99564 35.5193 9.00736 35.535C8.99955 35.5232 8.99173 35.5115 8.98392 35.4998C8.97611 35.4881 8.9683 35.4803 8.96048 35.4686C8.95658 35.4646 8.95267 35.4568 8.94876 35.4529C8.94876 35.4529 8.94877 35.4529 8.94486 35.4529C8.81205 35.2654 8.67923 35.0662 8.53861 34.8553C8.5347 34.8436 8.52689 34.8318 8.51517 34.8201C8.49173 34.785 8.46048 34.7342 8.42142 34.6717L8.4097 34.6561C8.29252 34.4646 8.18705 34.3084 8.11673 34.1873C8.10892 34.1717 8.0972 34.1521 8.08548 34.1365C8.05423 34.0896 8.01517 34.0193 7.95658 33.9256L7.95267 33.9178C7.87064 33.7811 7.7847 33.6365 7.69486 33.4842V33.4764C7.68705 33.4686 7.68705 33.4646 7.67923 33.4568C7.64017 33.3787 7.60502 33.3123 7.57767 33.2576C7.56595 33.2342 7.55423 33.2146 7.53861 33.1912C7.49564 33.1131 7.48002 33.0779 7.51517 33.1521C7.49955 33.117 7.48392 33.0857 7.4683 33.0584C7.43314 32.9959 7.39798 32.9373 7.37455 32.8748C7.36673 32.8592 7.35892 32.8436 7.35111 32.8279C7.27298 32.6795 7.21048 32.5623 7.16361 32.4686C7.1597 32.4568 7.1558 32.4451 7.15189 32.4373C4.54642 27.1834 4.17923 19.0857 7.26908 14.0779ZM22.316 27.1053L22.3277 27.1092C22.3433 27.1326 22.3394 27.1248 22.3589 27.1561C22.3472 27.1365 22.3316 27.1209 22.316 27.1053ZM10.6675 37.6053C10.6675 37.6053 10.6792 37.617 10.6831 37.6209C10.6949 37.6326 10.691 37.6287 10.7027 37.6443L10.7066 37.6482V37.6521C10.7144 37.6561 10.7183 37.6678 10.7222 37.6756C10.691 37.6326 10.6792 37.617 10.6675 37.6053ZM14.7456 41.1717L14.7808 41.1912C14.7105 41.1404 14.7144 41.1365 14.7808 41.199C14.7691 41.1873 14.7574 41.1795 14.7456 41.1717Z" fill="black"/>
</svg>
