<svg width="50" height="50" viewBox="0 0 50 50" fill="none" xmlns="http://www.w3.org/2000/svg">
<path d="M26.042 30.2082C26.042 32.4998 27.917 34.3748 30.2087 34.3748H40.6253C42.917 34.3748 44.792 32.4998 44.792 30.2082C44.792 27.9165 42.917 26.0415 40.6253 26.0415H30.2087C27.917 26.0415 26.042 27.9165 26.042 30.2082Z" fill="#F5BC00"/>
<path d="M26.042 36.4585V40.6252C26.042 42.9168 27.917 44.7918 30.2087 44.7918C32.5003 44.7918 34.3753 42.9168 34.3753 40.6252C34.3753 38.3335 32.5003 36.4585 30.2087 36.4585H26.042Z" fill="#F5BC00"/>
<path d="M19.7917 26.0415C17.5 26.0415 15.625 27.9165 15.625 30.2082V40.6248C15.625 42.9165 17.5 44.7915 19.7917 44.7915C22.0833 44.7915 23.9583 42.9165 23.9583 40.6248V30.2082C23.9583 27.9165 22.0833 26.0415 19.7917 26.0415Z" fill="#F55376"/>
<path d="M13.5413 26.0415H9.37467C7.08301 26.0415 5.20801 27.9165 5.20801 30.2082C5.20801 32.4998 7.08301 34.3748 9.37467 34.3748C11.6663 34.3748 13.5413 32.4998 13.5413 30.2082V26.0415Z" fill="#F55376"/>
<path d="M23.958 19.7917C23.958 17.5 22.083 15.625 19.7913 15.625H9.37467C7.08301 15.625 5.20801 17.5 5.20801 19.7917C5.20801 22.0833 7.08301 23.9583 9.37467 23.9583H19.7913C22.083 23.9583 23.958 22.0833 23.958 19.7917Z" fill="#00B3D7"/>
<path d="M23.9583 13.5418V9.37516C23.9583 7.0835 22.0833 5.2085 19.7917 5.2085C17.5 5.2085 15.625 7.0835 15.625 9.37516C15.625 11.6668 17.5 13.5418 19.7917 13.5418H23.9583Z" fill="#00B3D7"/>
<path d="M30.2087 23.9585C32.5003 23.9585 34.3753 22.0835 34.3753 19.7918V9.37516C34.3753 7.0835 32.5003 5.2085 30.2087 5.2085C27.917 5.2085 26.042 7.0835 26.042 9.37516V19.7918C26.042 22.0835 27.917 23.9585 30.2087 23.9585Z" fill="#00B569"/>
<path d="M36.458 23.9583H40.6247C42.9163 23.9583 44.7913 22.0833 44.7913 19.7917C44.7913 17.5 42.9163 15.625 40.6247 15.625C38.333 15.625 36.458 17.5 36.458 19.7917V23.9583Z" fill="#00B569"/>
</svg>
