<svg width="50" height="50" viewBox="0 0 50 50" fill="none" xmlns="http://www.w3.org/2000/svg">
<path d="M33.2825 9.375C33.0372 9.375 32.8125 9.57153 32.8125 9.84497V18.4326L30.8655 17.2974C30.7436 17.2255 30.6062 17.1906 30.4688 17.1906C30.3313 17.1906 30.1939 17.2255 30.072 17.2974L25.3937 20.0256C25.1499 20.1663 25 20.4265 25 20.7062V26.1688C25 26.4501 25.1499 26.7087 25.3937 26.8494L30.072 29.5776C30.1939 29.6495 30.3313 29.6844 30.4688 29.6844C30.6062 29.6844 30.7436 29.6495 30.8655 29.5776L35.5438 26.8494C35.7876 26.7087 35.9375 26.4485 35.9375 26.1688V23.4375V20.7062V11.2976C35.9375 11.0195 35.789 10.7638 35.5499 10.6232L33.5144 9.43909C33.4378 9.39534 33.3606 9.375 33.2825 9.375ZM17.9688 17.1906C17.8316 17.1906 17.6947 17.2263 17.572 17.2974L12.8937 20.0256C12.6499 20.1663 12.5 20.4265 12.5 20.7062V26.1688C12.5 26.4501 12.6499 26.7087 12.8937 26.8494L17.572 29.5776C17.8173 29.7198 18.1202 29.7198 18.3655 29.5776L23.0438 26.8494C23.2876 26.7087 23.4375 26.4485 23.4375 26.1688V20.7062C23.4375 20.4249 23.2876 20.1663 23.0438 20.0256L18.3655 17.2974C18.2428 17.2263 18.1059 17.1906 17.9688 17.1906ZM42.9688 17.1906C42.8313 17.1906 42.6939 17.2255 42.572 17.2974L37.8937 20.0256C37.6499 20.1663 37.5 20.4265 37.5 20.7062V26.1688C37.5 26.4501 37.6499 26.7087 37.8937 26.8494L42.4316 29.5929C42.6754 29.7413 42.9813 29.7427 43.2281 29.599L45.459 28.302C45.6902 28.1692 45.6918 27.8337 45.459 27.6978L40.625 24.8505V22.0459L42.9688 20.6818L45.3125 22.0459V23.999C45.3125 24.26 45.5318 24.3001 45.6787 24.2126C46.2693 23.8658 48.0499 22.8333 48.0499 22.8333C48.289 22.6942 48.4375 22.4369 48.4375 22.1588V20.7062C48.4375 20.4249 48.2876 20.1663 48.0438 20.0256L43.3655 17.2974C43.242 17.2255 43.1062 17.1906 42.9688 17.1906ZM5.46875 17.1936C5.33125 17.1936 5.1939 17.2285 5.07202 17.3004L0.393677 20.0256C0.149927 20.1678 0 20.428 0 20.7092V27.6825C0 28.0231 0.368481 28.2343 0.662231 28.064L2.73743 26.8555C2.97649 26.7148 3.125 26.4592 3.125 26.181V22.052L5.46875 20.6848L7.8125 22.052V26.181C7.8125 26.4592 7.96101 26.7148 8.20007 26.8555L10.2753 28.064C10.569 28.2358 10.9375 28.0231 10.9375 27.6825V20.7092C10.9375 20.428 10.7876 20.1678 10.5438 20.0256L5.86548 17.3004C5.7436 17.2285 5.60625 17.1936 5.46875 17.1936ZM30.4688 20.6818L32.8125 22.049V23.4375V24.826L30.4688 26.1932L28.125 24.826V22.049L30.4688 20.6818ZM42.9688 21.8811L41.629 22.6624V24.2218L42.9688 25L44.3085 24.2218V22.6624L42.9688 21.8811ZM24.0723 28.1219C23.9115 28.1219 23.749 28.1613 23.6084 28.241L19.2139 30.78C18.9248 30.9394 18.75 31.253 18.75 31.5796V36.6516C18.75 36.9782 18.9326 37.2855 19.2139 37.4512L20.3705 38.1104C20.9252 38.3838 21.1291 38.385 21.3806 38.385C22.2087 38.385 22.6807 37.8898 22.6807 37.0148V32.0038C22.6807 31.9272 22.6212 31.8726 22.5525 31.8726H21.9971C21.9205 31.8726 21.8658 31.935 21.8658 32.0038V37.0148C21.8658 37.3945 21.4646 37.7838 20.8099 37.4573L19.6075 36.7645C19.5685 36.7411 19.5404 36.6939 19.5404 36.6486V31.5765C19.5404 31.5312 19.5622 31.4779 19.6075 31.4545L24.0021 28.9215C24.049 28.8981 24.1019 28.8981 24.1394 28.9215L28.537 31.4545C28.5823 31.4779 28.6041 31.5234 28.6041 31.5765V36.6486C28.6041 36.7017 28.5745 36.7472 28.537 36.7706L24.1394 39.3127C24.1003 39.3362 24.0396 39.3362 24.0021 39.3127L22.879 38.6444C22.8493 38.6288 22.8019 38.6196 22.7722 38.6353C22.4613 38.8181 22.399 38.842 22.11 38.9404C22.0334 38.9639 21.9293 39.0108 22.1497 39.1327L23.6084 39.9994C23.7537 40.076 23.9129 40.1215 24.0723 40.1215C24.2395 40.1215 24.4019 40.0761 24.53 39.9933L28.9246 37.4512C29.2136 37.2918 29.3884 36.9782 29.3884 36.6516V31.5796C29.3884 31.253 29.2058 30.9472 28.9246 30.78L24.53 28.241C24.3933 28.1613 24.233 28.1219 24.0723 28.1219ZM30.9265 30.4626C30.4781 30.4626 30.0842 30.8252 30.0842 31.3049C30.0842 31.769 30.4625 32.1503 30.9265 32.1503C31.3906 32.1503 31.7688 31.769 31.7688 31.3049C31.7688 30.8252 31.3828 30.4548 30.9265 30.4626ZM30.9174 30.5969C31.3142 30.5969 31.6345 30.9096 31.6345 31.3049C31.6345 31.6924 31.3127 32.0127 30.9174 32.0221C30.5283 32.0221 30.2124 31.7002 30.2124 31.3049C30.2124 30.9096 30.5299 30.5969 30.9174 30.5969ZM30.6091 30.8258V31.7749H30.7892V31.3965H30.957C31.0258 31.3965 31.0421 31.4258 31.0577 31.4789C31.0577 31.4867 31.0865 31.7326 31.0944 31.778H31.2897C31.2678 31.7326 31.2517 31.6028 31.2439 31.5247C31.222 31.4028 31.2149 31.3188 31.0852 31.311C31.154 31.2876 31.2683 31.251 31.2683 31.076C31.2683 30.8245 31.0497 30.8258 30.9357 30.8258H30.6091ZM30.7892 30.9784H30.9418C30.9886 30.9784 31.0791 30.9769 31.0791 31.1066C31.0791 31.1597 31.0561 31.2455 30.9326 31.2439H30.7892V30.9784ZM25.2502 31.7535C23.9956 31.7535 23.2513 32.2883 23.2513 33.1696C23.2513 34.1352 23.9968 34.3935 25.1984 34.5154C26.6359 34.6591 26.7487 34.8658 26.7487 35.1471C26.7487 35.6408 26.3523 35.8459 25.4242 35.8459C24.2601 35.8459 24.0041 35.5574 23.9197 34.9792C23.9119 34.9183 23.8572 34.8724 23.7885 34.8724H23.2178C23.149 34.8724 23.0896 34.9271 23.0896 35.0037C23.0896 35.7412 23.4916 36.6241 25.415 36.6241C26.826 36.6226 27.6245 36.076 27.6245 35.1166C27.6245 34.1666 26.9848 33.9139 25.6317 33.7311C24.263 33.5483 24.1272 33.4563 24.1272 33.136C24.1272 32.8704 24.2393 32.5226 25.2502 32.5226C26.1549 32.5226 26.4921 32.7204 26.6296 33.3282C26.6453 33.3892 26.6877 33.4259 26.7487 33.4259H27.3193C27.3568 33.4259 27.389 33.4112 27.4109 33.3893C27.4343 33.3596 27.4492 33.3291 27.4414 33.2916C27.3508 32.2416 26.6581 31.7535 25.2502 31.7535Z" fill="black"/>
</svg>
