<svg width="50" height="50" viewBox="0 0 50 50" fill="none" xmlns="http://www.w3.org/2000/svg">
<path d="M23.958 4.1665C17.0653 4.1665 11.458 11.7394 11.458 21.0467C11.458 26.0821 13.1059 30.5978 15.7059 33.6884C15.6559 33.9103 15.6247 34.1384 15.6247 34.3748C15.6247 36.1009 17.0236 37.4998 18.7497 37.4998C20.4757 37.4998 21.8747 36.1009 21.8747 34.3748C21.8747 32.6488 20.4757 31.2498 18.7497 31.2498C18.4215 31.2498 18.1122 31.3144 17.8153 31.4082C15.8393 28.8863 14.583 25.1821 14.583 21.0467C14.583 13.4623 18.7882 7.2915 23.958 7.2915C27.9549 7.2915 31.3653 10.9863 32.7122 16.1644C33.8809 16.5248 35.0424 16.979 36.1809 17.5269C34.9778 9.904 29.957 4.1665 23.958 4.1665Z" fill="#7E57C2"/>
<path d="M36.9865 20.9207C32.875 18.429 28.2635 17.3353 24.2969 17.8384C23.724 17.129 22.8573 16.6665 21.875 16.6665C20.149 16.6665 18.75 18.0655 18.75 19.7915C18.75 21.5175 20.149 22.9165 21.875 22.9165C23.2 22.9165 24.326 22.0884 24.7802 20.9248C28.0281 20.53 31.876 21.478 35.3667 23.5946C42.0365 27.6373 45.4396 34.604 42.9521 39.1269C42.0906 40.6936 40.5708 41.8061 38.5583 42.3457C36.1771 42.9821 33.3427 42.7561 30.5094 41.7957C29.6354 42.5998 28.6875 43.3561 27.6708 44.054C30.3292 45.2175 33.0833 45.829 35.6594 45.829C36.951 45.829 38.199 45.6759 39.3667 45.3634C42.2219 44.5998 44.4094 42.9634 45.6906 40.6321C48.975 34.6623 45.0698 25.8196 36.9865 20.9207Z" fill="#7E57C2"/>
<path d="M36.4582 30.1998C36.4582 28.479 35.0592 27.0831 33.3332 27.0831C31.6071 27.0831 30.2082 28.479 30.2082 30.1998C30.2082 30.8967 30.4457 31.5342 30.8332 32.0529C29.5009 34.9717 26.9332 37.8519 23.4769 39.9467C19.4509 42.3883 14.9509 43.2821 11.4405 42.3446C9.42797 41.805 7.90818 40.6925 7.04672 39.1258C5.2738 35.9029 6.50401 31.4425 9.76547 27.68C9.42901 26.4883 9.18005 25.2425 9.03005 23.9561C3.7488 28.9529 1.62485 35.7508 4.30922 40.6321C5.59047 42.9633 7.77797 44.5998 10.6332 45.3633C11.8009 45.6758 13.0478 45.829 14.3405 45.829C17.8259 45.829 21.6394 44.7165 25.0967 42.6206C29.0926 40.1988 32.0582 36.8113 33.6478 33.2852C35.2238 33.1258 36.4582 31.8133 36.4582 30.1998Z" fill="#7E57C2"/>
</svg>
