<svg width="50" height="50" viewBox="0 0 50 50" fill="none" xmlns="http://www.w3.org/2000/svg">
<path d="M45.2732 2.32422C45.0857 2.11719 44.8162 2 44.5349 2H5.46463C5.18338 2 4.91385 2.11719 4.72635 2.32422C4.53494 2.53125 4.44119 2.80859 4.46853 3.08984L7.98806 42.5156C8.02322 42.9297 8.31228 43.2734 8.71072 43.3906L24.7224 47.9609C24.8084 47.9883 24.9021 48 24.9959 48C25.0896 48 25.1795 47.9883 25.2693 47.9609L41.2928 43.3906C41.6912 43.2734 41.9763 42.9297 42.0154 42.5156L45.531 3.08984C45.5584 2.80859 45.4646 2.53125 45.2732 2.32422ZM36.8474 15.918H18.0349L18.4842 21.0078H36.3943L35.0506 36.0508L24.992 39.0898L24.8943 39.0586L14.9529 36.0469L14.4099 29.918H19.281L19.492 32.2969L25.0506 33.4609L30.5076 32.2969L31.0896 25.8594H14.0467L12.7224 11.0547H37.281L36.8474 15.918Z" fill="black"/>
</svg>
