<svg width="50" height="50" viewBox="0 0 50 50" fill="none" xmlns="http://www.w3.org/2000/svg">
<path d="M43.958 23.021L26.9788 6.04183C26.458 5.521 25.7288 5.2085 24.9997 5.2085C24.2705 5.2085 23.5413 5.521 23.0205 6.04183L19.3747 9.68766L23.6455 13.9585C24.0622 13.7502 24.4788 13.646 24.9997 13.646C26.7705 13.646 28.1247 15.0002 28.1247 16.771C28.1247 17.2918 28.0205 17.7085 27.8122 18.1252L31.9788 22.2918C32.3955 22.0835 32.8122 21.9793 33.333 21.9793C35.1038 21.9793 36.458 23.3335 36.458 25.1043C36.458 26.8752 35.1038 28.2293 33.333 28.2293C31.5622 28.2293 30.208 26.8752 30.208 25.1043C30.208 24.5835 30.3122 24.1668 30.5205 23.7502L26.3538 19.5835C26.2497 19.5835 26.1455 19.6877 26.0413 19.6877V30.521C27.2913 30.9377 28.1247 32.0835 28.1247 33.4377C28.1247 35.2085 26.7705 36.5627 24.9997 36.5627C23.2288 36.5627 21.8747 35.2085 21.8747 33.4377C21.8747 32.0835 22.708 30.9377 23.958 30.521V19.5835C22.708 19.1668 21.8747 18.021 21.8747 16.6668C21.8747 16.146 21.9788 15.7293 22.1872 15.3127L17.9163 11.0418L6.04134 23.021C5.52051 23.5418 5.20801 24.271 5.20801 25.0002C5.20801 25.7293 5.52051 26.4585 6.04134 26.9793L23.0205 43.9585C23.5413 44.4793 24.2705 44.7918 24.9997 44.7918C25.7288 44.7918 26.458 44.4793 26.9788 43.9585L43.958 26.9793C44.4788 26.4585 44.7913 25.7293 44.7913 25.0002C44.7913 24.271 44.4788 23.5418 43.958 23.021Z" fill="#F4511E"/>
</svg>
