<svg width="50" height="50" viewBox="0 0 50 50" fill="none" xmlns="http://www.w3.org/2000/svg">
<path d="M43.7498 11.4582L49.678 9.37484L43.7498 7.2915L37.8217 9.37484L43.7498 11.4582ZM44.7915 13.1946V19.7915L49.9998 18.055V11.4582L44.7915 13.1946ZM42.7082 13.1946L37.4998 11.4582V18.055L42.7082 19.7915V13.1946ZM29.1665 11.4582L35.0946 9.37484L29.1665 7.2915L23.2384 9.37484L29.1665 11.4582ZM30.2082 13.1946V19.7915L35.4165 18.055V11.4582L30.2082 13.1946ZM28.1248 13.1946L22.9165 11.4582V18.055L28.1248 19.7915V13.1946ZM21.8748 23.9582L27.803 21.8748L21.8748 19.7915L15.9467 21.8748L21.8748 23.9582ZM22.9165 25.6946V32.2915L28.1248 30.555V23.9582L22.9165 25.6946ZM20.8332 25.6946L15.6248 23.9582V30.555L20.8332 32.2915V25.6946ZM7.2915 23.9582L13.2196 21.8748L7.2915 19.7915L1.36338 21.8748L7.2915 23.9582ZM8.33317 25.6946V32.2915L13.5415 30.555V23.9582L8.33317 25.6946ZM6.24984 25.6946L1.0415 23.9582V30.555L6.24984 32.2915V25.6946ZM14.5832 36.4582L20.5113 34.3748L14.5832 32.2915L8.65505 34.3748L14.5832 36.4582ZM15.6248 38.1946V44.7915L20.8332 43.055V36.4582L15.6248 38.1946ZM13.5415 38.1946L8.33317 36.4582V43.055L13.5415 44.7915V38.1946Z" fill="#FF8F00"/>
</svg>
