<svg width="50" height="50" viewBox="0 0 50 50" fill="none" xmlns="http://www.w3.org/2000/svg">
<path d="M6.25 43.75V6.25H43.75V43.75H6.25Z" fill="#FFD600"/>
<path d="M30.7686 34.3196C31.4894 35.4905 32.2727 36.6123 33.9321 36.6123C35.3258 36.6123 36.0571 35.9196 36.0571 34.9613C36.0571 33.8144 35.3008 33.4071 33.7675 32.7394L32.9269 32.3811C30.5008 31.3519 28.8873 30.0623 28.8873 27.3384C28.8873 24.828 30.8092 22.9175 33.8123 22.9175C35.9508 22.9175 37.4873 23.6582 38.5956 25.5978L35.9769 27.2717C35.4008 26.2425 34.7779 25.8373 33.8123 25.8373C32.8269 25.8373 32.2029 26.4592 32.2029 27.2717C32.2029 28.2759 32.8279 28.6821 34.2706 29.304L35.1113 29.6623C37.9706 30.88 39.5831 32.1238 39.5831 34.9196C39.5831 37.9321 37.204 39.5832 34.0102 39.5832C30.8863 39.5832 29.1123 38.0155 28.1248 36.0748L30.7686 34.3196ZM18.6998 34.405C19.2269 35.3488 20.0279 36.0748 21.18 36.0748C22.2821 36.0748 22.9165 35.6394 22.9165 33.9467V22.9165H26.3883V34.48C26.3883 37.9873 24.354 39.5832 21.3831 39.5832C18.6988 39.5832 16.7613 37.7644 15.9717 36.0748L18.6998 34.405Z" fill="#000001"/>
</svg>
