<svg width="50" height="50" viewBox="0 0 50 50" fill="none" xmlns="http://www.w3.org/2000/svg">
<path d="M25.0003 4.1665C13.5128 4.1665 4.16699 13.5123 4.16699 24.9998C4.16699 36.4873 13.5128 45.8332 25.0003 45.8332C36.4878 45.8332 45.8337 36.4873 45.8337 24.9998C45.8337 13.5123 36.4878 4.1665 25.0003 4.1665ZM25.0003 7.2915C34.7649 7.2915 42.7087 15.2353 42.7087 24.9998C42.7087 31.0957 39.6125 36.4791 34.9104 39.6666L20.5651 18.3958C20.1828 17.826 19.4665 17.5774 18.8134 17.7753C18.1571 17.9774 17.7087 18.5842 17.7087 19.2707V32.8123C17.7087 33.6748 18.4087 34.3748 19.2712 34.3748C20.1337 34.3748 20.8337 33.6748 20.8337 32.8123V24.3813L32.1638 41.1803C29.9701 42.1542 27.5503 42.7082 25.0003 42.7082C15.2357 42.7082 7.29199 34.7644 7.29199 24.9998C7.29199 15.2353 15.2357 7.2915 25.0003 7.2915ZM30.7295 15.6248C29.867 15.6248 29.167 16.3248 29.167 17.1873V26.0273L32.292 30.5093V17.1873C32.292 16.3248 31.592 15.6248 30.7295 15.6248Z" fill="black"/>
</svg>
