<svg width="50" height="50" viewBox="0 0 50 50" fill="none" xmlns="http://www.w3.org/2000/svg">
<path d="M40 2H12C9.24219 2 7 4.24219 7 7V43C7 45.7578 9.24219 48 12 48H40C42.7578 48 45 45.7578 45 43V7C45 4.24219 42.7578 2 40 2ZM16.5586 40.9141V30.9648L21.5352 35.9414L16.5586 40.9141ZM35.2617 40.9453H30.4961V23.4727C30.4961 23.4727 31.6328 19.2891 16.4961 25.1836C16.4687 25.2578 16.4688 9.02344 16.4688 9.02344L21.4141 8.99609V19.3945C21.4141 19.3945 35.2617 13.9414 35.2617 23.5312V40.9453ZM33.3125 15.2891H28.0664C29.957 12.9805 31.6641 9.02344 31.6641 9.02344H37.0898C37.0898 9.02344 36.1602 11.6016 33.3125 15.2891Z" fill="black"/>
</svg>
