<svg width="50" height="50" viewBox="0 0 50 50" fill="none" xmlns="http://www.w3.org/2000/svg">
<path d="M35.1988 2.10156C33.6988 2.10156 32.398 2.39844 31.1988 2.69922C33.3003 3.59766 34.6011 4.69922 35.3003 5.19922C36.9019 6.59766 37.8003 8 39.4019 10.3008C39.6988 10.8008 40.1988 11.5 40.4995 12.5977C40.8003 13.5977 40.8003 14.3984 40.8003 15.1992C40.8003 16.3008 40.6988 17.1992 40.5972 18.0977C40.4995 18.8008 40.4995 19.1016 40.4019 19.3008C40.4019 19.4023 40.4019 19.5 40.3003 19.6992C40.3003 20.1992 40.3003 20.4023 40.4019 20.8008C40.4019 21.1992 40.4995 21.6016 40.4995 22.3008C40.6011 23.6016 40.6011 24.5 40.4019 25.5977V26C40.1988 26.8984 39.9995 27.8008 39.4995 28.5977C39.6011 28.8008 39.6988 28.8984 39.8003 29.0977C40.3003 28.3984 40.6988 27.6992 41.0972 26.9023C42.3003 24.6992 42.9995 22.8008 43.4995 21.4023C44.398 18.8008 44.898 16.8984 45.1988 15.5C45.898 12.5 45.9995 11.1016 45.6988 9.5C45.6988 9 45.4995 8.09766 44.9995 7.19922C43.898 5.19922 42.1988 4.30078 40.9995 3.69922C40.1988 3.30078 38.0972 2.19922 35.1988 2.10156ZM13.5347 2.54297C12.3823 2.51953 10.9761 2.64844 9.39797 3.39844C8.89797 3.60156 7.39797 4.30078 6.19876 5.89844C5.39797 6.89844 4.80032 8.39844 4.49954 10.0977C4.19876 11.5977 4.09719 13.4023 4.69876 16.8008C5.09719 19.1992 5.49954 20.8008 6.30032 24.0977C6.40188 24.5 6.99954 26.3008 8.30032 30.3008L8.39797 30.5C8.6011 31.1992 9.19876 32.6992 10.4995 34.1992C11.398 35.1992 12.1988 35.8008 12.9019 35.8008H13.0972C14.398 35.8008 15.3003 34.8008 16.0972 34C16.0972 33.8984 17.9995 31.6016 18.6988 30.8008C18.5972 30.6992 18.4019 30.6992 18.3003 30.5977C17.1011 29.8984 16.1988 28.8008 15.4995 27.5977C14.3003 25.3984 14.398 23.1992 14.5972 22.0977L14.6988 20.4023C14.3003 17.6992 14.4019 15.1016 14.9019 12.5C15.3003 10.3008 15.8003 8.10156 17.5972 5.80078C18.1988 5 18.898 4.30078 19.5972 3.80078C17.9995 3.10156 16.3003 2.69922 14.5972 2.60156C14.273 2.57422 13.9175 2.55078 13.5347 2.54297ZM26.0972 3.39844C25.5972 3.39844 25.0972 3.39844 24.5972 3.5C22.5972 3.89844 20.6988 5 19.1988 6.89844C17.6988 8.80078 17.3003 10.5977 16.9019 12.6992C16.6988 13.5 16.6988 14.1992 16.5972 15C17.1988 14.5 17.9995 13.8984 19.1988 13.5977C19.898 13.3984 21.6988 12.8008 23.1988 13.6992C23.6988 14 24.398 14.6016 25.0972 16.3008C26.5972 20.5 25.1011 24.8008 24.9019 25.1992C24.8003 25.5977 24.6011 25.8984 24.4995 26.0977C24.3003 26.5977 24.1011 27 23.9019 27.8008C23.8003 28.5 23.6988 29.1016 23.6988 29.8008C23.9995 29.8008 24.3003 29.8984 24.5972 30.0977C25.0972 30.5977 25.1988 31.3008 25.3003 31.5977C25.4995 33.1992 25.4995 35.1992 25.4995 37.1992C25.4995 38.8008 25.4995 40.3008 25.5972 41.3008C25.8003 43.6016 26.4995 45.1992 27.4995 46C28.1988 46.6016 29.0972 46.5977 29.5972 46.6992H29.8003C31.3003 46.6992 33.6988 45.6992 34.5972 44.3008C35.0972 43.5 35.3003 42.8008 35.4995 41.8008C35.6011 41.1992 35.5972 40.9023 35.6988 40.3008C35.6988 40 35.8003 39.5 35.8003 38.9023C35.8003 38.4023 35.898 37.8008 35.9995 37.0977C36.1011 35.3984 36.398 33.4023 36.4995 32.3008C36.6011 31 37.1988 29.8984 37.6988 29.1992C36.9995 29.0977 36.3003 28.5 35.9019 27.5C35.3003 26.3984 35.1988 26.0977 35.0972 25.5977C34.9995 25.1992 34.8003 24.6992 34.0972 23.1992C32.5972 19.8008 32.4019 18.8008 32.4019 18C32.3003 16.8984 32.1988 15.4023 33.4019 14.4023C35.1988 12.8008 37.4995 12.9023 38.6988 13.3008V13.0977C38.4995 12.3008 38.1011 11.6992 37.8003 11.3008C36.3003 9 35.4995 7.80078 34.0972 6.60156C33.4995 6.10156 31.9995 4.89844 29.8003 4.10156C28.8003 3.80078 27.5972 3.39844 26.0972 3.39844ZM37.1519 15.125C36.4253 15.0742 35.4995 15.1992 34.6988 15.9023C34.3003 16.3008 34.3003 17.1016 34.4019 17.8008C34.4019 18.3008 34.4995 19 35.9995 22.4023C36.6988 24 36.898 24.5 36.9995 24.9023C37.1011 25.3008 37.1988 25.5 37.8003 26.5977C37.9019 26.8008 37.9995 27 38.1988 27.1992C38.398 26.8984 38.4995 26.3984 38.5972 25.5977L38.6988 25.3008C38.898 24.4023 38.8003 23.6992 38.8003 22.5C38.8003 21.8984 38.6988 21.5 38.6988 21.1992C38.5972 20.6992 38.5972 20.3008 38.5972 19.6992C38.398 19.3984 38.398 19.3008 38.4995 19.0977C38.4995 18.8984 38.5972 18.6016 38.6988 18C38.8003 17.1992 38.9019 16.5 38.9019 15.6992C38.6988 15.5977 38.6011 15.5 38.4019 15.4023C38.4019 15.4023 37.8745 15.1758 37.1519 15.125ZM21.5152 15.5195C20.8784 15.4453 20.148 15.6523 19.6988 15.8008C18.5972 16.1016 17.9019 16.8008 17.4019 17.1992C17.1011 17.5 16.8003 17.8008 16.4995 18.1992C16.4995 18.8984 16.5972 19.6016 16.6988 20.3008V20.4023L16.4995 22.4023C16.3003 23.3008 16.1988 25 17.1988 26.6992C17.6988 27.6992 18.4019 28.5 19.3003 29C19.9019 29.3984 20.6988 29.6992 21.5972 29.9023C21.5972 29.1992 21.6988 28.3984 21.8003 27.6992C21.9995 26.6992 22.1988 26.1992 22.4995 25.5977C22.6011 25.3008 22.6988 25.1016 22.9019 24.8008C22.9995 24.5 24.398 20.6992 23.0972 17.1992C22.8003 16.3984 22.4995 15.8984 22.0972 15.6992C21.9253 15.5977 21.7222 15.543 21.5152 15.5195ZM36.187 16.0898C36.4488 16.0742 36.6988 16.0977 36.8003 16.1992C37.1011 16.3984 36.6988 16.8984 36.5972 17C36.4995 17.1016 36.3003 17.3008 35.9995 17.4023C35.6011 17.5 35.3003 17.1992 35.1988 17.1992C35.0972 17.0977 34.8003 16.8008 34.9019 16.5C34.9995 16.3008 35.1011 16.3008 35.4995 16.1992C35.648 16.1484 35.9253 16.1016 36.187 16.0898ZM21.1558 16.918C21.4917 16.8945 21.773 17.0234 21.9995 17.0977C22.3003 17.1992 22.5972 17.3008 22.5972 17.5C22.6988 17.8008 22.4019 18 22.3003 18.0977C21.9995 18.3984 21.4995 18.4023 21.4995 18.4023C20.9995 18.4023 20.6988 18.1016 20.4995 17.8008C20.398 17.6992 20.3003 17.5 20.4019 17.3008C20.4995 17.1016 20.6988 17 20.8003 17C20.9253 16.9492 21.0425 16.9258 21.1558 16.918ZM39.4995 30C38.9995 30.6992 38.3003 31.6016 38.1988 32.8008C38.1988 33 38.1988 33.1016 38.0972 33.3008C38.898 33.5 39.6011 33.5 40.3003 33.4023C41.9019 33.1992 42.9995 32.3984 43.1988 32.1992C43.898 31.6992 44.8003 30.6992 44.5972 30.3008C44.4995 30.1016 44.1988 30.1992 42.5972 30.3008C42.1988 30.3008 40.9995 30.6016 40.1988 30.4023H39.9995C39.8003 30.3008 39.6011 30.1992 39.4995 30ZM22.0972 32C21.898 32.3008 21.6011 32.5 21.4019 32.6992C20.6011 33.1992 19.5972 33.6016 18.5972 33.8008C17.6988 34.1016 17.1988 34.1016 17.1988 34.4023C17.0972 34.8008 18.0972 35.3008 18.5972 35.5C20.3003 36.1992 21.9995 35.8008 22.3003 35.6992C22.4995 35.5977 22.9995 35.3984 23.4995 35.0977C23.4995 34 23.4019 33 23.3003 32.1992V32.0977H23.1988C22.898 32.0977 22.4995 32.1016 22.0972 32Z" fill="black"/>
</svg>
