<svg width="50" height="50" viewBox="0 0 50 50" fill="none" xmlns="http://www.w3.org/2000/svg">
<path d="M42.7087 5.2085H7.29199L10.417 40.6252L25.0003 44.7918L39.5837 40.6252L42.7087 5.2085Z" fill="#0277BD"/>
<path d="M25 8.3335V41.5627L36.6667 38.2293L39.2708 8.3335H25Z" fill="#039BE5"/>
<path d="M34.4792 13.5415H25V17.7082H30.1042L29.7917 21.8748H25V26.0415H29.5833L29.2708 30.729L25 32.1873V36.5623L33.2292 33.854L33.9583 21.8748L34.4792 13.5415Z" fill="white"/>
<path d="M25.0003 13.5415V17.7082H15.7295L15.417 13.5415H25.0003ZM20.2087 21.8748L20.417 26.0415H25.0003V21.8748H20.2087ZM20.6253 28.1248H16.4587L16.7712 33.854L25.0003 36.5623V32.1873L20.7295 30.729L20.6253 28.1248Z" fill="#EEEEEE"/>
</svg>
