<svg width="50" height="50" viewBox="0 0 50 50" fill="none" xmlns="http://www.w3.org/2000/svg">
<path d="M7.854 11.705C7.771 9.257 9.628 7 12.139 7H37.865C40.376 7 42.233 9.257 42.15 11.705C42.07 14.056 42.174 17.102 42.92 19.585C43.669 22.076 44.932 23.651 47 23.853V26.147C44.932 26.349 43.669 27.924 42.92 30.415C42.173 32.898 42.07 35.944 42.15 38.295C42.232 40.743 40.375 43 37.864 43H12.139C9.628 43 7.771 40.743 7.854 38.295C7.934 35.944 7.83 32.898 7.083 30.415C6.335 27.924 5.069 26.349 3 26.147V23.853C5.068 23.651 6.335 22.076 7.083 19.585C7.83 17.102 7.934 14.056 7.854 11.705Z" fill="black"/>
<path d="M27.7902 24.4508V24.4218C29.7012 24.0918 31.1922 22.3008 31.1922 20.3278C31.1922 18.9328 30.6562 17.7518 29.6412 16.9118C28.6302 16.0748 27.2102 15.6318 25.5362 15.6318H17.8672V34.3658H25.5762C27.5792 34.3658 29.2422 33.8768 30.3842 32.9508C31.5282 32.0238 32.1332 30.6748 32.1332 29.0498C32.1332 26.5958 30.3892 24.7518 27.7902 24.4508ZM24.1992 23.5678H20.9192V18.0838H24.8222C26.9632 18.0838 28.1422 19.0228 28.1422 20.7288C28.1412 22.5598 26.7412 23.5678 24.1992 23.5678ZM20.9192 25.8638H24.7952C27.5952 25.8638 29.0152 26.8758 29.0152 28.8708C29.0152 30.8638 27.6152 31.9168 24.9672 31.9168H20.9192V25.8638Z" fill="white"/>
</svg>
