<svg width="50" height="50" viewBox="0 0 50 50" fill="none" xmlns="http://www.w3.org/2000/svg">
<path d="M35.4453 2.01183C35.0568 2.02545 34.6693 2.1267 34.3223 2.3087C35.2273 2.7567 35.8657 3.64152 35.9707 4.69152C35.9887 4.81752 36 4.93239 36 4.98839V44.9884C36 46.1744 35.3066 47.1908 34.3086 47.6778C34.6726 47.8768 35.079 47.9884 35.5 47.9884C35.873 47.9884 36.225 47.902 36.543 47.756L36.5449 47.7599C38.1529 46.9279 46.1923 42.7648 46.4883 42.5958C47.4213 42.0608 48 41.0614 48 39.9884V9.98839C48 8.99039 47.5057 8.06202 46.6777 7.50402C46.3577 7.28702 36.582 2.23644 36.582 2.23644L36.5801 2.24034C36.2241 2.07284 35.8338 1.9982 35.4453 2.01183ZM33 3.98839C32.7441 3.98839 32.488 4.08586 32.293 4.28136C32.293 4.28136 26.5685 10.719 20.2305 17.84L27.7246 23.9708L34 18.6857V4.98839C34 4.73239 33.902 4.47636 33.707 4.28136C33.5115 4.08586 33.2559 3.98839 33 3.98839ZM8 10.9884C7.844 10.9884 7.55386 10.989 6.25586 11.59C5.54086 11.921 3.05078 13.2286 3.05078 13.2286C2.72078 13.4076 2.45458 13.6878 2.26758 14.0118C2.34358 13.9998 2.41905 13.9884 2.49805 13.9884H2.5C3.168 13.9884 3.57766 14.4546 3.72266 14.6056C3.72266 14.6056 31.93 45.3324 32.293 45.6954C32.488 45.8904 32.742 45.9884 32.998 45.9884C33.254 45.9884 33.5101 45.8904 33.7051 45.6954C33.9001 45.5004 34 45.2444 34 44.9884V31.6583C34 31.6583 9.53375 11.6619 9.34375 11.5079C8.97575 11.1739 8.497 10.9884 8 10.9884ZM2.19922 15.9884C2.08922 15.9884 2 16.0786 2 16.1896V34.795C2 34.902 2.08731 34.9903 2.19531 34.9903C2.25131 34.9903 2.30094 34.9649 2.33594 34.9259L8 28.6388V22.0079L2.3418 16.047C2.3058 16.011 2.25422 15.9884 2.19922 15.9884ZM12.2539 26.8028C12.2539 26.8028 3.65855 36.4529 3.56055 36.5509C3.28955 36.8219 2.915 36.9884 2.5 36.9884C2.422 36.9884 2.34648 36.9789 2.27148 36.9669C2.47348 37.3179 2.76972 37.6073 3.13672 37.7853L3.13281 37.7911C4.00281 38.2331 6.87395 39.6918 7.25195 39.8458C7.48995 39.9408 7.741 39.9884 8 39.9884C8.347 39.9884 8.69005 39.8988 8.99805 39.7228C9.02105 39.7098 17.5273 32.5528 17.5273 32.5528L12.2539 26.8028Z" fill="black"/>
</svg>
