<svg width="50" height="50" viewBox="0 0 50 50" fill="none" xmlns="http://www.w3.org/2000/svg">
<path d="M8.33301 38.5419L24.2018 8.78771C24.5361 8.16062 25.4403 8.17208 25.758 8.80854L31.2497 19.7919L8.33301 38.5419Z" fill="#FF8F00"/>
<path d="M8.33301 38.5331L14.1101 2.90918C14.2611 1.97688 15.5132 1.7748 15.9507 2.6123L27.083 23.9498L8.33301 38.5331Z" fill="#FFA000"/>
<path d="M8.3418 38.5271L8.55013 38.3636L26.8095 23.425L21.6595 13.5542L8.3418 38.5271Z" fill="#FF6F00"/>
<path d="M8.33301 38.5417L36.1101 11.7573C36.6924 11.1959 37.6643 11.5271 37.783 12.3271L41.6663 38.5417L26.0413 47.649C25.407 48.0052 24.633 48.0052 23.9986 47.649L8.33301 38.5417Z" fill="#FFC400"/>
</svg>
