<svg width="50" height="50" viewBox="0 0 50 50" fill="none" xmlns="http://www.w3.org/2000/svg">
<path d="M24.0004 2C16.8324 2 11.0004 10.2923 11.0004 20.4863C11.0004 25.7525 12.5653 30.4946 15.0609 33.8594C14.9669 34.3645 14.9852 34.8841 15.1146 35.3813C15.2439 35.8785 15.4812 36.3412 15.8095 36.7364C16.1378 37.1316 16.549 37.4497 17.0141 37.6681C17.4792 37.8865 17.9866 37.9998 18.5004 38C19.4286 38 20.3189 37.6312 20.9752 36.9749C21.6316 36.3185 22.0004 35.4283 22.0004 34.5C22.0004 33.5717 21.6316 32.6815 20.9752 32.0251C20.3189 31.3688 19.4286 31 18.5004 31C18.3098 31.0014 18.1198 31.0184 17.932 31.0508C16.1439 28.3872 15.0004 24.6115 15.0004 20.4863C15.0004 12.6333 19.1224 6 24.0004 6C28.1194 6 31.6895 10.7375 32.7035 16.9375C34.1255 17.3455 35.5421 17.8975 36.9301 18.5645C36.2521 9.27045 30.7124 2 24.0004 2ZM22.5004 17C21.5721 17 20.6819 17.3687 20.0255 18.0251C19.3691 18.6815 19.0004 19.5717 19.0004 20.5C19.0004 21.4283 19.3691 22.3185 20.0255 22.9749C20.6819 23.6313 21.5721 24 22.5004 24C23.1546 23.9997 23.7957 23.8159 24.3508 23.4697C24.906 23.1234 25.3529 22.6285 25.641 22.041C28.8907 21.8375 32.6465 22.8401 36.1137 24.918C42.9737 29.031 46.7042 36.223 44.2582 40.623C43.4542 42.069 42.0057 43.109 40.0687 43.627C37.2797 44.373 33.8596 43.9937 30.4906 42.6387C29.4216 43.6327 28.2463 44.5658 26.9633 45.4238C30.2913 47.1048 33.8109 47.9961 37.0629 47.9961C38.4729 47.9961 39.8339 47.8302 41.1039 47.4902C44.1109 46.6852 46.4113 44.9824 47.7543 42.5664C51.3383 36.1174 47.1283 26.8583 38.1703 21.4883C33.9078 18.9319 29.1859 17.7538 25.0355 18.0938C24.7092 17.7491 24.3162 17.4744 23.8804 17.2863C23.4445 17.0983 22.975 17.0009 22.5004 17ZM9.16052 23.3242C2.07952 28.7952 -0.957585 36.7994 2.24842 42.5664C3.59142 44.9824 5.89181 46.6852 8.89881 47.4902C10.1698 47.8302 11.5278 47.9961 12.9398 47.9961C16.7398 47.9961 20.9104 46.7897 24.7074 44.5137C28.9552 41.967 32.0961 38.5437 33.8773 34.9629C35.6284 34.7721 37.0004 33.301 37.0004 31.5C37.0004 29.57 35.4304 28 33.5004 28C31.5704 28 30.0004 29.57 30.0004 31.5C30.0004 32.0402 30.1325 32.5466 30.3519 33.0039C28.908 35.9787 26.2138 38.9454 22.6508 41.082C18.3548 43.658 13.6 44.61 9.93201 43.627C7.99601 43.109 6.54851 42.069 5.74451 40.623C3.81051 37.143 5.74667 31.9235 10.0297 27.8555C9.61866 26.4155 9.32452 24.8992 9.16052 23.3242Z" fill="black"/>
</svg>
