<svg width="50" height="50" viewBox="0 0 50 50" fill="none" xmlns="http://www.w3.org/2000/svg">
<g clip-path="url(#clip0_5_256)">
<path d="M24.8437 0.135742L26.1781 2.64199C26.4781 3.10449 26.8031 3.51387 27.1859 3.89512C28.3031 5.0123 29.3641 6.18262 30.3172 7.43574C32.5781 10.4045 34.1031 13.7014 35.1922 17.267C35.8453 19.4451 36.2 21.6795 36.2266 23.9389C36.3359 30.6936 34.0203 36.4936 29.3516 41.3139C28.5891 42.0764 27.7734 42.7826 26.8984 43.4107C26.4359 43.4107 26.2172 43.0561 26.0266 42.7295C25.6719 42.1311 25.4547 41.4482 25.3453 40.7686C25.1812 39.9514 25.0734 39.1342 25.1266 38.2904V37.9092C25.0891 37.8279 24.6812 0.32793 24.8437 0.135742Z" fill="#599636"/>
<path d="M24.8441 0.0532664C24.7894 -0.0561086 24.7347 0.0267039 24.68 0.0798289C24.7066 0.626704 24.5159 1.1142 24.2175 1.57983C23.8894 2.04233 23.455 2.39702 23.0191 2.77827C20.5972 4.87514 18.6909 7.40795 17.1644 10.2408C15.1331 14.0533 14.0863 18.1392 13.7894 22.4408C13.6534 23.9923 14.28 29.4673 14.7691 31.047C16.1034 35.2408 18.5003 38.7548 21.605 41.8048C22.3675 42.5392 23.1831 43.2205 24.0269 43.8751C24.2722 43.8751 24.2988 43.6564 24.355 43.4939C24.4626 43.1462 24.5445 42.7911 24.6003 42.4314L25.1472 38.347L24.8441 0.0532664Z" fill="#6CAC48"/>
<path d="M26.1779 45.0705C26.2326 44.4455 26.5326 43.9268 26.8592 43.4096C26.5311 43.2736 26.2873 43.0033 26.0967 42.7018C25.9326 42.4299 25.7967 42.1033 25.6904 41.8033C25.3092 40.6596 25.2279 39.4596 25.1186 38.2908V37.583C24.9826 37.6924 24.9545 38.6174 24.9545 38.7549C24.875 39.9902 24.7111 41.2185 24.4639 42.4314C24.3826 42.9221 24.3279 43.4111 24.0264 43.8471C24.0264 43.9018 24.0264 43.9564 24.0529 44.0377C24.5436 45.4814 24.6779 46.9518 24.7607 48.4502V48.9971C24.7607 49.6502 24.7342 49.5127 25.2764 49.7314C25.4951 49.8127 25.7389 49.8408 25.9576 50.0033C26.1217 50.0033 26.1482 49.8674 26.1482 49.758L26.067 48.8596V46.3533C26.0404 45.9158 26.1217 45.4814 26.1764 45.0721L26.1779 45.0705Z" fill="#C2BFBF"/>
</g>
<defs>
<clipPath id="clip0_5_256">
<rect width="50" height="50" fill="white"/>
</clipPath>
</defs>
</svg>
