<svg width="50" height="50" viewBox="0 0 50 50" fill="none" xmlns="http://www.w3.org/2000/svg">
<path d="M35.7907 19.8327C33.1625 8.24365 26.9532 4.44365 26.286 2.9874C25.5532 1.95459 24.7641 0.00146484 24.7641 0.00146484C24.7563 0.0420898 24.7563 0.0670898 24.7485 0.107715V0.132715C24.7485 0.165527 24.7407 0.181152 24.7407 0.213965V0.246777H24.7329C24.7329 0.262402 24.7329 0.27959 24.7329 0.295215V0.351465H24.725C24.725 0.36709 24.725 0.39209 24.7172 0.399902V0.44834C24.7172 0.463965 24.7172 0.481152 24.7094 0.488965V0.52959C24.7094 0.55459 24.7094 0.578027 24.7016 0.595215V0.603027C24.7016 0.63584 24.6938 0.676465 24.686 0.709277V0.724902C24.6782 0.732715 24.6782 0.740527 24.6782 0.749902V0.782715H24.6704V0.831152H24.6625V0.863965H24.6469V0.912402H24.6391V0.953027H24.6313V0.98584H24.6235V1.01865H24.6157V1.05146H24.6079V1.08428H24.6V1.10928H24.5922V1.14209H24.5844V1.1499V1.1749H24.5766C24.5688 1.1749 24.5688 1.18271 24.5688 1.18271V1.19834L24.561 1.21396C24.561 1.22959 24.5532 1.24678 24.5454 1.2624C24.5375 1.27021 24.5375 1.27021 24.5375 1.27803V1.29365H24.5297V1.30928H24.5141V1.3499H24.4985V1.3749H24.4907V1.38271H24.4829V1.39834H24.475V1.42334H24.4672V1.43896H24.4516V1.46396H24.4438V1.47959H24.436V1.49521H24.4282V1.52021H24.4204V1.53584H24.4125V1.54365H24.4047V1.55928H24.3891V1.58428H24.3813V1.59209H24.3735V1.60771H24.3657V1.63271H24.3579V1.64053H24.35V1.65615H24.3422V1.66396H24.3344V1.68896H24.3188V1.69678H24.311V1.7124H24.3032V1.72021H24.2954V1.73584H24.2875C24.2875 1.74365 24.2875 1.74365 24.2875 1.74365V1.75146C24.2797 1.75146 24.2797 1.75928 24.2797 1.75928V1.76709H24.2719C24.2641 1.78271 24.2563 1.79209 24.2469 1.80771C24.2469 1.80771 24.2313 1.82334 24.2313 1.83271C24.2235 1.83271 24.2235 1.84053 24.2235 1.84053V1.84834H24.2157V1.85615H24.2079C24.2079 1.85615 24.2079 1.85615 24.2079 1.86396V1.87178H24.1922V1.87959H24.1844V1.8874H24.1766V1.89521V1.91084H24.1688V1.91865H24.161V1.92646H24.1532V1.94209H24.1454V1.92646H24.1297V1.93428H24.1219V1.9499H24.1141V1.96553H24.1063V1.97334H24.0985V1.98115H24.0907V1.98896H24.0829V2.00459H24.0672V2.0124H24.0594V2.02803H24.0516V2.03584H24.0438V2.04365H24.036V2.06865H24.0282V2.07646H24.0204V2.08428H24.0125V2.09209H24.0047V2.0999H23.9891V2.11553H23.9813V2.12334H23.9735V2.13115H23.9657V2.14678H23.9579V2.15459H23.9422V2.1624H23.9344V2.17021H23.9266V2.18584H23.9188V2.20146H23.911V2.20928H23.9032V2.21709H23.8875V2.2249H23.8797V2.23271H23.8719V2.24834H23.8641V2.25615H23.8563V2.27178H23.8485V2.27959H23.8407V2.2874H23.8329V2.29521H23.825V2.30303H23.8094V2.31084C23.8016 2.31084 23.8016 2.31865 23.8016 2.31865L23.7938 2.32646L23.786 2.33428V2.3499H23.7782V2.35771H23.7704V2.36553H23.7625V2.37334H23.7547L23.7391 2.38896V2.39678C23.7235 2.40459 23.7235 2.4124 23.7063 2.42959C23.7063 2.42959 23.6907 2.44521 23.6813 2.44521C23.6563 2.46084 23.625 2.49365 23.6 2.51865C23.5844 2.52646 23.5672 2.54365 23.5516 2.55146C23.5188 2.58428 23.486 2.60771 23.4532 2.63271C23.4047 2.68115 23.3547 2.71396 23.2985 2.7624H23.2907C23.1766 2.86084 23.0469 2.97334 22.9079 3.09678H22.9C22.55 3.40615 22.1344 3.80459 21.6625 4.27646L21.6219 4.31709C18.7891 7.24678 14.3219 13.3577 13.8579 23.2296C13.8094 24.0437 13.8172 24.8405 13.8657 25.614V25.6296C14.0938 29.5202 15.3141 32.8405 16.8438 35.5421C17.4454 36.6171 18.1047 37.5937 18.7719 38.4718C21.0672 41.4999 23.411 43.2983 24.0047 43.7374C24.925 45.8608 24.8422 49.5233 24.8422 49.5233L26.1844 49.9702C26.1844 49.9702 25.9079 46.4296 26.2907 44.7124C26.4125 44.1827 26.6891 43.728 27.0157 43.3374C27.2438 43.1827 27.8954 42.7108 28.6766 41.9952C28.7172 41.9546 28.7422 41.9218 28.775 41.8812C31.9407 38.9265 37.8579 31.6515 35.8313 19.803L35.7907 19.8327Z" fill="black"/>
</svg>
