<svg width="50" height="50" viewBox="0 0 50 50" fill="none" xmlns="http://www.w3.org/2000/svg">
<g clip-path="url(#clip0_5_262)">
<path d="M36.2367 17.3513L36.2184 17.3435C36.2079 17.3396 36.1975 17.3357 36.1883 17.3265C36.158 17.294 36.1445 17.2492 36.1518 17.2053L37.1609 11.0425L41.8932 15.7708L36.9716 17.8625C36.9579 17.868 36.9433 17.8706 36.9285 17.8703H36.909C36.9024 17.8664 36.8959 17.8612 36.8828 17.8481C36.6997 17.6444 36.4807 17.476 36.2367 17.3513ZM43.1007 16.9757L48.1606 22.0301C49.2115 23.0811 49.7376 23.6054 49.9295 24.213C49.9582 24.303 49.9817 24.393 50 24.4856L37.9076 19.3699C37.9011 19.3672 37.8946 19.3646 37.888 19.3621C37.8397 19.3425 37.7836 19.3204 37.7836 19.2708C37.7836 19.2213 37.841 19.1978 37.8893 19.1782L37.905 19.1717L43.1007 16.9757ZM49.7937 26.1078C49.5326 26.5981 49.0235 27.1066 48.1619 27.9686L42.4571 33.6658L35.0787 32.131L35.0396 32.1232C34.9743 32.1127 34.9051 32.101 34.9051 32.0423C34.8484 31.4277 34.5387 30.8643 34.05 30.4866C34.02 30.4566 34.0278 30.4097 34.037 30.3667C34.037 30.3602 34.037 30.3536 34.0396 30.3484L35.4273 21.8384L35.4325 21.8097C35.4403 21.7445 35.4521 21.6689 35.5108 21.6689C36.1115 21.5942 36.6571 21.2818 37.0251 20.8017C37.0369 20.7887 37.0447 20.7743 37.0604 20.7665C37.1022 20.747 37.1518 20.7665 37.1949 20.7848L49.7924 26.1078H49.7937ZM41.1451 34.9764L31.7642 44.347L33.3699 34.4887L33.3725 34.4756C33.3738 34.4626 33.3764 34.4495 33.3803 34.4378C33.3934 34.4065 33.4273 34.3935 33.46 34.3804L33.4756 34.3739C33.8272 34.2241 34.1382 33.993 34.3829 33.6997C34.4142 33.6632 34.4521 33.628 34.5004 33.6215C34.5129 33.6194 34.5257 33.6194 34.5383 33.6215L41.1438 34.9777L41.1451 34.9764ZM29.7786 46.3304L28.7212 47.3867L17.0309 30.5101C17.0267 30.5039 17.0223 30.4979 17.0178 30.4919C16.9996 30.4671 16.98 30.4423 16.9839 30.4136C16.9852 30.3928 16.9983 30.3745 17.0126 30.3588L17.0257 30.3419C17.0609 30.2897 17.0909 30.2376 17.1236 30.1815L17.1497 30.1359L17.1536 30.1319C17.1719 30.1007 17.1888 30.0707 17.2202 30.0537C17.2476 30.0407 17.2854 30.0459 17.3155 30.0524L30.2668 32.7204C30.303 32.726 30.3372 32.7409 30.366 32.7634C30.383 32.7804 30.3869 32.7987 30.3909 32.8195C30.574 33.5116 31.0704 34.0785 31.7329 34.3517C31.7694 34.37 31.7537 34.4104 31.7368 34.4535C31.7283 34.4723 31.7217 34.492 31.7172 34.5121C31.554 35.5032 30.1546 44.0288 29.7786 46.3304ZM27.5698 48.5355C26.7904 49.3062 26.3309 49.7143 25.8113 49.8786C25.299 50.0405 24.7493 50.0405 24.237 49.8786C23.6286 49.6856 23.1025 49.1614 22.0516 48.1104L10.3117 36.3834L13.3782 31.6329C13.3926 31.6094 13.407 31.5885 13.4305 31.5716C13.4631 31.5481 13.5101 31.5585 13.5493 31.5716C14.2531 31.7837 15.0088 31.7454 15.6876 31.4633C15.7228 31.4503 15.7581 31.4412 15.7855 31.466C15.7992 31.4785 15.8115 31.4925 15.822 31.5077L27.5698 48.5368V48.5355ZM9.17992 35.2528L6.48678 32.5626L11.8052 30.2963C11.8188 30.2903 11.8334 30.2872 11.8483 30.2871C11.8926 30.2871 11.9187 30.3315 11.9422 30.3719C11.9957 30.454 12.0523 30.5341 12.112 30.6118L12.1289 30.6327C12.1446 30.6549 12.1341 30.677 12.1185 30.6979L9.18122 35.2528H9.17992ZM5.2949 31.3721L1.88768 27.9686C1.30806 27.3896 0.887705 26.9697 0.595285 26.6085L10.9553 28.7549C10.9683 28.7573 10.9814 28.7595 10.9945 28.7614C11.0585 28.7719 11.129 28.7836 11.129 28.8436C11.129 28.9088 11.0519 28.9388 10.9867 28.9636L10.9566 28.9766L5.2949 31.3721ZM0 24.8585C0.0118067 24.6393 0.0512824 24.4224 0.11749 24.213C0.310697 23.6054 0.835487 23.0811 1.88768 22.0301L6.24788 17.6747C8.25544 20.5851 10.2684 23.4918 12.2869 26.3946C12.3221 26.4416 12.3613 26.4937 12.3208 26.5329C12.1302 26.7428 11.9396 26.9723 11.8052 27.2214C11.7906 27.2534 11.7681 27.2812 11.7399 27.3022C11.7229 27.3127 11.7047 27.3088 11.6851 27.3048H11.6825L0 24.8572V24.8585ZM7.41495 16.5089L13.2777 10.6526C13.8286 10.8938 15.8338 11.7401 17.6275 12.4965C18.9851 13.0702 20.2227 13.5918 20.6117 13.7614C20.6509 13.777 20.6861 13.7926 20.7031 13.8318C20.7136 13.8552 20.7083 13.8852 20.7031 13.91C20.5146 14.7687 20.7712 15.6646 21.3859 16.2937C21.425 16.3329 21.3859 16.3889 21.3519 16.4372L21.3336 16.4646L15.3808 25.6748C15.3651 25.7009 15.3508 25.7231 15.3247 25.74C15.2933 25.7596 15.2489 25.7505 15.2124 25.7413C14.9809 25.6807 14.7429 25.6483 14.5035 25.6448C14.2894 25.6448 14.0571 25.684 13.8221 25.727H13.8208C13.7947 25.7309 13.7712 25.7361 13.7503 25.7205C13.7272 25.7016 13.7074 25.6792 13.6915 25.654L7.41495 16.5089ZM14.4618 9.46984L22.0516 1.8883C23.1025 0.838569 23.6286 0.313052 24.237 0.121362C24.7493 -0.0404538 25.299 -0.0404538 25.8113 0.121362C26.4197 0.313052 26.9458 0.838569 27.9967 1.8883L29.6415 3.53136L24.2435 11.8823C24.2301 11.9066 24.2119 11.9279 24.19 11.9449C24.1573 11.967 24.1116 11.9579 24.0725 11.9449C23.2085 11.6829 22.2707 11.8635 21.566 12.4273C21.5308 12.4639 21.4786 12.443 21.4342 12.4234C20.7292 12.117 15.2463 9.80236 14.4618 9.46984ZM30.7877 4.67628L35.7719 9.65501L34.5709 17.0853V17.1048C34.5698 17.1218 34.5663 17.1385 34.5605 17.1544C34.5474 17.1805 34.5213 17.1857 34.4952 17.1935C34.2384 17.2712 33.9966 17.3916 33.7798 17.5495C33.7705 17.5561 33.7617 17.5636 33.7537 17.5717C33.7393 17.5873 33.725 17.6017 33.7015 17.6043C33.6823 17.6049 33.6633 17.6018 33.6453 17.5952L26.0502 14.3716L26.0359 14.3651C25.9876 14.3456 25.9301 14.3221 25.9301 14.2725C25.8855 13.8497 25.7473 13.4422 25.5254 13.0794C25.4889 13.0194 25.4484 12.9568 25.4798 12.8955L30.7877 4.67628ZM25.6547 15.8986L32.7746 18.9109C32.8138 18.9292 32.8568 18.9461 32.8738 18.9865C32.8806 19.0108 32.8806 19.0366 32.8738 19.0609C32.8529 19.1652 32.8347 19.2839 32.8347 19.4038V19.6033C32.8347 19.6529 32.7837 19.6738 32.7367 19.6933L32.7224 19.6985C31.5945 20.1797 16.8873 26.4442 16.8651 26.4442C16.8429 26.4442 16.8194 26.4442 16.7972 26.422C16.758 26.3829 16.7972 26.3281 16.8325 26.2786C16.8387 26.27 16.8448 26.2613 16.8507 26.2525L22.7018 17.2026L22.7122 17.187C22.7461 17.1322 22.7853 17.0709 22.848 17.0709L22.9067 17.0801C23.0399 17.0983 23.1574 17.1153 23.2762 17.1153C24.1639 17.1153 24.9863 16.6836 25.4824 15.9456C25.4942 15.9259 25.5092 15.9082 25.5268 15.8934C25.562 15.8673 25.6142 15.8804 25.6547 15.8986ZM17.5008 27.876L33.5318 21.0469C33.5318 21.0469 33.5553 21.0469 33.5775 21.069C33.6649 21.1564 33.7393 21.2151 33.8111 21.2699L33.8464 21.292C33.879 21.3103 33.9116 21.3312 33.9143 21.3651C33.9143 21.3781 33.9143 21.3859 33.9116 21.3977L32.5383 29.8242L32.5331 29.8581C32.524 29.9233 32.5148 29.9976 32.4535 29.9976C31.7101 30.0478 31.0394 30.461 30.6611 31.1021L30.6546 31.1126C30.6363 31.1426 30.6193 31.1712 30.5893 31.1869C30.5619 31.1999 30.5266 31.1947 30.4979 31.1882L17.7136 28.5541C17.7006 28.5515 17.5152 27.8773 17.5008 27.876Z" fill="url(#paint0_radial_5_262)"/>
</g>
<defs>
<radialGradient id="paint0_radial_5_262" cx="0" cy="0" r="1" gradientUnits="userSpaceOnUse" gradientTransform="translate(2500 -2500) scale(4999.99)">
<stop stop-color="#20C6B7"/>
<stop offset="1" stop-color="#4D9ABF"/>
</radialGradient>
<clipPath id="clip0_5_262">
<rect width="50" height="50" fill="white"/>
</clipPath>
</defs>
</svg>
