<svg width="50" height="50" viewBox="0 0 50 50" fill="none" xmlns="http://www.w3.org/2000/svg">
<g clip-path="url(#clip0_5_265)">
<path d="M35.2801 17.6687C35.516 17.7891 35.7348 17.9516 35.9129 18.1484L40.8051 15.9672L36.241 11.4422L35.2145 17.6031L35.2801 17.6687ZM25.1238 13.5578C25.3676 13.9156 25.5129 14.3219 25.5629 14.7531L32.8457 17.8391C33.0645 17.6687 33.316 17.5453 33.5848 17.4719L34.7801 10.0734L30.3441 5.41875L25.1207 13.4422L25.1238 13.5578ZM49.9832 24.9922L42.1785 17.1875L36.8645 19.3609L49.9191 24.9109C49.9191 24.9109 50.0332 24.9922 49.9832 24.9922ZM48.6816 26.2625L36.1504 20.9063C35.8004 21.3703 35.2707 21.6797 34.6926 21.7516L33.3504 29.9969C33.7488 30.4031 33.977 30.9484 33.977 31.5172L41.5441 33.1047L48.4863 26.2109V26.0812L48.6816 26.2625ZM32.0801 19.1891L25.2785 16.2906C24.7973 17.0234 23.977 17.4547 23.1051 17.4219H22.691L17.052 26.1219L32.1066 19.6031V19.6203C32.0988 19.5063 32.0988 19.3938 32.1066 19.2703C32.1145 19.2453 32.1051 19.2141 32.0801 19.1891ZM40.3488 34.4172L33.6926 33.0406C33.441 33.3672 33.116 33.6109 32.7316 33.7578L31.1441 43.5969L40.3895 34.4328C40.3895 34.4328 40.3723 34.4828 40.3473 34.4828L40.3488 34.4172ZM31.0379 33.7391C30.3957 33.4781 29.9238 32.9266 29.752 32.2578L17.3582 29.7125L17.1785 29.9984L28.427 46.2656L29.102 45.5984L31.0145 33.7813C31.0145 33.7813 31.0785 33.8297 31.0379 33.8062V33.7391ZM17.6191 28.2141L29.8676 30.7375C30.2254 30.1109 30.8676 29.7047 31.5848 29.6484L32.9113 21.5422L32.6254 21.2984L17.4004 27.825C17.4816 27.9453 17.5551 28.0766 17.6191 28.2141ZM12.4832 30.2563L12.2223 29.9984L6.94102 32.1687L9.50352 34.7172L12.4176 30.1922L12.4832 30.2563ZM15.9676 31.0875C15.6004 31.2578 15.1941 31.3391 14.7973 31.3484C14.4707 31.3484 14.1613 31.2984 13.852 31.1938L10.6379 35.8734L24.7332 49.8375L27.2145 47.3703L15.9676 31.0875ZM13.9895 25.5859C14.2004 25.5625 14.4207 25.5625 14.6395 25.5859C14.877 25.5547 15.1207 25.5547 15.3566 25.5859L21.052 16.7313C20.6066 16.2688 20.3598 15.65 20.3598 15.0141C20.3363 14.8266 20.3363 14.6312 20.3598 14.4453L13.4426 11.2469L7.87539 16.6656L13.9895 25.5859ZM14.6176 10.1641L21.3629 13.0375C21.8504 12.6312 22.4691 12.4187 23.1051 12.4437C23.3816 12.4516 23.6566 12.4922 23.9254 12.5734L29.1926 4.35469L24.8379 0L14.6176 10.0328C14.6176 10.0328 14.6004 10.1391 14.6176 10.1641ZM12.0941 27.1734C12.2316 26.9219 12.402 26.6859 12.5988 26.4734L6.82852 17.8625L0.00195312 24.4953L12.0941 27.1734ZM11.5488 28.6297L1.10664 26.4484L5.6957 31.1047L11.4832 28.6469L11.5488 28.6297Z" fill="black"/>
</g>
<defs>
<clipPath id="clip0_5_265">
<rect width="50" height="50" fill="white"/>
</clipPath>
</defs>
</svg>
