<svg width="50" height="50" viewBox="0 0 50 50" fill="none" xmlns="http://www.w3.org/2000/svg">
<g clip-path="url(#clip0_5_267)">
<path d="M49.7955 28.1744C51.5452 14.4769 41.872 1.95415 28.1994 0.204469C14.5269 -1.54522 1.95415 8.12804 0.204469 21.8006C-1.54522 35.4731 8.12804 48.0209 21.8006 49.7955C35.4981 51.5452 48.0209 41.872 49.7955 28.1744Z" fill="#FF6C37"/>
<path d="M34.0235 16.0521L23.4754 26.6002L20.501 23.6257C30.8741 13.2526 31.8989 14.1524 34.0235 16.0521Z" fill="white"/>
<path d="M23.475 26.85C23.4 26.85 23.35 26.825 23.3 26.7751L20.3006 23.8006C20.2006 23.7006 20.2006 23.5506 20.3006 23.4507C30.8487 12.9026 31.9485 13.9024 34.1731 15.902C34.2231 15.952 34.2481 16.002 34.2481 16.077C34.2481 16.152 34.2231 16.202 34.1731 16.252L23.625 26.7751C23.6 26.825 23.525 26.85 23.475 26.85ZM20.8505 23.6256L23.475 26.2502L33.6482 16.077C31.7985 14.4273 30.5487 13.9274 20.8505 23.6256Z" fill="#FF6C37"/>
<path d="M26.4995 29.6242L23.625 26.7498L34.1731 16.2017C36.9976 19.0511 32.7734 23.6753 26.4995 29.6242Z" fill="white"/>
<path d="M26.4998 29.8742C26.4248 29.8742 26.3749 29.8492 26.3249 29.7992L23.4504 26.9247C23.4004 26.8747 23.4004 26.8247 23.4004 26.7497C23.4004 26.6747 23.4254 26.6247 23.4754 26.5747L34.0235 16.0266C34.1235 15.9267 34.2734 15.9267 34.3734 16.0266C35.0233 16.6265 35.3732 17.4764 35.3482 18.3512C35.2982 21.1257 32.1488 24.6501 26.6998 29.7992C26.6248 29.8492 26.5498 29.8742 26.4998 29.8742ZM23.9753 26.7497C25.575 28.3744 26.2499 29.0243 26.4998 29.2743C30.6991 25.275 34.7733 21.1757 34.7983 18.3512C34.8233 17.7013 34.5734 17.0515 34.1485 16.5516L23.9753 26.7497Z" fill="#FF6C37"/>
<path d="M20.5501 23.7006L22.6748 25.8252C22.7247 25.8752 22.7247 25.9252 22.6748 25.9752C22.6498 26.0002 22.6498 26.0002 22.6248 26.0002L18.2256 26.95C18.0006 26.975 17.8006 26.825 17.7506 26.6001C17.7256 26.4751 17.7756 26.3501 17.8506 26.2751L20.4002 23.7256C20.4502 23.6756 20.5251 23.6506 20.5501 23.7006Z" fill="white"/>
<path d="M18.1509 27.1998C17.7759 27.1998 17.501 26.8999 17.501 26.5249C17.501 26.35 17.576 26.175 17.7009 26.05L20.2505 23.5005C20.4005 23.3755 20.6004 23.3755 20.7504 23.5005L22.875 25.6251C23.025 25.7501 23.025 25.975 22.875 26.125C22.825 26.175 22.775 26.2 22.7 26.225L18.3008 27.1748C18.2508 27.1748 18.2009 27.1998 18.1509 27.1998ZM20.4754 23.9754L18.0259 26.4249C17.9759 26.4749 17.9509 26.5499 18.0009 26.6249C18.0259 26.6999 18.1009 26.7249 18.1759 26.6999L22.3001 25.8001L20.4754 23.9754Z" fill="#FF6C37"/>
<path d="M39.5969 10.203C37.9972 8.65332 35.4227 8.70331 33.873 10.328C32.3232 11.9527 32.3732 14.5023 33.9979 16.052C35.3227 17.3268 37.3223 17.5517 38.8971 16.6019L36.0476 13.7524L39.5969 10.203Z" fill="white"/>
<path d="M36.7973 17.4266C34.4227 17.4266 32.498 15.5019 32.498 13.1274C32.498 10.7528 34.4227 8.82812 36.7973 8.82812C37.8971 8.82812 38.9719 9.25305 39.7717 10.0279C39.8217 10.0779 39.8467 10.1279 39.8467 10.2029C39.8467 10.2779 39.8217 10.3279 39.7717 10.3778L36.3973 13.7522L39.0469 16.4018C39.1468 16.5017 39.1468 16.6517 39.0469 16.7517C39.0219 16.7767 39.0219 16.7767 38.9969 16.8017C38.347 17.2016 37.5721 17.4266 36.7973 17.4266ZM36.7973 9.35303C34.6977 9.35303 32.998 11.0527 33.023 13.1523C33.023 15.252 34.7226 16.9517 36.8223 16.9267C37.3972 16.9267 37.9721 16.8017 38.497 16.5267L35.8724 13.9272C35.8224 13.8772 35.7975 13.8272 35.7975 13.7522C35.7975 13.6773 35.8224 13.6273 35.8724 13.5773L39.2218 10.2279C38.547 9.65298 37.6971 9.35303 36.7973 9.35303Z" fill="#FF6C37"/>
<path d="M39.6722 10.278L39.6222 10.228L36.0479 13.7524L38.8723 16.5769C39.1473 16.4019 39.4222 16.202 39.6472 15.977C41.2469 14.4023 41.2469 11.8527 39.6722 10.278Z" fill="white"/>
<path d="M38.8973 16.8519C38.8223 16.8519 38.7723 16.8269 38.7223 16.7769L35.8728 13.9274C35.8228 13.8774 35.7979 13.8274 35.7979 13.7524C35.7979 13.6775 35.8228 13.6275 35.8728 13.5775L39.4222 10.0281C39.5222 9.92813 39.6722 9.92813 39.7721 10.0281L39.8471 10.0781C41.5218 11.7528 41.5218 14.4523 39.8721 16.152C39.6222 16.402 39.3472 16.6269 39.0473 16.8019C38.9723 16.8269 38.9223 16.8519 38.8973 16.8519ZM36.3977 13.7524L38.9223 16.277C39.1223 16.152 39.3222 15.977 39.4722 15.8271C40.8969 14.4023 40.9719 12.0777 39.5972 10.578L36.3977 13.7524Z" fill="#FF6C37"/>
<path d="M34.4485 16.5017C33.8486 15.9018 32.8738 15.9018 32.2739 16.5017L22.8506 25.925L24.4253 27.4997L34.3985 18.7513C35.0484 18.2014 35.0984 17.2265 34.5485 16.5767C34.4985 16.5517 34.4735 16.5267 34.4485 16.5017Z" fill="white"/>
<path d="M24.3999 27.7496C24.3249 27.7496 24.2749 27.7246 24.2249 27.6746L22.6502 26.0999C22.5502 25.9999 22.5502 25.8499 22.6502 25.75L32.0735 16.3267C32.7734 15.6268 33.8982 15.6268 34.598 16.3267C35.2979 17.0265 35.2979 18.1513 34.598 18.8512C34.573 18.8762 34.548 18.9012 34.523 18.9262L24.5498 27.6746C24.5248 27.7246 24.4749 27.7496 24.3999 27.7496ZM23.2001 25.9249L24.4249 27.1497L34.2231 18.5513C34.773 18.1013 34.823 17.2765 34.3731 16.7266C33.9232 16.1767 33.0983 16.1267 32.5484 16.5766C32.5234 16.6016 32.4984 16.6266 32.4484 16.6516L23.2001 25.9249Z" fill="#FF6C37"/>
<path d="M15.6262 36.648C15.5262 36.6979 15.4762 36.7979 15.5012 36.8979L15.9261 38.6976C16.0261 38.9475 15.8761 39.2475 15.6012 39.3225C15.4012 39.3975 15.1762 39.3225 15.0513 39.1725L12.3018 36.448L21.2751 27.4746L24.3746 27.5246L26.4742 29.6242C25.9743 30.0491 22.9498 32.9736 15.6262 36.648Z" fill="white"/>
<path d="M15.4269 39.5724C15.227 39.5724 15.027 39.4974 14.902 39.3474L12.1775 36.6229C12.1275 36.5729 12.1025 36.5229 12.1025 36.4479C12.1025 36.373 12.1275 36.323 12.1775 36.273L21.1509 27.2996C21.2009 27.2496 21.2759 27.2246 21.3259 27.2246L24.4253 27.2746C24.5003 27.2746 24.5503 27.2996 24.6003 27.3496L26.6999 29.4492C26.7499 29.4992 26.7749 29.5742 26.7749 29.6492C26.7749 29.7242 26.7499 29.7741 26.6749 29.8241L26.4999 29.9741C23.8504 32.2987 20.2511 34.6233 15.7769 36.8479L16.2018 38.6226C16.2768 38.9475 16.1268 39.2974 15.8269 39.4724C15.6769 39.5474 15.5519 39.5724 15.4269 39.5724ZM12.6774 36.4479L15.252 38.9975C15.327 39.1225 15.4769 39.1725 15.6019 39.0975C15.7269 39.0225 15.7769 38.8725 15.7019 38.7475L15.277 36.9479C15.227 36.7229 15.327 36.5229 15.5269 36.423C19.9511 34.1984 23.5255 31.8988 26.15 29.6242L24.3003 27.7745L21.4259 27.7245L12.6774 36.4479Z" fill="#FF6C37"/>
<path d="M10.1779 38.5979L12.3275 36.4482L15.5269 39.6477L10.4278 39.2977C10.2029 39.2727 10.0529 39.0728 10.0779 38.8478C10.0779 38.7478 10.1029 38.6478 10.1779 38.5979Z" fill="white"/>
<path d="M15.5265 39.8727L10.4024 39.5227C10.0275 39.4977 9.7775 39.1728 9.8025 38.7979C9.8275 38.6479 9.87749 38.4979 10.0025 38.3979L12.1521 36.2483C12.2521 36.1483 12.402 36.1483 12.502 36.2483L15.7014 39.4477C15.7764 39.5227 15.8014 39.6227 15.7514 39.7227C15.7014 39.8227 15.6265 39.8727 15.5265 39.8727ZM12.327 36.7982L10.3524 38.7729C10.2774 38.8229 10.2774 38.9478 10.3524 38.9978C10.3774 39.0228 10.4024 39.0478 10.4524 39.0478L14.8766 39.3478L12.327 36.7982Z" fill="#FF6C37"/>
<path d="M20.4003 28.6247C20.2504 28.6247 20.1504 28.4997 20.1504 28.3747C20.1504 28.2997 20.1754 28.2497 20.2254 28.1997L22.6499 25.7752C22.7499 25.6752 22.8999 25.6752 22.9999 25.7752L24.5746 27.3499C24.6496 27.4249 24.6746 27.4999 24.6496 27.5999C24.6246 27.6748 24.5496 27.7498 24.4496 27.7748L20.4503 28.6247C20.4253 28.6247 20.4003 28.6247 20.4003 28.6247ZM22.8249 26.3001L21.1752 27.9498L23.8747 27.3749L22.8249 26.3001Z" fill="#FF6C37"/>
<path d="M24.3745 27.5248L21.6249 28.1247C21.425 28.1747 21.225 28.0497 21.175 27.8498C21.15 27.7248 21.175 27.5998 21.275 27.4998L22.7997 25.9751L24.3745 27.5248Z" fill="white"/>
<path d="M21.5751 28.3747C21.2251 28.3747 20.9502 28.0998 20.9502 27.7498C20.9502 27.5749 21.0252 27.4249 21.1252 27.2999L22.6499 25.7752C22.7499 25.6752 22.8998 25.6752 22.9998 25.7752L24.5745 27.3499C24.6495 27.4249 24.6745 27.4999 24.6495 27.5999C24.6245 27.6748 24.5495 27.7498 24.4496 27.7748L21.7001 28.3747C21.6501 28.3747 21.6001 28.3747 21.5751 28.3747ZM22.8249 26.3001L21.4751 27.6498C21.4251 27.6998 21.4251 27.7498 21.4501 27.7998C21.4751 27.8498 21.5251 27.8748 21.6001 27.8748L23.8997 27.3749L22.8249 26.3001Z" fill="#FF6C37"/>
<path d="M39.6973 12.6772C39.6473 12.5272 39.4724 12.4522 39.3224 12.5022C39.1724 12.5522 39.0974 12.7272 39.1474 12.8772C39.1474 12.9022 39.1724 12.9272 39.1724 12.9522C39.3224 13.2521 39.2724 13.627 39.0724 13.902C38.9725 14.027 38.9975 14.2019 39.0974 14.3019C39.2224 14.4019 39.3974 14.3769 39.4974 14.2519C39.8723 13.777 39.9473 13.1771 39.6973 12.6772Z" fill="#FF6C37"/>
</g>
<defs>
<clipPath id="clip0_5_267">
<rect width="50" height="50" fill="white"/>
</clipPath>
</defs>
</svg>
