<svg width="75" height="50" viewBox="0 0 75 50" fill="none" xmlns="http://www.w3.org/2000/svg">
<path fill-rule="evenodd" clip-rule="evenodd" d="M58.8712 32.5045V35.1421H63.6363C64.6127 35.1421 66.2885 34.4281 66.3468 32.4316V31.4116C66.3468 29.7066 64.9479 28.7011 63.6363 28.7011H61.261V27.477H65.9679V24.8248H61.4505C60.2847 24.8248 58.7254 25.7866 58.7254 27.579V28.4971C58.7254 30.2895 60.2701 31.2075 61.4505 31.2075C64.7293 31.2221 60.6636 31.2075 63.6946 31.2075V32.4899M33.3402 31.8633C33.3402 31.8633 35.8904 31.6447 35.8904 28.3513C35.8904 25.058 32.801 24.752 32.801 24.752H27.2344V35.1421H30.0323V32.6356L32.4513 35.1421H36.5899L33.3402 31.8633ZM32.2619 29.7357H30.0323V27.3604H32.2764C32.2764 27.3604 32.9031 27.5936 32.9031 28.5408C32.9031 29.488 32.2619 29.7357 32.2619 29.7357ZM42.7977 24.8248H39.9561C37.9305 24.8248 37.2456 26.6609 37.2456 27.5353V35.1421H40.0873V33.3205H42.754V35.1421H45.5082V27.5353C45.5082 25.3203 43.4972 24.8248 42.7977 24.8248ZM42.754 30.3769H40.0727V27.8559C40.0727 27.8559 40.0727 27.2876 40.9616 27.2876H41.938C42.7249 27.2876 42.7395 27.8559 42.7395 27.8559V30.3769H42.754ZM46.8052 24.8248H49.7634V35.1421H46.8052V24.8248ZM50.9729 24.8248V35.1421H57.8948V32.4753H53.9165V24.8248H50.9729Z" fill="#CC0000"/>
<path fill-rule="evenodd" clip-rule="evenodd" d="M9.6748 35.1424H21.187C21.187 35.1424 18.9866 25.102 26.2728 21.0363C27.8612 20.264 32.9179 17.3786 41.195 23.499C41.4573 23.2805 41.705 23.1056 41.705 23.1056C41.705 23.1056 34.1274 15.5425 25.6899 16.3877C21.4493 16.7666 16.2324 20.6283 13.1722 25.7286C10.112 30.829 9.6748 35.1424 9.6748 35.1424Z" fill="#CC0000"/>
<path fill-rule="evenodd" clip-rule="evenodd" d="M9.6748 35.1424H21.187C21.187 35.1424 18.9866 25.102 26.2728 21.0363C27.8612 20.264 32.9179 17.3786 41.195 23.499C41.4573 23.2805 41.705 23.1056 41.705 23.1056C41.705 23.1056 34.1274 15.5425 25.6899 16.3877C21.4493 16.7666 16.2324 20.6283 13.1722 25.7286C10.112 30.829 9.6748 35.1424 9.6748 35.1424Z" fill="#CC0000"/>
<path fill-rule="evenodd" clip-rule="evenodd" d="M9.6748 35.1424H21.187C21.187 35.1424 18.9866 25.1019 26.2728 21.0362C27.8612 20.2639 32.9179 17.3785 41.195 23.499C41.4573 23.2804 41.705 23.1055 41.705 23.1055C41.705 23.1055 34.1274 15.5424 25.6899 16.3876C21.4348 16.7665 16.2178 20.6282 13.1576 25.7286C10.0974 30.8289 9.6748 35.1424 9.6748 35.1424ZM33.6611 17.2037L33.7193 16.2273C33.5882 16.1545 33.2239 15.9796 32.3058 15.7173L32.2475 16.6791C32.7284 16.8394 33.1947 17.0142 33.6611 17.2037Z" fill="#CC0000"/>
<path fill-rule="evenodd" clip-rule="evenodd" d="M32.2762 20.2929L32.2179 21.211C32.6988 21.2256 33.1797 21.2839 33.6606 21.3859L33.7189 20.4824C33.2234 20.3804 32.7425 20.3221 32.2762 20.2929ZM26.8844 15.7463H27.0301L26.7387 14.8574C26.287 14.8574 25.8206 14.8866 25.3397 14.9449L25.6166 15.8046C26.0392 15.7609 26.4618 15.7463 26.8844 15.7463ZM27.5839 21.109L27.9191 22.1145C28.3417 21.9105 28.7643 21.7356 29.1869 21.6045L28.8663 20.6427C28.3708 20.7884 27.9482 20.9487 27.5839 21.109ZM20.968 17.2764L20.3123 16.2709C19.9479 16.4604 19.5691 16.6644 19.1756 16.8976L19.8459 17.9176C20.2248 17.6845 20.5891 17.4659 20.968 17.2764ZM23.9554 23.834L24.6548 24.8833C24.9026 24.519 25.194 24.1838 25.5146 23.8486L24.8589 22.8577C24.5237 23.1637 24.2177 23.4989 23.9554 23.834ZM21.8424 28.5264L23.0227 29.459C23.081 28.8907 23.183 28.3224 23.3287 27.754L22.2795 26.9234C22.0901 27.4626 21.9589 28.0018 21.8424 28.5264ZM15.4596 21.6045L14.425 20.701C14.0461 21.0653 13.6818 21.4296 13.3466 21.7939L14.4687 22.7557C14.7747 22.3622 15.1099 21.9688 15.4596 21.6045ZM11.0588 28.1183L9.38292 27.5063C9.10604 28.1329 8.80002 28.8615 8.6543 29.255L10.3301 29.867C10.5196 29.3716 10.8256 28.6575 11.0588 28.1183ZM21.6238 32.2278C21.6529 33.0001 21.7258 33.6267 21.7986 34.0639L23.5473 34.6905C23.4162 34.1222 23.285 33.481 23.1976 32.7961L21.6238 32.2278Z" fill="#CC0000"/>
</svg>
